<mxfile host="app.diagrams.net" modified="2021-05-19T07:58:45.169Z" agent="5.0 (Windows NT 10.0; Win64; x64) AppleWebKit/537.36 (KHTML, like Gecko) Chrome/90.0.4430.212 Safari/537.36" etag="BddO-AxRkagRx6dtoq98" version="14.6.13" type="github">
  <diagram id="decuYEb9mpkRT6ohUjdz" name="Page-1">
    <mxGraphModel dx="1385" dy="635" grid="1" gridSize="10" guides="1" tooltips="1" connect="1" arrows="1" fold="1" page="1" pageScale="1" pageWidth="827" pageHeight="1169" math="0" shadow="0">
      <root>
        <mxCell id="0" />
        <mxCell id="1" parent="0" />
        <mxCell id="AIi_DUGuVKqyzoAr-9P3-3" value="" style="shape=image;verticalLabelPosition=bottom;labelBackgroundColor=#ffffff;verticalAlign=top;aspect=fixed;imageAspect=0;image=data:image/png,iVBORw0KGgoAAAANSUhEUgAAAjUAAAEFCAYAAAAbhxaoAAAgAElEQVR4AezdCbQ8RXU/cI//GD0YIyougIiyCrIH2TdZf+y77IsoCrKjyKooIqAEUJFNQYWgQgDZlQAiQkBjTEBEEQ0BWWIImkSzr/0/nzL3Z/2a6ZnpeTPvzXtTdU69ntddXcutu3zvreruF1QlFQoUChQKFAoUChQKFArMAQq8YA6MoQyhUKBQoFCgUKBQoFCgUKAqoKYwQaFAoUChQKFAoUChwJygQAE1c2IayyAKBfqjwP/+7//2VzAr5Z7I2emR/oz2mvqbX4/fI+1QqbxQoFBgVlCggJpZMU2lk5NEgf/5n/+p/v3f/736p3/6p+rXv/51x/zP//zP1X/8x38ksNEvbR599NHq7LPPrm655ZbqF7/4xfNuAw7+8z//s/qXf/mX6r/+67/mX//xj39cnXvuudU3v/nN6le/+tX88//93/9d/eu//mulL039NA7jqadoq36futyj/RtvvLG6+OKLq4ceemiB29Hl3nvvrT7+8Y/PzzfccEPqwwIFG/7Rdrd+qz/6oWxJhQKFArOHAgXUzJ65Kj2dEAo88cQT1WWXXVZ94AMfqD72sY/NN9xhxE8//fTq2GOPra655prqueee60kVhvmnP/1pdeSRR1brrbdetf3221df/vKXn3cvQ//tb3+7Ovnkk6v77rtvfr133HFHtc4661TnnHNO9fOf/3z++R/+8IcJ7Bx//PHVWWed9bx+6u/dd9+9ABCKmwGX73//+wlkxbiM9Zhjjqmuuuqq1Lf3v//91VZbbVUBLBKg8dRTT1U/+tGPqptuuqk688wz5+crr7yy0h+0A5Q6ASl1oMU//MM/VGeccUairzqi/Th+5CMfqU444YRKnQBeSYUChQKzhwIF1MyeuSo9nRAKfPe736322Wefau21167OP//86uqrr14g/+Ef/mH1pje9KQGbxx57rCNVRDqeffbZ6s///M+r+++/vzrqqKOq3XbbLYGIww47rNpvv/2qSy+9tPrOd75TieAAAqIwV1xxRarbtUgiO0sttVTF2D/99NNxuvr6179ebbbZZtXGG29cfeELX0hACVjK8wMPPJDAyPyb/u+HiNBf/dVfJQCj/Je+9KU01te97nWV/gEn73nPe6o111wzlQFGfvKTn6R2zjvvvDQOwCSyCNSnPvWp6oILLqgefvjhFHGqt+l/9RjD6quvXq2xxhrV5z73uQVoi9Ynnnhiavdd73pX9fd///edqinnCgUKBcaUAgXUjOnElG5NLgUAjV133TUZVtEC0Y48i+IstthiyfgDBp3Sv/3bv1UPPvhg9elPfzpFU/bcc8/q2muvTVEKyzmiMSIsAML1119fPfnkk9Xjjz+ezr/2ta9Nyz5R76233lotvfTS1WmnnVY988wzcbq6+eabqw022CCBJYDIclQ9N0VMVAJgKA+AiYhcd9111Rvf+Mb57RxyyCHVWmutNR/U6KM2AS/ADlATfZL9/sQnPpHAEaCXL5/N7/D/tSnas/zyy1errLJK9dWvfnUB2qKziNGqq65a7bvvvgXU5MQrvwsFZgEFCqiZBZNUujhZFAhQs8gii1QbbrhhNW/evAWyJaSFFlqoOvzww1O0oxN1LO9YcrIvxVLNnXfemSIxIiSyaMZtt92Wrovk/M3f/E31jW98I4GI17zmNQkMibI4JxoCRNVBDbCz0UYbVZtuumnlt7KytiLrA4DVLQE3ltEAOWOzd0fkSKQmQE3cbx+RZSZRo5133rk69dRTU7/8/uAHP1j94Ac/SHuNonz9GJGaFVZYoXrlK19Zve1tb1uAtmgtggPYHXDAAQXU1AlY/i8UGHMKFFAz5hNUujd5FAhQ84IXvKDqlptAjejH3/7t3yZw8K1vfauSRSBuv/32BHC+9rWvJfDhnGsiN/bKWAJaeOGFq1e/+tXVwQcfnParnHLKKZUozyte8YrngRpLW/a9WMqyZCPyY6/PSSedVLlPBpzsYWlKQAYAY4lr8cUXr4477rjq7/7u7xIwefe73/08UKOuL37xi9XrX//6BD5Ed0Rv3vrWt6b7LSf98pe/bGpu/vLTiiuuWL3whS9spO9LXvKS6sADDyygppGS5UKhwHhSoICa8ZyX0qsJpsBUQY0ozV/+5V8mgABkvO9970sbcC2nWEYSnQAYbMqV7dsBdEQ/lltuuQQkAAzXbMoFIpZccsnngRrtiLBYkrLfBTDxlJQNwJaKLPMAIU1LQZam/vEf/zHtzRGRAjREkJQXTeoEajy1deGFF1b23hx00EGVpaaf/exnqaxz9tUARU0pIjUF1DRRqJwvFJjdFCigZnbPX+n9HKTAVEENwy1a42kmoELUxpNDloRsMAZyPKZtWUgGSCzjvOUtb0lRF9EPkQ/LX6I4lrA67anJSS/SY/nH0hVA1QRk4h591DdACMgSHdIvG3NdawI1xgGA2Zxs/43IjsiQ3+uvv36K2oj8NKUCapooU84XCswNChRQMzfmsYxiDlEgQM3v/M7vVL//+7+floQsC0V+2ctelpZOmpafghTet2I/DcPviZ8//dM/TU/9ADCiG5GAnW222SZt+vX4tE27lnTsLbGf5o/+6I/S00/5nhrgIM+iNZagXv7yl6cnroCSuB7t5Edg6p577kmPly+xxBJp2SoAjXJNoEadQIuxfOhDH0pLToCU35bSXFOmKbmGFiI1v/u7v5v6G3SN40tf+tJKLstPTVQs5wsFxpcCBdSM79yUnk0oBbwrxqbZlVdeOT26DFTk2dM5DLlHn23EbUoiNJafXvziF1ff+9730iPeNvJaUgJcwvhbrrFZ2B6ZeFoJqHDuT/7kT9Ijzx7pDlCjjCiQJ54ieyxcW0CNvTr2tcQ1y1TRVvRV/X/913+dnrzSRn0fTB3UuN+5eCGhiI3Hvj3yLcLkyS3ngBq56cWE6omnnzwB9ZnPfGYB2qLz0UcfXdlIbLmu3q/ofzkWChQKjCcFCqgZz3kpvZpgCli+8TjzSiutlCIonuzJsyd0ll122bTcw7A3pQA1IhIeXX7kkUfS01KAkCUnQADwAFIsVwWgifqck0Vt8vfUaNMj1TvuuOP8LNLjSSXLW1tssUW1ww47zL/mkXF7Z+pJe5aptFEHPUDJO9/5zhRZ8h4b10Vn7LOJdrUJfAAnfsd594naqLee1ONJL+/XQd/ttttuAdqis+Ww1VZbLS2Hdep3vc7yf6FAocD4UKCAmvGZi9KTQoFEAUszDC/wYSNsp+yaCIvoRVOynHPRRRdVm2yySYo6MPZeKOcoe2uuNwfXAUW9PpGjvfbaq7r88svTxmCAA2Dyjpw8B1jKz/lt70wngFFvJ//fuLxQz2Pdd911V+qjKI1ls7z+Tm0qo2zTuNQNmDXRN+q3T6htv/MxlN+FAoUC00+BAmqmn+alxUKBnhRgkCOCwrDWs2tNRjsqd4+nhRhpSz31bBmG8e+VLFUBCkBSbADu1DfnIuf97dXPTu27B2jL+9iJJp3ac65Xm53uiz7HtV51dOp3OVcoUCgwsxQooGZm6V9aLxQoFCgUKBQoFCgUGBIFCqgZEiFLNYUChQKFAoUChQKFAjNLgQJqZpb+pfVCgUKBQoFCgUKBQoEhUaCAmiERslRTKFAoUChQKFAoUCgwsxQooGZm6V9aLxQoFCgUKBQoFCgUGBIFCqgZEiFLNYUChQKFAoUChQKFAjNLgdagxmOPHgP1qOikZm8ZlSd1/GXck8v7veY+l4v8d6/7Zvv1ohOKTMx2Hp7p/nsRaLf3bvULlVqDGoDmz/7sz6prrrlmYvOXvvSl9Gr1P/7jP55YGkzy/Jexd5Z98uAFfV/5ylcqbwG+4oor0icWJoFexusTC8Y+CeMtY+wsA4Uug9Plm9/8ZvqUS7/gpalca1DDI7n22mvTB+R8RG7Ssi8R77TTTpVX1R9//PETN/5Jm+8y3v5l3Fe2fd374IMPTh+D9NXsI488ciJkZJ999qm23nrr9MbmwjP980yhVaFV8MBll12W3p7eBFb6Pd8a1PRb8VwuxwM9//zz04fz5vI4y9gKBdpQwKcTfGTTt6t8pwno9xbjSUg+yunjmD4KWtJwKOCNzsN+q7P6vCE73ozdq6ed2veZEB9p9ebpSUi2nPiAbafxxhzFW7gdO9FsOulUQE1Lapu0L37xi9UnP/nJ9E2blreX4oUCc5YCQM2hhx5affe7300flDzuuOMmBtR8/etfrz71qU+lsc/ZCR7hwMI4hkGkZ30DTc5TXi7/nZeJ352u+5K7j7E+/PDD8410Xs5vyRF4UT7OOe/crbfeWt1yyy2Vb4PN9WQefAgXYCffOS2MHbizevPss8+m7NMmvvWGTjOVCqhpSfkCaloSrBSfGAqMCtRQkL6WPd0bGX3rilffTyqgph8qPb8MIymaJ7onyvUXf/EX1ZNPPpk+6OrL8hxISTkA4/vf/34qp2ye1SGaIAFCvlUW19WtTrrbZlQfSb3//vvT99Tw1A9/+MPqe9/7XirvtzLm/c4776w++tGPLgCsfFwVePUh2GFsatVf/fr1r39dPf30088DDWlAQ/4j8hJApA5SOjUFpNx0003pA7j16+j2gQ98oNpzzz1T3nHHHRN90W6mUgE1LSlfQE1LgpXiE0OBYYMaCtfXyq+77rrqE5/4RPXxj3982vJZZ52VvhJ+/fXX97XMXEDNYGxuji3ni+odddRR1a677lqdccYZ6WEUG69FxCXAFuDxxXlLnEccccQCWdlnnnkmlRU1uPrqq9P19773vdX+++9f2e8lqgA8HHLIIZUvzzPuHvrwxfp3v/vdqTw+8/V2oEZERp8C2DLu2rEZ3kdi+wEE/VAFWAOW7C3pd1msn3qbygBtNrRfcMEFfUVUgDdg0n7SH/zgBwtUC0yqSyRHPuGEExLNgKCZSgXUtKR8ATUtCVaKTwwFhg1qKHtPVDE0NhFSntOVr7zyyurTn/50UvyPP/54zzksoKYniRoLWLJ44okn0j4sc+1JMstDwMN5552X7gNIvvOd71Q777xz9eijjz7vi/PPPffcfAPNCIvAMLiWTvAQ4CKCUwc1l156aeIvUR3lH3zwwdQ+AA38AE8Bah566KHqYx/7WHX33Xentpy3dwzw0udYjgJMgCb7Lj/3uc8lsAUAAQYiT9oE0MjLDTfckP4XldJWE6gRhbr33ntTlIgMiDzJeFTkSIQpIkcAF/4FMjypHOeBvquuuioBs89+9rMJPKKr9NRTT6V71KXvaKV/gJ029PkLX/hCuicHc7fffnt6aOaNb3xjJS+22GLVSiutVH34wx9O9zdO+ggvFFDTkrgF1LQkWCk+MRQYJqihbHl7wIxQv4gN4zddmYGyRMGTZyR6pQJqelGo8/U77rgjgYqPfOQjadlCxIbxthTDiAIXDDoAAdSss8461amnnlopn2fgAP9JAA7eUU50ATgRiWkCNRdddNF8QGJZRp8uueSS6thjj01P7wWoAUTUqR+Agn0173rXu6rDDz88gRdRHG0/8MADCegAMMDD5z//+QRA/L/lllum8sCANkSmTj755Oqggw5KEagmUKPe008/vVpvvfUSvfTlwgsvTHUDf8DgT37ykwoA1w9gSrvax8eW484555zK8pB6tCsaSc7IFDlzjz6q1z2W7US6Nt1003QdOLTUBNSgifIHHHBAteSSS1YLLbTQ/LzwwgunpyCBPSByutNIQQ2CCQVC4bMlQ7/CjE2pgJomypTzk06BYYEaSw1f+9rXUpSEJ+zdWNOdLE386Ec/SktfBdSMjvqiFzfeeGOKIAA0QANjytCKGmy77bbVxRdfnB71BTQZ8E7vgrE53b4riXE/99xzE1gQAfEKkm9961tpualTpEb9AYgYa8BANMiymFcS5KBGBAKocQ4Ysjylbm3qg/rZOsBIOWM7+uijE9BRHgACwERD7Nc55ZRTqnvuuSdFNiyrNYEaYwdCbMRHHxEY0SdRIwBk7733Tv0QjVE3ufHeFwAGzWLvC/ADNGrrzDPPTKDGcptxWLLjQACCgJF6zYkxi5yhY4Aatt2+GWAIuLTsJJ944ompvCjRN77xjfn7nEbHQc+veSSgRtjYJJtYaNFu87PPPntWZOFOoTsMCh0DMXkaJqiJDW1NjJy3i4n0x+bFkgoFxpECwwA1vECyd9ppp1UMEuOWh7una9xkUkifIp9OUEPOGTD7HkaR6A80jSWJXm0w0srT6aNIdCAwwrDb4wHM0nPaFDEQwWBH/A9o6o/y9QxkuC6ZN8YcYGDYw/BbYgJYvEeJ4VdetMRelttuuy1tFFbWkotI0c0339wIagBt/RP9MGfqMhZ0jWUetuSkk06q3v72tycQoi1j1AfRHHbRfjFjsXcL4GmyBSKV2gMWtKf/m2++eVoOUo82nEMnYAJQs1RmP5H7XANOgB1Lc/ph75K6ADiRm/e///3JRuuHqIx7gCARKY4+eVSGPMpoYLkOWAPQZOMFlgA9PFO3n6PgoXqdQwc1hBHhIDihL2t4iGHyZkM2mcJqGNI6KQbMFcCwQA2mEBK0XklQJedsxCKIBBkS/vGPf5zQLiEjeJhlHJJ5tgYdfe+nTxQPsNvmnn7qnUoZc4u25gL9h5EoJvUxTsOqcxj9GnUdwwA1Irv2IjAAeKVJyY96LKMENeq2P4PxIecyY2q8eEYkgmedJ9fIfpSPo3M87eAzR7IZOkQ53jdDJvHSGWvLLBKZ5PlHfY76pR/6yfgyatofRdJfOo8jaUnG/DvnaCkEaNCPsCt5P/PfoSvDUaTDRRno18giPxHhYLABkVimsszlOgMNWBm/KEs9UhPLT5bEAF7gwH4UOg04YPxt+gUgRD7w8YEHHpiAut9sIn2DroC7NoFm9qZbpAaoAVTUod/6v8MOO6Q9ZvohiqN9tLTsYw+MpVNRIvcpjx7obC5FVSJSw8bst99+KbrFRisPZLoH/dkdQE2d6JMnERwBi2OOOSZl9YggzZmNwpAZIbMWakIh4xCenBDj/JuRw2QEHyomWDmwaQtqeEbCeNA/YZExDKOHITBBKBzMitEwO/Rtx75IF4aKdwUIC45D4g0JaxKIUKh5v4yF1yC8HIkw8xoo4UiUKkGkOIM++TE8tCiP/pSc7Le28Zh2tNkrUTrAWISbKSMCyJCoEw+bH33QJxlPU1zmyXjDa9U+fokcfXJdfZS0Mk3J2NWNN9CToqOc/U+hBF803T9u56cCaswjw0WpUvxkg4GaqWQuRxWp4R3jK8bWMgmjIKrAESQbwvn0T54YM4aS8XVPZAYIUEG/oCG5tNdDWXXbF8HAAQocNYaKLEr0E6eTUY3skWeGWQRBP7WFH0eR9NmLCwEUEZpIAWr0SRl6AH1i3PWjcvpMnsmfucv1SPymR9HGeOgL2w1C3pWJSIY6LBPlG4XZBe0qFzoHKEFnkRZZP8kw8AMUmYvddtstRT7cCxigPR1Ex3sTtYiKfSu9IjXkAljTb+PQBt1FX1gqY1OAZbTQLlkCyiwnoa/y++67b4rQePM33sCLaGAMbIuxAUkiMJbP1KV+wNfeH8ApT8pYEvM2bXmDDTZIESR0wT8zkYYWqUFoKJjwUeazfZmEMWLAgAwKAXJ3TgZ0oOFue29iMjGDkBwkKyQqU0TOEzwbrYJWFKn/CS9FhQkxHmStLzxYjC3s181YRtujOho3gQG+bJAk4BRPnngyFIfxRjIOa7c2uUUiULwdIeGgT36k5NFFAh7QgdLgiT722GPJ8BFAoc9+jCCam0+KTNJ34BWd7eUAJPBwhG71i4ACHPqtr/qsL8ZD4NHAkRLTFyBUfcB9N6Bl3nk+lKw2eVEUH14RErcMM5vSoKAG7+BpCtr4ARrKdibTKEENnsDX5pfDgx8ZDPziPLkCJvIk7M/A4H2GJDKexI+SehnLrbbaKu1tEP1hpPGTzbLa8uSMegLUANYcAtGZyLvvvnvqk/8tUQBTdPsokrnnNAIRuQ7BS+iBH5x3PQxtjD0/6p+9LGS4W8JnDL3y3WRTe+aAY0mXSWjF4OsX485oc15EQ+hm9KWDADJOPdtBjoFKgME8oymdo07lAQ79ATYCsHTqP13BrgIn6MEBML/mh66ie+guoM55gBk41jdl8AGdafMzHbzXXnule+gxfRbNc4+6jAlP0W/ANZ6j742xnvCw+mxAln1CiKOuLD04E2looAYTUP4IYlLnSuJJC9uZPALTFtRgMEqBNxSbpU02pqS8bfDCPP7HYEJ3jCSmYmwxmuuMOTSNKdVJwKYzhWIB7ggX4EXAeQSEhZLEA5H8JoBAAUVCSVFCPB+ALhLlACBSXkGf/Ej4Q9mhAcGnCAA+3gkjQDkABr1oQokpy0PihTFcFAxgwXtFf9n8oDlDI6yrv8aA7niBQkQHwi6Ma0w20O2xxx5pjkSewlvqpjijLW1QAgwUb8sSKIWI92ZTGhTUhFKlgCnffsDpqOkySlCDnzkG6IV/8T8DBJAEqAGS84TPGNlu3q8+k5GNN9448W/wHgeJ3hARqYOaMI7h8fPULZfYNoAHt99++8Tf0w2wRTxElerLHTlNBvmNtzil6NzNMQSqyT0wkgMlzo3lGDrK/eaDrqYPyLNkfoEL58mzKK8olDmno2JelAdElKNzujnJ7qFTcx2rX9FGrieNUX/0MfpGfynPNkd7+hi61TX36C+ecN45Zehodt0SWJQP2mtLnfR/ZON1bqYck6GBGkaAd0rhE665kkwspEvYoeVBQI0oAqVhsiNjIMtzsbufwdeWEKRIBdAAwTP2lB3GAo6sowI73QRgFLQ3p0AYIMFgUwoYGkjQV1EGxhzTy/onHOtRSorAdZvObFzLIzXGBbgx6kGbOBISbYQg8XQoOW3yeNyDrugoZN4L1OgTw8CA8LYIHlATG/5CKWmT9xob8/A0ZQJkAE/Gz/gqT+gZAH1Vp2uUIUOFVk2K05hCGQBUZMe4GCX3OceQzCZZGgTUGB9eAlIZm1zRjoKP+61Tv0a1/IRv8BKZwC8cG9FcBi5o4Rp6Bv/4jhYD64mskA9HhiaADsPnfksZwItIJgMmMmy/BucDUKBT8KtEb4sOcz48uSKqw7EiXxwxQNN5MjCdCR/g/2EDe3KH/kHXbmNCz9AJUc45vNHP/XHPbD8aK9s0W9LQQA0POpR7GKHZQoRu/TSh1mqthVIAmLrN8hOwIjwHrABHkS0jiRZYhwRiRD8IECPNIAIAsmgHY6xt4AFinu5kPiF93iPlS8FRioCZDCjos0gGeqGRNV9hV2CDZ8NIU8zCnjmoAdiMU8gSbYQ/5aCTdeww7IAGukUZIIKSR+NeoEa/gDIK3hgCRPCgclCjLSDMOXNiPuxrspTmfwZASBnIlXgju+yySwKdDJFoJVBjvJaqGKpOHou5Vq8oDZqI8ogC8aiF/9/xjnckeQK6ZktqC2rwFY+c3sA/xjouumOUoAY/4CvggsMjkyHAGSix5CFaQqcC2BKHRkQQ+AvZcEQ3YAXdZPyMv715V0TTUtYWW2yRdAxZs4zAMQCGJE4F3QQ8kGVRHXXaqAwYkStRyOkGNalz5U+hwAAUGBqooYyt6wldzaVEUQAUjJQ1XcaxDaihqBl7a6yUd2RGEWDxyGJOM+0BEICMzChS/LwuiobSm+5ECfOaKDhARfSF0mWMHa3XU6TGgz4iJoCgqBK6WU4xJkoVnzD6kShyIEIZSpQ3CkAGnShfIAld1A3EMAjoB/DwIKwHdwM1oey1oX7zyIgAHcBXDmp4v4xNbJRkVCh8AER5YEiIVtIf1z0OyTgANZYIgSwGxYu2gBYRrHpiNC0HuAdQY2jUry/G7zy+4bHOltQW1AiZmwvz4t5xSqMENcapfrxv7OYcH0rkG/i33ITHw0PGQ/RryEUcOUbAPh6XHOkT+gboF91UD8CCX9VvM6m2oz06CJAWoQHYRQrJKrkHmPBn/WmsdHP5UygwhhQYGqghiAxFbqDHcLwDdYki4IFTHm0jNRrklVNOlEokykfkwO73fNc/+lniWHnllavll19+fn7zm9+cNmHZbzPdSb8tvVFs9pEAEYw8JUgBOo82FCcjz6uzHg+sACWAjL03yglv56AmHws6oQnPtZ4AJdEhgMIR+Ig1Y6ADsApFXb/XnDEeFHxsXgMYgQpLUZbzgC/ta8d8U+o2MMqWhCxxGbf+KRM0cQ14Ea7nWQNylhTIgwgcEBbLA/V++V/USvTHfcCRLNwPGM221BbU4HXjtJQ3bmmUoAbvkA1LPvgW/0ZEBu+JrohuDprUD8jga/wasoKngXpgh6MkAS4AOcAkCixSE3valAem8Hg3Hh60n+W+QoFRUGBooIbBkBmd8BpG0eHprpOCoGAoAwbO/20iNfoL7DHqlEMkNBJ9YfhyICiyYxf5uuuuW2222Wbp8TgvWZJFIyjAmUj6C5gx1kCL/R/AR+z7ABzQxph4icowDLxxUQjLK9bo6xuF87Go332UfT0BQrxX0aE8R0jecg2w0Snpu4iHaJE+Ss4xJKI9eaTGedEDIfe8Hb/tfxKlwuMAlI3SzgM1PF3LYsCPfQyW1PAJGqizKQFWwKHNy/Y7yJa5Ys9D033jeH5QUMOQjlsaJajBpyJ+9syJbuLD4JEANZZ6nePwiNgp1y0D3JwKiSyK9Nkw7OvJoqmR3/a2t6Vlzlh+0gagz/FQts7z8+bNS7JAJkaRtC9KVR+j/9Ei5FXbygJX+MXTi347J5ptDOS7V+JkiD6hJcBHL3Bm0E4d6qOP0TPorbx5QFdtkc1+2urVl3J9NBQYGqhhzCh1ew9yRhxNt6evVozsccqIQhlbW1DDA2I4CVGeCFNsPo7zhIaBZDytn1tLj4y+gONMherRQhQJuLD/w5MR8SiqiIPxyBQFD1AKRUSJGr+NhxGpUQaIsVdIlAONgAmATsjbOWDQeBkC3qV68ux+/QGaAKimpB9yPaF3Dmpc19wQu2EAACAASURBVK9Obdn4rC3LkfjAOPWFkqMQAVLAjLIFUvQdzbolinP11VevXv3qV1eLLrpoymuuuWZatlL3bEqDgBrzN2mgBh/iFTyWP7VirgPU0Dd4jCMkcoPvumX8Jloq4TkRVM4RJ8T9kcmJpeKctwC4TvyujCVhAGxUkUNjBKjs69Evy1+ySK+osLGgFzkF1ER63/CGN1SLL754+s2BImd0SKdl3pAfddBRloe1g5b0qTZEpCznqUM5kS2R26A3h5LzwZERkbU83K2taLMcZ4YCQwM1jI5NmBgDk8yFhMGFcUVTMDHhHwTU8OiFmXlm6sqzPRcESlsSOooKeSLIHot6JsS5QppOOhs7wy6sbYlF320q9I4VERuAplsCBigwoXeJhyrig2+MM+qlbGLcFEjsB+hUN3qJpInu+N02MS4iSfbR9Oo/75DCNY5uiaenPoalF6jhDFjatAcnMgOEJwCl2ZQKqPlUkoOpzFkOatQD9Ij8xZJQ0xGwjuVXPEeHiLqQ0ZAlR04JHu5XhzDm+HOUoEaU1Wv+9Y2elG2Wtl+ITNKNIiXkCdgASmRAzrIy+aUvw1nqRH80sbEaAPJUGzqGM2VsHFV1SBwTsqeM6Lz+cUzpKREvYCd0WKe2yrmZpcDQQA2Dh6kg7Ni74NxsTYSJF8kIW28WUSFcg4AaikodPI3Y4BdHwmJJKUCN+gkwb4Eyq2cGPqIgM0FbdKBA9Sv66Bih4G59so8FMOAVSsbqXH2MUW+0YbxBn3r96kATG3t7gZL6vf4HrGycxLvq6pYoOpFIfe6WKEX1Cav3qtPYgAE0jWz8aDST89xtfE3XCqiZOqgBckUTprKnhqxYZqFX6J5cvvCvJdIAQE1zGecttVp6ImOjSPrqjbSrrbZateKKK1bLLLNMtdRSS1WrrLJKAjkRxSNT+uJlcECPpXi/AQ/ARjTJMpFxddIVQI2Id2wjEPkBZAAVjlWAGveiFzAYkXKPyHPmLA17NF50uoCaUXDDcOocGqjRHeuMGEs4H/NAwBiEEXBt3DMPm2JmjCwLAGg21REmURqJkWq7/EQg0YChqmcABiCYhESxUDpBy2GNWX1NyqxXG5QYYCP3SkCTaJBxdEtR52wDJd3G1M+1AmqmDmosaQIR9OZUEt7D03UDTxc53wtsR9t4Xvlhy2zU711NorGAgiXtbbbZprLvxxNZgIVIEf2oHwAaoGFpDqChn21yFtEBckTCLSd1kjt08KCCCLO9gKKhgBBnyL46URtRZ3RBf0vr2tKGIwdX9HXnnXdO2xFGtcco6FKOg1NgqKAG4wAGvFRRCeE8eyMgaRvfxj2LpgBjwq2WQiw98Z7zCMAgoGbw6Sl3FgrMHgoUUDN1UEOHAhC9gPPs4YruPRW5BSYAGBkwEYkBcgAK++osFwFjtgC4biO9p0Dtv3NOFMXeIfZG2SYA5rxlcnaIrud0cypFnwElUXP63T4mexoBH30QOVOvvor2OF8iNd3ndSavDhXUxECAAPtqoGaARmTDklQ83TGuR320Mc57UIRp65v4jK+AmpjlciwUWJACg4IaxoIxH6dMh9nYbj8cT75XYmQ5Q4xmSf1TwDIZ51H0xEMEQIvs4Qz0FPm3HEvv4i/7gmwqtrcGmBH5dgRobATGQ92SebXcbC8d4Ki8FQT6PrYBADnqtPVAX7w8lQ1jF0RtCqjpRuGZvzYSUBPDwoiWXSgFocNxz9azrR03IX3jKqAmZrccCwUWpEBbUGOpxTtq7GtgMMYpM2o2wIvYFlCz4DwP8z+gwtKOJSggJjKQYt+h5aVInExvRLap2PzY42bZGRixBNXPPFk+tlHaJ1bUH09PeQWD3xIdzw4AUKJIMhBlY7JlMZuUS6QmZmX8jiMFNeM33Kn3qICaqdOw1DA3KdAW1NirwWtmNLwEcRyzPXXG1SuVSE0vCnW+Tp962tFTSfa32Bgsx8sDRc8j4RfLRl5WKYJmXw0gLPLvXlGbXklUxqdpvNz0D/7gDyqvT1h11VWrtdZaKy0zuR/QApYsOYnW5RnI9RSVLRYljScFCqhpOS8F1LQkWCk+MRRoC2oYD8sBorn2Noxb9oSMaFI/+1sKqBmMzelTgAZ4tFVBJEYGVERv7J+JhFdESGwoFi2x70Y+5ZRT0j39gE9gxSPaHne3b8YGY49p+6ioR8N7Jf0RwQPGSxpPChRQ03JeCqhpSbBSfGIo0BbUzCXCFFAz2GwCtpaVRGREbCJaZznIi+7qWwHoX+fqOfbH9OqFJ6NEdzwKDiS5D3D1ZFQ/7+Kxidj+m37f89OrP+X68ClQQE1LmuagZlIexW5JolJ8Qikw6aDGPpCyUXhCmb8Me2woMBCoYdgh3EnMPAShUu87sEt+EmlQxjyZvN9r3m3c9DiujZ+eWvEEi82bve6bC9c9JmyTK29/LoynjKHI+HTzAFwhcjfV1BrUCN8J3dkoNYnZY4NCpBS2R1EnkQZlzJPJ+73m3Sscdtttt/SuJ/sh9t9///T+j173zYXrNpB6b4r3XM2F8ZQxFBmfbh7w+RlLgVNNrUGNHeZeiOQ7HZOYfVF5o402qtZZZ51qv/32m0gaTOK8lzH3lvd99tmnWmGFFdKHFH3R3BMm8U2fuU6/rbbaKukEH5Gc62Mt4+stC4VG7WnkJYfeWzTV1BrUCEl5WsFGqUnN1s69LMo7FCaVBmXck8v/TXPvK9Eet/Vqe+8Nee9735uWY5rKz6Xzntax0dWG4bk0rjKWIufTxQOeNuz0iYu2IKc1qGnbwFwrb80vvv1UNgrPtdkt45kKBWKjsA8meiGaR2+9WXy2Jmv8Xs/vKZlea/3ATNkoPFtnuvR7LlGggJqWs5k//SRiVVKhQKHAbygQoMYTQLMV1IhEc1Z8UNLmX/tkgBWv6u+WyiPd3ahTrhUKTB8FCqhpSesCaloSrBSfGArMZlBjr6A3yHqTrdfoe0GbPULxxWgfTuyWCqjpRp1yrVBg+ihQQE1LWhdQ05JgpfjEUGC2gRrfAfLStTvuuCN9jdnbZb1l1ttmbfT02oazzz67OuGEE6oHH3yw6zwWUNOVPOViocC0UaCAmpakLqCmJcFK8YmhwDiDGnJrE6JNj5bGvvrVr6b3TQEyRxxxRHXooYemrz9714zvC3l1w9NPP50+uAnYFFAzMWxcBjrLKVBATcsJLKCmJcFK8YmhwLiBGht8fesnwIknlHxp2asYDj744OrUU0+tjjrqqPTFZq/k9zjpL3/5y/TyPJMmkuMr4gXUTAwLl4HOAQoUUNNyEkcNatTv0bZOj9H54J8v1faT4psqFHNJhQLTQYFxADWAjDd92+jr5ZhehnfuueemDxfusMMOaXnp6KOPTue97Avg8eVmcldP0wVqyCq5BsCanrLyUjL0resF5371q1/Vu974v3aMy4bofpKnv5RH15IKBWYDBQqoaTlLUwE1FJOnKH72s58l5dQJoFAi3szqA28UcmSfZrj66qs7vpyIIoxn/EMpqtt7Q4TR41zLoZbifVAAbW0y7fXYL77x4T4Gd66mmQI1aIuu5MqTV2TlzDPPTO/M2WSTTdJbjk888cTq4osvrnyQkJGufyix05xMF6gBMB555JEUFWoCGz47ccUVV6TXSThG9mXrXMbxIx0C1D3++OMpA254TxKNQqN4cyu+NW9R1tEb4wEsdPVIvkf0fQKjpEKB2UCBAmpazlJbUGMdn9KgKKzVn3LKKdWxxx6blO69996bFPGzzz47vxcUKeXrUdL3ve9987OnMfbdd99KCL2eKCaARxuUIsUmjP7Zz342hdanCmrcT8mpP8/6TYFSkDLaSLF3QVmGxiOy6tBP/XJPv0kb6lAX4KaOPEVbuVKO37zaelv+F/FSH8UPkPRDH2XyHH2Ib4FpKzdIzqMJuklApqdrvJRurqbpAjX4zDziK04CoAL8n3XWWdVhhx1WrbfeetWWW26Z3pNz2WWXJaNf54N+5mC6QI1XQ1x55ZXphZ54vFPyzh8vM/TST0tokS+88MIUkQoeJg82P3/4wx+ufOlaBvB8kwqwoT9ErgAdiTxee+218+tTr6e/ACXlbYD+5Cc/mb5M3alfwziXy1X8JksiaBGFct7YyG6MVdvO4QPHeoq6Oh3zsvhJHaFnQm/lejkvX/+Nt+gR9+VZfWiY99e4AHDl6Aw8pn3lzEVett6O//O26K+gh/v8dt1vugcQjf5oSxt5W53qnwvnCqhpOYuYIl6+1897ahhYmw8PP/zwpGiXWGKJ6jWveU213HLLJQ8ScAFigpkJMuVsrf+YY46Znz2N4cmM66+//nk9JhgHHnhgUjyUAGFkQM8555z0jo2o+3k39nmCwqDkjjzyyLSp0qOuPlx4ySWXJEVA8d1+++1JQAmVTZWUr/IAHG8ylgQ+//nP9/VCNnQGDHxTBx0YK4qfMnYtEs/z+OOPr3bdddfnZd45oY4EEPGIL7rootQ33+9iFJoMSX4fhcOAap+y8L9+oL1X43vkNwdcDLz3nNiUKlGaN998c2o36p1rx1GBGvyL1niLzIke+Gjm5Zdfngy9T5cAMfgEiLEJmGFH86mkUYIa42HggN677747yekFF1xQXXfddckguSZH8gQW/rdk9vOf/zxl9GZM6QxJnQzdzjvvXPlMhe9vodE222yTNkL7ls9XvvKV9FRXgBr64q677kqRYdFhWXnlfIwUCAKMgKJRJHNLlsiUPpExuoJM6heZkciWN7jTaRwEukEGaK+55pok13n/8AojHzKr7sjoR6eFXjTPZJXOpWci08NRJq+7/hs/elLOPq2419EyJ/0UesFcsweczT333DPxqyfvzJnomfP5nNfbUY/66ES6le2gy8iEa8DnY489lurgMJ9++umpHF0N5GpDH8iGtuZqmghQgzExSz8M2muiKY42oIbCwYiUsM2IQAnPSNSGwcNoBDP6RhD33nvv9NFMCoZSkSkZr58npHlyH6Fwj7ruv//+FOXZbrvtqs033zx5YFF3fl+b38ZMyRiDjZMMCHDy8MMPJwXs5WQhXIw7T1DflSdcok7C5d4BApgRqm5JewSVUnXPVVddlWhAAWiTEgzht2+CZ/7a1762ev3rX79AtocCuIvEc9JvIFPfGBNGkNLuliiKM844I417p512SuDpgx/8YOoHkMSAGDclG0nfKRnjRn/Gg+JkeOdqGjaowQfmmQwxSObMPPju2rrrrlttsMEGlfkAqB944IFkDIMvhkHjUYEa40IrfEUPMDD33Xdf0hOAiKgT/iHXMR7RFmAFgJ43b1612WabJfAhghs8Fkbet+nolOBHMoLv6I86qFGGztFWZE+CqROQsnznf7plFIlskBOO0i677JJkzDeA6AjLiCJHEhBCtwFc9Cn6yHTpSSedlPRM3j8AiLOjvHrz7Ik38moeJADI/6FnjN0nLzhKUSavu/5bXwEiUfjQ146i53kEl/MHYKy11loV53b55ZevfDPM3JgXdI45q7fhf/xCf9G3ob84ZeiHPl5FoC8ADsf2oYceSvNmPPqmDXyhDjSYq2nOgxpCY4KtC0Po3Zimn0nG5G1AjTr1AXNTXsAH5YSpLEVQnK5H4oWIMOyxxx4JzWPUyJRM7jG5j4eDYSk7As5zY/QZW94DAcjrj3YGORo7ZSHqRBkDHs5pQ595VsbkK+b6qV2eAVDDEHmR2fbbb98T1KAJ8OeLz8sss0z1qle9qlp44YWrlVZaqQJURH6UkYAmy3L6QCnlGQjSx0iUNkUJdAE0t912W4o2oVO3FEBNZCoUKWPCQ6T4VlxxxbR/KXjLEb95agavmI8CarpRuPM1tGaQGTkAZtlll6023HDDJD8iEIBB8OCweDzvyahADSMKWONb3rS9b/ovA2+ukXmeuCUDidESeRLFwP/AHTDnXJTBd4zW+uuvnwxa8CNnimffCdSgsSgvB4gOYfyB9FtuuSU5FAAD/cKIjiqhczgx559/fvpgMvlhjEM2jf/b3/520gf0gg+lysCdp9mAwjyJFtNJgASa5RnNInriHks12nnDG95Qve51r0sO0qKLLpoAHUeoF7ABJNDtpS99afWKV7wi6atFFlkkReRFVdgfc2ucfgOI5pDDRp/SS+htjmLO8rHEbw4d+nAY1Uen0Pn4BE+hg2icsZEN0XWOsw9Qsx3kyDImIAVczdU050ENJoGa3/zmN1f7779/Mn6MGZCBMdqmQUANhE0JCy1bDmHkeB0nn3xy8hCiD4SWERRijfXw/Og8ZM7gY+if/vSnSfkBSwyv8DVQgaG1gZkJwSDjjD7FER0pX0qYcgQMhIZ5eTwFxt2SE1DB22TQtQ8IUC4UMMVjXwBh65b0l3cusuEdIpSuDyVaygKmQkmoAw3QyDUCm2cKxTxH4vUKFVOWvDjKGsgJgBTl6ke0VRcQA6TZtCnUbDyMy9prr72AEVHGPOkT2qCX+aK4SqSmTt3f/g/QA6IiFQy7iMTGG2+cjL9wPpqab7wd+wOGwdu/7cGCv0YBavQXEDcWfEuORDlFDHnQ5AXPkB//Gy9+JUvkXCYTu+++e+Jh/7vGSCorkmtpg7FHQzrBb44I+bWEpe6I+IaTgpcZfjpI+0AMnifXohCjAjXqpRuNg+zSFaLB5JYuzEENnbnaaqslmaMLjcO4OIhomieRO4abQxV0i6OIBWfQXIj60AEi2//v//2/6oUvfOH8vNBCCyWAp64cBOXt+A2UmENbBOgpztsaa6yR9BYHDzDSFv2jLmOyNGWsAIrrdIN5Mv+WqDqBG32mX+lgc65NS2QiQnVQY0yxHAb0oBV9qn46WFRorqaJADWEA4J+2cteltDzqquumhgOcwA4DA6mk3ulQUANZYMJrfVTHOrgSRBix0hQNUalVDB+PTsfEQlgQn1bb711UkQUsPV2gi8ixfMBLiimfsYVfeh0JDAUohA4hROAiiK+6aabUmRGvwA213h/DJNz2hcVAVL0meeUA41O7TnHwKGPMQIi7lEXYY19MrxaSprQUrz17DwlAAShLcEGZOyloQwZB2WsNwNk6NdJmVjCcp/omSNlKVJDITNKlkKEet1rbkWsKFAATPuMk8gZz6yAmt/OOL7kJYskUP7mYvXVV08gESDEb+Yf7QB1HnYsx/y2ltH9GhWowR+MC9AhM9AMswgEfnKOM4K3RV7suSNLztMBwBDaWJrxv/OAAYBCVnn0ysQ11xlT0Q5yDMCQU8k9IkYMnTlgJN2H59GcwdROHiEeJsXpE+PTR30AQsgVmc1BjXkHHkQb9I/eI7+cCjLmWp7oQEAPbdWdZzoEqMN/5FY76GlJObLN0t5j5Dwdja6dkmV5OpBOEWkxBpEQjo7fwIvx0VX0A50JaNJhnnI97bTT0njpBsuGdD792QlEud99HFf8oB46hgyZ2zxSw45YFTjooIOSXsRXHEtjpycLqOk0mz3OYQKCk4f9ZuK35RiT//KXv7x6wQtekPKLXvSiBHIWW2yxZJBMPKPG8FFk3UDAIKCGV0nRMG6MolAggeGB8TojUdpQe3x7huGMzAMgONC2MWFiRljUAFggBGgOPDiiNcOK+buNJ9rudiRM+qUt3oI+a5PyoSABlVzwtU8puQcY0Sd9UI97Xe+VlAWGAA5RFZkC0IdQyBSKOSOo4YXlR+d5cOhKSVNeBN2Slrz00kunCB5jQgHqayejiZbqcT+gyCCJulFU6uU1O+qzcgAd2gCWoYQoNsqXsZ6riRGM/RfmBSgFSDslMoF3lLfvwdIi0IlOImLoaT7MNbrORBoFqDEOfMHokiUZj3B6GHTGOc6TIXRCB947Ay4aQCfQWY6MFT0QZdVPvnj+DKjlCJFi1/GxqCFDGHpHX5RFd3wt+hq0V0aUEqDRp1Ek84sW5MX8m3t8pL85qKE/jCvoZnM4wBWRu7pOoQ+NN2iZH9VPf0qiqmhONvGi6IYMZHJ60V6ZJh0KUIg8h/OChnQucEIXOQ+80FVsh6UnwIweAKDYAPNPr5tPOpND19SecZkXfdY38yep2zwam9/sjbZDH1qmoqPNJ70IcM3VNLJIDQKaXGuyM5kBCPs4XvKSl8wHNQFuHF/84henNVSbt3jRPIduSrQNqMGAmJSniR4QNg+MIsL8Qu0UCG+MsKobk4oiiEpA7wCDTEEx8IReCiEnAAwtZg1BdZ0hx9Q8uCYB6Zep3Q+YUIjAmPm0dEYJ864pA6CAEZAAA8qGYPMEeR4yxaWvFHSvpE3KxD3opG00pKjQSTJP1t71gSLSj8j+pzgIt3L6Zi6AEaCRQmF0eTcMBZBGMXailfFQJDxs47cUglfQQD08WQpGv4zN2AN44QHgRwRN2wXU/Gbm8TletnfEcgADhXbmgaHoBC578cywr48K1NT7SW7RgmOFXzolURvLSmSK8aIbgByG0LWQCfeiHXkUWeQMiMDQHXjXhlz/M35RFt1dIzvB13ibnIuG0OPkeBSJvGmfoTUm4IO85qBGGXqODqFLZc4JIGg/S5wzJvQjx37H+U5HQAJglNCfHgHsOMCiOuQacOqVQjcA8e5BQ4BBpseBxBiTuvRL/XQPnUBv4HfOkPnvZnuiL+iAXnRj6FY2hNNH9+gTeokgmX99Mo/0tYxnnJuraWSgxmSZKIw6kxlTMSQ2ceVgxvrp4osvnnaih7JgPAlYN4VKefAghEADJTcxB8NGYUPmwrqQP+XBqFIylJLzPBRGm0CKwjCaohSMOsUqB0gUBagnDBtRprimLoLb5ClHuX6PaKIuy3Uxn8CW3+hrj0BuyHnh1pWtVdvcK9uMaJM077EpaYdCM36Zl4M2smUK5yiDCB/zItHL2rT5i2wfFW8WqIkEOIqWCRNTIOaCkAOavRKlQZHI2hDK1Sf0EGLmDes7peSYgyM8w1NjjMry028oDZwy5AApwNzNO+01N6O6Pl2gxtiBEEYpd0zyceFTQB3voxfdAGRbCmVM66BGBMCGX7wJoEQmfxw9+jmSujhzeDlkOmTc8gu9xeiPIpGTAGmMP9mR6qAGGIg9JHQmMEyW9M3/MpmkgzggZDPOdzrSo7GvCKig0y0b0VGbbrppiuDblA4k5LTtRAOyz1kL3RA6CC3pGLojxoXvAVOARzn6jF6zzMrp6dWW9oEZ86ivoVvpWfrWPAUw0i+R7ZhX/dEGepRITaeZ7HEOs5qgmc5QO0Pm6Rmgxq52zGrJgGHDTEKCwIS+5sao0xCV6RfU8ATUHcYPc3XKhFHEBuPzVG2M5f2L7EQGGig2Xlk9eUwao/J2o3wcCQxwM4zUaU6BJ6BA5El0SHIOoF155ZUXADWUBeHjXTUl88UrBBrlfC08zvHQACNzATwBL8KsMWZHZXhz1swjEXIGwAZUyt7aMqOqXtfU15R4e+o0D3k7+MeyIMAXiqtTHZRtATW/pQzljnaWY8c1TTeoEUFpAjV4jyEX5fWgAB6MSI0obq638CFQQ8cBSu6JvP/++yea56Cmk1yTBZkhZIRtIB5F0jbdB/Tn8lMHNYAHxy30p37J8b+jTb8AIpCmzvxa/TdnCA9KQCInCFAIkOBVASK4QEGAhKbxi5bQf3XdAEAAk3RHjE3fgHkRlNBnjiJEdHU3HRTtmwurD/Rp9Jdefctb3pIAT/S307zS0QArR3CuppFFasaFYCaYF+8pCo/dUaKUKaaG1BngNgnT9Qtq2tQbZQkYBURh5UzPY7LpjRGvJwbddffl9/hNuVmaGlVCj4iiMAISAbbOr08UEYATUTuC3y165F4A031NmVBHpIYXZFNkbCCM8Ud0zJJTJIpS5EykDBCLLOwsEtZNoVCqPCTGJdpwBLp4zK7nhiXajCOAC4iZj7maeNPC2oC8ueu2p6aAmt9yAR2EpxnBJn3EcNIJHDEgA+/hY0fRhDzhY4/CkzXGPJcjDp79FWHQ8/s6/baxmBGst9Gp7DDPMb6iGNoedWIj6Am6NXSVo//7idTQ2Rw1eriTbhDRD92gLU6myFg+L/7XVpTrNmbl6Cy0if6qy7t1OGcBoDrVAfTRdaJKczXNeVBDwBkjxsyGLiHOJm+on0lW3yhBDYYkYDwNYCSyZRSKLZZ48r7yungpUTY/AhfCsaNMFCTBDVBAMAmP5Z48BWBxbVgJkAKS8jHHb0uJ+VwzGPqEllHGMTzFXgqFl1VvS13G0+tetKH8AKu5mgqo+VQCdG3nF++Qa1HabnxUl3My34mf1AEUkMu6gQO+nQ9vvldf8Tz9EftPepUf1nX9M4ZR665h9Rd9AIpcr9AN9FO3OR2kffqG41efW/zRSxfRQ+aUrM7VNOdBjYlj2ORhMNeoQc1cZbQyrrlPgQJqBgM1c58zyggLBaaPAhMBaoZJzgJqhknNUtdcokABNQXUzCV+LmOZnRQooKblvBVQ05JgpfjEUKCAmgJqJobZy0DHlgIF1LScmgJqWhKsFJ8YChRQU0DNxDB7GejYUqCAmpZTU0BNS4KV4hNDgUFAjUdeydQ4ZhsqPZXi6TpPjHRLHi/2JJwnv0oqFCgUmDkKFFDTkvYF1LQkWCk+MRRoC2q8cM47lupPo+VPkMzkbwDFS9q8QK2Amolh4zLQWU6BAmpaTmABNS0JVopPDAXagBqPFnvPhpfBeencOGYvavSuHe9b6vWelhKpmRg2LwMdcwoUUNNyggqoaUmwUnxiKNAG1HgPifdqWN7x4rlxzD5J4CWd3mPkHUPdUgE13ahTrhUKTB8FCqgZgNbeCusjb51ehDdAdeWWQoE5QQGgxjdlvF3Vm0591qPp7dHeGQXYeGmZF5SNa9Y/n+7gzHRL3tzrDdWj+kZSt7bLtUKBQoHfUqA1qPESO4qK8E5its7uY5S+GeS7IJNIgzLmyeT9XvPucxm77bZb+jK8V8ZbWrrxxhsnQkY4Ob4Bdvnll0/EeHvxQrledERbHvDJm2EEClqDGq/D92E+X5aexOxJiD32lEoqmgAAIABJREFU2CN9SMzH4iaRBjM5Zt+/8rHPXn1Qpt+ynepyf+RO14d1bqr9HFY/hlGPDbXrrrtu+gq6b0Btsskm1YknnthzrobR9kzX4eOHO+64Yxr7TPeltN/dNvWrF0I2Cz2703NY9PEpo/xbfb+NvbT71RrUCMd6WsEXRSc1n3DCCdURRxxR3XzzzRNLg5maex+U9O2t+IhmUz9uvfXW9OE/XzRuKtPtvA//+ejbqOf4qquuqi666KIU0ejWn9lwzYcSGXYf2/N485577pk+Jjsb+j7VPvqA6pFHHpnmcqp1lftHZ1vuvPPO9OFfHw/tRufbb789fS/QByr97la2XBvOfPk2Y78fWu0Gc1qDmm6VTcI1ewGEmCdpT429D08++WR1zTXXpHzllVdWV199ddrkiQmFDR999NH5ew98NBLoUN4X0X3p18ckPfFi+a7XR+rQWHmbM90jA9M+4AYEABqu+d951/1vadQ5m0+16au1PgLaK2nLR0+NMT4SBwzdcMMN6QOo6hdKNR7tG79rwL2+WobMP+hZb89+DDSxFMMb+fKXv5zo4h6bUS+77LLKxzebknH5eGHQH+19ed4j0ejro6XmSNJ/e0D0S/Y7rtmY60vhwwjxdupr7KmhnHrtqel0/2w+V/bUDDZ7Dz30UJKL4GnyhX9+8YtfJNm1STtP+Dt0QsgquSUfdb3ig5gAB1m1z0t5suRpNrIb+6TIv3cS2dcVsuLDkHhYFMLvbkm7vpKt7yGjjoATuY9+NtWh/aeeeiq1p8/G53+6Eh3ypK5c54Xuo/9CJ0Z58m+8Qa84hq6Mco7GjQZRJj9qD630k543Lg4MPRz6H/3pSPpWu5H0N+oKOtBDXpFA/40iFVDTkqomd5Rf6W7ZnWkpjpkx7VlnnZUUwmabbZb2FFFEGBTIY6gJi68GUyIUh/KycK+nSDzhcsopp6Qv2XbrOEPM+KIzEEBZUBoEiOd06aWXJgVG4CkeZWQKzL3HHntsMvjveMc7eralH4TO0skdd9wxX4FdcsklKeLgy7va8fixMR111FHVNttsk5am7rnnnqQM3vOe96RHfkNo62PDM4Td0uUBBxyQli/RxJd21etxZvRtSpQt8ON+EQHtbb/99tUxxxyTlC4jYNwSBQ+gmQv3UTQUkT4Ae5R00+bdpvb7Pd/t6SftA1OU/DPPPFM9/fTT6Yh/ZP+PY9ZX/Ys+66P/jcWYIpWnn4IS7Y4cAjJ9/PHHVzvvvHOSL5ERPMp4knWJoQQugBx6RyYzDC4HSmTVO40kBprBfOCBB5L+sddJPZY28KilQvJEXhny++67L+kadQI/ZMn5m266qTrssMOSHKWKG/5o10skjz766AWWWs8999zkrARQarg91U/37LXXXvOBkUinjfacszzRgeTY+5NEreldThFdyRGjqwJU0NtAI8cnwJYx0qfonid6GzB3Lc8cOHTQLvrTsfTrIYcckvbPcWj1Bf1PP/301A666oO5MUfa5IABkkCW/ptzemkUacZADYVAqWNeCn86MvRrYmLSByGofk8aqEEvAsKL8L4OhhmjP/fcc+m8pz4Y20ceeSQJiwgJ5qf4KRHCyQA7v99++yVPrBvt3ScStssuu6RN2e4jaOpy3rIQpcXAEFYbtykfG1MJkc2qBO2d73xnEqRubZlPBkv/KAhtG6+NrpQGUKMMAWWQKVpP+GgHLxFSSy6Ukv4EuKi36TwhBmYAKHUBIADhhz70oUS7+j3xfygIskLpWt6xnwuQ482Rnej3XXfdVZ100klJUQM3lC2FQtEIvftfZGcUqRuoARz1jXExf8btaOntggsuSP87N25Zf/G3fkbf0B9/G1OkAmqCEu2O5CciKoCNaCZ5BEgYPsBAAgyeeOKJBFLoA/m8885LoIHRBgI4QhJZ4EThL3N14YUXJnk2f+oFajhYZALoZ6QBKvrDHjCyTVaBBUuKnINuiVPhvgBW+QsjySw90S1xQDiCK664YnXwwQenF1Luuuuu1dvf/vbnvaGa3hAloe822GCD5CRyspTl9NBB9JWkXfXaKuEll/JBBx2U9KNx5Qlt8XrQNo50HXqhh/ruvvvu+c7qvvvum86j70c/+tHkbKGZuUJbeskcRl0cXDoPaOXIATmjSDMGaihABuIzn/lMGrjBjzpjcMiyyfD0Q+BJBDXoYtxADAVC0WBeXhOBN2+EBQhgaBluyonx5CnEHiTHvffeuyeooeS0AcDwmLQtM+7aUj/FoZxzwr8EfaeddkoRFJtVPXbfD6jRfwbKi9aADUqIUAI1MlAjATXapCj1AR3Qg1KmVAAJY66Hi4OnKATKTxsE2p4fddlQ60k6gLBbCo/U5kVLTwCLOaDY0R2d0YjCABy1Q9FQ1gChMQE1ImUzAWooW+OmCAEy/fa/fTf66P9xy/gMIJ83b16iqf7hywMPPDCBQ2OKVEBNUKL9kQwCBPiBzPHsyRjZMAcSnQ20MLD0Dj3OEXGOLNIVAWpEFcg0R8v8iaDge3NHbugFoIZMiMgCCNoUlXAN+GHgRUT7ATWMM8dERKjOw2QzBxqdqEPHcYroL+NVB+cD2KpHatzPwQTaACA6iJzTBUA2fRiJzsGXIszRL8AHTdAjT+6TQ9fGUSRcX9CcIynSu/vuuycAhUbmwVyh23bbbZfoia4yWtNtQCIa6a/xiKzp85wBNQgHmfIeKWiKnYc86swQUKaYlydg0gZJ7pu0SI0xUxSiIrxq0RqAFB0wO2VBcQAWIgmYlpATHkCGFwWhC/+eccYZ6Z5utOdpEUJKjkAAGrLIHgEVphXqJDSEh3Aw4hQUYVlrrbX6AjW8CdE7QhnKjTLEn/4PUEOhAg2AEgVqzJQIHiboO+ywQ6IBLwbQqic8r+9oxqOjbD0ZpK+EHp2aQA3aU1auAyeUEsUAbAEwogih0JV1juJ3TnQBiAA00WkmQY35xyfoihYSr5P8G8M4JvTEW/gQDSVzic/xXwE1U581DgnZYjg5uIAKGaFnRG7oAclcWCIBfugU18gjHhKNCBmIHpHZ0E10A12F78gS+SDHlhG1Q07UQ67IF9l23vJ1L1ADYIhIsF8iEfSbyAT+8Fv/7R8BMDol50VJLMnQC+6Je/U59heRX4kTpd/GvM8++yQgB0zpNx2hPjwq0aPqNF60Er2W6S0Rql5JXfSh/tD5dB3QRQdzjOh6zhk9ZlletAjQ0VfzpZ/aM1fmFF3NAQDHFs8JUIPYUKm1OwxAMcdk9SLwMK4DMxSoiQovv229JmsmQA3aaVue7oS5eTYEhyL3P8NPuQOJzlMSEaZ1jaIiqDwKCkO/3QfYRLmmcbifsdtiiy2SJ094ZV4PASEQ9tio1zziJ16Ned1///2rFVZYoSeoQU9RFZvdGFt1icRQSPpOwWoPjwI+AIk1a+0ZB0VEkfKEhHf9DyR1SnhcncATBUhBWCKjMI3TeJpADVpZ/wZOLPtRtELTm2++edqbI2rAEABUaExhAJT6o98UEkCvD+MAahgQUVqJ0qME0WUcE5oxSIwiGkr4Bs+j6yhAjfrx0UzIeac50A9Zv0aRgEUREUbaZnkyyIEhjyKfoiaS9gEVIIhekf0GKshlHdQwupxm99MLdBRARObJnqgCZ4usMPyWpciQCAYeBZy23nrrnqAGD7MH9A5ZJKPkU/1+O2d5nNzXkzHRBZwa0VWyLYsMimCqk9wDBuEIoJF+i+pYfvJ6kU033TTdU9/bR1exd8ZHj8loSwc3RZTzPgIdnBC6nc4DCOlEelm7lqbsKyTDQJN2zEXwr7mJ+bJvyW9zSA/NGVCDMDZoMUAmp8kI5IQd9m/hMgIgmmCS2iYC3gbUYFz3GGtTdl1SVo6U/x97OoK5o8x0HPUDGBU1EY4EKGRRARtdgQprrjlA1d+Y4xg3huax9wI12gNsCII2GWfKg6dAUVFOfps/QgRUEEB91CaBowi6LT8ROEADoFFXJEaMR0ERBahRlpIV3ibExk4BAjQyINENJJtf86bumFNelHMUd0Skog/50b3oZfzAgCOaC+WaizivjLrxNWXD8KKNcrzIAmpyqvb3e9SgJnjBMRIdSUZERvMUZfNzfnc736R3Qt/kdXUqq279wGOD6Mq8/qbf5CBkK8AKvvabrqZH9IM+EJkle1GOLAIjZL0TqCHbjC2nIPSG5Roy4V1rfot+2hMH6FhC91v9nAJ6vlekBo9wlu1t018gBUg//PDDE5BBO+3QfZ2S8/SAcrK6gCJ7Fuky5+iW0K10UcxJ6ANHNHRUX/AE2tGVlncBkTXXXDMdASVRaOUidZp/DikaAiGuy/gAfeLpLrSlc9gA4BFoUq8+h77M5wudOJJ03qyP1JgM4UChMoMXRpuJZGIIgs1NDFJbYXV/G1AjZEqAGEiZweSdYzb/+40hJOE8BhytJMiaoBB8oAEjRhg8FZjGP+ZLPwkrjyCyzWdbbbVVYv6gpf4TCE/oGB/FIgtdCoWif69EIIU0bS4Ng01YCBghAWAoOf3Qp/A8GAXeEUVHSTUJjrqALePKhTvO2X8VoEZfCatzMe44Go/lLh5mKJ762CgayhiYD77XpizkDXxQZt2ScRkv5YW2aCO6E/XEvYCayALFbW7Qxn34tkRqgkr9HUcNahghoN0xEpkXxQ6dEOcZCGAnN47kjOEz5zkP+41fAduQvTjaNyLqip8kZRkgkRIet4zvldcex8VSDGM0ioQvI0LiiZqQK8CcQSVX+qgv9q3F9TiyJ+RdxCXXK+RYdEREgAwYE51Bl2qHc21+0cHYlbEERkacB6Kc7wVq0ES75gwYo7fC6Ktb3+VuKco4oocITcxRXMvvj3OdjlEOXwEe7JzIju0B9LSoLgDIluAbdEITOijmHq1k9Ab2LJHjR7yHhubGQxycxpgHvy3Dq1ed7JWltLgeR3rLb/1p0s0xhkGP07JRGPGFaq0vGjSGcW6mEmYzSSYcA+aKolef2oIaxoo3wFOQCY7NsrL/oXpLG5J1R154gAMABnMRTuBGfymlmUjmi8AKIdYzsMLgU44SpcCLWnzxxatXvvKV1ate9aqUF1544bSXBHjrlbRF+VBYhIuhlikvisd1AJBCJEDmRQIahH17gZpe7eNTmZGRQtHVx84L4wn1AjXAGcUZoCbaZ5iMhSLolnhnFLjx8iJ5RwHk8vvUZx6in+4L/i6gJqdU79/mfJTLT4wgwEAHReLpM8QcoTzhfefyqCI9agnY0krOP37bN7H00kvPl72QwUUWWSQZas6WRG60abO7JbXQU5Zf8T7Hj1EEpEeR9JWhxc+iEsG3+sTxQx9JOWOP63HUR3qTXjVXeTJ/IQthcxhwRjUe6Q69Rk6UDflkvIEaUeBekWX7Xuwr4bioTx1kehAbVwc1+XjIOx4IXdjpaLmIzUEL9Iu3/QJdltYtETlnTgHVoCt9SY/H/DsqC5j4jc+MC104ciLM2ol5YN+V57Sje10PRTn32EIwq0GNicWsDDsj4fcgk51P7lR/a58x4slYc7XG2G9qC2pMLoHhYVvnRQdCSBHxgjBDKCrCrU+MNQHDoNZE3TfToKaJPuhhXgkQhSEZMyW47bbbpvXpAAgERPQk96ia6iUYlD5gh2aRCZeInzZkCkfZSISU4RedoJB4LIMk45F5wt2SPgjnaifvR36PMgCFtW99ItB5tl8jjEx+X/6bUgCKbMbjKVHMvMjjjjsujTc87/ye+m+hYgaz0/p+vewg/4s4eGKFsqTg9U3EQOJp87zLnprfUJbckH8GA60imRsGsg5qAFob5NE3eAcfeBLFPhD1RSID9Jp9aBxJhiYyngaiGF3JffQLL5vnDjDTh+ZLGc7fKEENXUw2LEfQfzE2UU1976UryBydQE/WQU3QIz9yGMkN/YBOTYnxtgkW3YNWTWW1q07L3tH/OAIegFc+P031OI8eIqz6FwAryus7hzB0YacjnqIr9BkIolciW+bKf0cEHB3cE9fyo3tkNkrfIlLDKaePYpx+WzbjhHejKzpw3AGsQXVz0KPpONJIDSJAZsJggfz7ndymDg/rPMITYEZTBnL6SfrfZvlJnZiHpw7IWI6hPHgKFBp0TIFIGITiYviE/GxUE5kYh0hNE23Msf4xXoy3hEaERAjVEagLYCeMHiCuqU7n1Ytu7ieckf1PYF1vSgQPwNJWAK2msk3njUdWV7dkrMYJhDbxtvNALa+XR1rPojy92hFtodAohPx++3nwcROgyvtOWQn58lpHkQqo+Y332w9t8QN5B/KBd3xKjhglhpRBzZPNpDxhey3oEhnwAVLt/8p5j24DXoT61YdvIosq4JdcVkU6bTqldwBRmd6xvInfRglqjJGxBoT1NXjbFgXOSz9gnaMsstOPXjHueKKomw4hT2wXUNXNSOu/doGQumwaC8BK93VrK59n5dCCvqu36396InRhpyM91I8uyNts81vdeAnYlWO+/DZ/eLjXWIEkgGZQ3dyrvyMFNYCCpRWCR3BHSexeA+10HYOLgAA1gBdi90qUR7+ghkBC8ZZmgBRhN+uWBJZCAmgoMMqEt0TJCRPaSEVpiegIFRLYcY3UoJd5lXNmRqdQnDlNncsVcH5tmL/1ZSptdRpTU/8Ajl5jopCAMUqpnnlkve43Hu0AevX7jTOnfVM/9aHfsk11dDtfQE3/oIb3LsIn8sYwiGySdUCEx8tI5ImeEMERlQiD4qkU71cCQHL+8RvYFT0QAaFTInOstBdgQVmgxvITIMUIWzrmdHEglB01qDHOWNoI3sbneLWfhK/Ja06Dpvva6IWQl6a64rx2m2TTONTTJvWjT9rUN+yyTWOl38xDr4ReU9HNveofGaghNMLdwkzCZKNCZb0G2Os6YYLGhc0oiV5o34T0C2qMGViy3gvUUDAUE/BCeVFivCx7R9DKOWuVkD1BEEK2pjzOy0+96FuuTw4FCqjpD9RQ6JZcRF7sF7OXxcZczo69DZaVeP15EnlRDiixLCPTHxxG9zDWsqgHh8nSNSBkScdSjmP8VoeIj0gMfQbUbLnllqkPQBNHNDLAJItElFQoMBsoMDJQw6ATNgLRa1/CTBNKKNhjr5RGr762ATWAnaUFjybL1rJt4BOxEU72v2z5wlIH5QMAiebYZ+FNlzyscV5+mum5K+2PDwUKqOkNagAPUViAA3DgzHgniheaWU4Qle20p4ZeAizoC1Fv2W9LFZaTJHVziOgPy/0cIlEW7z4R0YlzjpbB1ece+o9zBSR5Msb+lMgAFn1VQM34yFnpSXcKjAzUCEXxNhhlAtFPWKp7V0dzVUREJMRmVk8X2XfQLbUBNVEPwGJ9mMKxCQ/YE4WpJ1EdXpRlKZ6YyI7okWW8cVl+Eh4e5RJGnSbj8D8eEdETdu0nAbPKMhhtk7bi/rb3DlrefJJXvD2VVEBNb1CDxgAMUGPPl8iK5SQgwpIPUCP6EhuF8ZFlIDqgW6Zb8KhsvwJnyt49uteL3QAdS+HOyaI0oevwmzfM0jv6FGUcbTB2vp830E6Fd9rea1+YMfcrk23rL+VnLwVGBmoodBtgPYLssWVryOOY7KOxh8VTGf1sChsE1FhSEj6mSCgoiqaT50NQKRqek8xIUHoM3UyDGvNpExov0wY6a8X+p1TQRD9jA6pzFE4TkAWMlG26XucTRtdmQN4qgOjpMO1R4CKCjv0k7fGG1aG+fhUiY0LZm4NeCZ3MrQ25/dQPTKCjMUraspGxn7bQAC3xR1MyN+oM2hm7zLtHO/1FC20C3N3qamojzhdQ0xvUoLdHhYGEkBeyRPeIvOSgRlmyJrpLj3bLdExEbGI+HNUNQJFbvNAp4T26ybtG8GOe9EeUOR5myK8N8ze+o/viySvbAIy/KdmsagkNz3Ur13R/OT93KTAyUINkhEWEwn6VcdxXQ3CEf4VieUlNQp9PvzL97qmJ+ygl3hnwRHnk2Xo2I90ruUc4WZRnJhIDTTHaI8XgAqn2AHgkHaiw0VGmYJwzVsa6nihZCt2GRIqyHyMK4PE0jd9eARE1S3bu9/h2ryXD6AMjQkGriycMeEXSb/NgPmJ+/AZCeazatN8gT3gBIEAPfUAH5zzVxgABDb2SNtA1Nqnzso0z2lIfOmpDFlU0F/qLZ4GRTnSOdhkpS5nqFI0kizIeJpuAnr6HwQSSBk0F1PQHavB83RCbZ3ORgxrnyJklIRHcbtmc4tt6Anwta9s43ORE0NNeAmlfDXAV/J8fyWAA73obU/2fDHEaRKssv3tEHT/id/InoRdeDvmMTxnYm6Sf6ujXuZlqf8v9402BkYIaQ8eIFK8ngACIuicwU+RhXBlW4VWGjgLpJynXFtQIL1s3t4/Gu1ryTFF5N01dydX7QrkxTjyy6U7GzGAJi+srwycawQNkfCkk+5G8h4RysVfAG21zsKYOSsceADS3vAb4AECdlHw+RorWOzcoO/sB7BHAT4ANsOhpjW4JeBGdwIfmzjxoH7jiCaO9/hmb+TA/6jVnnv7QZ+1aHozkHmF7XreygBJP01jUAXz2A2qAK8uMwAxgg1cAR0BYnyh1BkkbMsDEAGnbGEQAu3nR7veEjSfpAhQChoC8aBJDZSz2aNjLwZD04sWgQf1YQE1vUFOnWf1/kQrzRFcOIwHy+IaOa3IggB3z7r1SeCDXT/Hbk1G9HqIYpL94TcTF+1w22mijarnllkvZe3PwN0dJ0ne6wr4ffSIjHr6wZ9P/dEkspw3Sj3LP3KHAyEENUgEQmJOyd2zyGKaLrASEIWaI8scb+2mfoWkLaggbr5piIHx5tu+I0exlSAAJxgtomO4EiFKyDCNwgH4AgRd/eeGUF8F5q67r9go573+AIZJ+u4fXCYRY82f4GW+AjUfZlIARAMP9lLQ6GHOgxp6tXqBG3wEHj87rqzcOeysmUKYecyoDauYj5kc4XnSDwWdoAtQoKzoCiDgX4EIUBdjoF9Qoi14Us7oAVv2yB0K9QKAxGnv0yXlPsThv8ycPPQePdRoCdMbrfhvOGU3ZUgV+ypegvNoAbQeVzwJqpg5q6EryEJG7+ny2/d9cRsSxScc4T/5EPYDs4LX8aD+Ovg07aZsuBmw4OyKiojCeBvPeE7SQyBxe1ifXyJzvNJEBfKuOfpyIYfe/1Dd+FJgWUGPYjLKlAgqZ8m/yGkZNIkIEZHjayZIYxd4k7J36QrjagppO9cymcxQeYwoEMMQSACCsTaEwsEADj4lHKGrjHRw8K4li5WF5UyYAAhAw2ACS/VbqBTzQtlOisDwJZr7UL0RNAfYLauyjwXPW4YEYj9SLeABJjHsnI84rZeBFYgDSHNRQ7paMADp5vfXWSyDOhkr8ZKy9IjWWkIwFnfQnnmKhtHnL6K0doNvY0QvtRV7WWWed9AbY1VdfPbUVdK7TDl8rz6Pl+Xr/iW+5RFZv7LVQvyiR1woMusxQQM3UQU19Difhf3JPxkViAXog3FIU2QzdrAyHRtQWkFeGQ0COOSKAOnmJ8pNAtzLGzhSYNlCD2RgKRoVHb/NikxHr3NXhnBV18EQRo2hPQds+KD+JoMYykzeN5qBG1IMht2wD4Igo8LLmzZuXPmYpUgO8WuZQxjo52vPKGG+RCectq/ES8USnZM8HY+sjapZSRDPcD2wIQwPLvRJvVVRI5MXcO1qC8ZZfe2byhFdds8QFDLmeLz+5zvDjZ6BARAdI5l0DSL0iNcoAcfYwWEoyFgAKLUTzAD19BTSAR/Lig3MAFhCJzvZexLdWAKlOyf0iYsAgkMXDzbP5sLRlnswrUGMeO4G8TvXXzxVQU0BNnSf6+V8EBrC3R4/z638yKhoT+8c4JoDOQgstVG233XZpbx2ZIAMrrbRSkiVyNC7bG/oZdykzGgpMG6jRfQaOAuXRU67dlhxGMVyGiCEFrGwuawto9KmAmt9EahhSe2jsT/EeC5EawIQh9RSHb4Eog+Y8KYY5XsEubOwTEPbduN95oIGh7pTQnNHliVkKAjhEWXhnQEWEqDvdG3Mm4gEsAGeAAgMuomLpB8jKExDl/R7OA1qAQQ5qlNUf4xT+1ofNN988KWLApheoQSNKW0QGEEAjoXZKHNhyFKmRKHngDZBBQ/01bsBDH/FyE6jh2VpOQGP31rN5YyiAtgJqcg74zW80tuxivwfgLQG0wKdoZB4hiw8/iriV1I4C5NpWAHt/OEmiL8AKvWEO0DzsBueGvsDTa621VvqiNSAu2gvkjGLfT7vRlNIzTYFpBTUGi0kZL3shGBaonFIfdYb4LX3YJMlIaW+QNKmgpr78ZB6tYQMLDLJQMcMoWebhednrQSFRWpZBIpsDhpsBiHPqapoTT14AUBTXZpttVr3pTW9KnhkFpx7LWE3JfKkXOLDsBYiIigC3FCD+0z8JCKBMhcF5fQCH++ughjcIGCnL6Ok7kI4OxtML1KAJQA88iaJYDlWn/gnDA1Dx9JOy6hTBQWu/Y+lWOVHDpj01+m5s6rfJ23KTt1fL5of8qY9sKMeIoLG5HSRNUqQGIC2gZhAuef49eJwzwInwsj8PAuB/8hgJz3MwAHz8e+CBB1bLL7982tysPJ1CD+D5kiabAtMOapCbkbH0A5FTrpTtdGQCwzAwHoMmQjNpy0+UCxDAQ0I7SigSWljbzg0roGDtO8BClI2jZQ/LVJ646CcBAPafeKrK0pPlHp4dI2zjeTfvzCZjS1QiR7Kvy4qqWMryP4+PAqU0RT4sCfHEGegAD3VQg38ZNBEOURf00Af9BBB6gZoYM3BvCY+iBtxkNLFXyLJXJAofgAHseKxR1tN7+pAr/7gnjq6JUAFd6AXIyJayRGlEvvTffKnfUt6ghqEXqAECZX02BoCQDhDlizGN09Eciz7SUeivbza8W5b0Bt4CaoLLBj+SGaAbXUVcRWpEP9E9eAGYIWecJs7GkksuWS2zzDLVEkssUS211FLVsssum6LF/eqTwXtb7pwNFJjG9EPTAAAgAElEQVQRUIMwlL8nPkRPhO+nIzMeBCSM1SATNImghucuqmDpo75uDZwwSs6L0MiWhgABc9wpAUGMhCXAfpIoC3Bi2cl9DKHf9qVEpKSpHgpTRCj4i7IUUXF0jlEHLhh2dakTiMh5hBGOPS/aURawoWjryX3C6MbY62kM0S0bHgH6WJoTKRF9ErGJJJpic6T9RFHO0aZ7yx7dQLo+MBL21BgvICQDOBEtdT/QajkOMBk0dQM15gFo5GHHEoIPLu65557pabl8XOP0W1Rgp512Shu6o182dwOAxhSpLD8FJdodRSAt73EuLIfaKGzzPQfUOTRHa0/uiWbaa+aL4r6ZJVomAikD6VPh3Xa9LqXHmQIzBmoQhQFg+BiH6cgMEYM0lTSJoAa9RF3sK6C88814oZQAHnulZMaSEW2KINicKtTctBekPj9Ahj0o9o8w9sCHaA/woJ3cY67fa77qPOb/OOcYyy34oxOPCGtTmsBAr6Q9S0rG2BSpijpcF2kKoBFHURPgO5I+6gPAFWUcOQT217jelIwHIBStMS9oJouY2LQtwsZDtvcG6O9WV1Mbcb4bqCHfok9AZD4GY6qPK78+079Frup99L+N5zmoLaAmuKDdEV+LwsY8B63RPc5xlERC8Sb+EakF1DlTkQuoaUf3uVx6RkHNbCTspIIaAJQBFSbOoxjx/plQQI6MLeDRZCAj3NzL6Ad/iNRQbAyJ3+rluUU7vSIiUc+gR21a9gGueiWgGVhj4HM69bpvlNeBNsAGvWKeGBJzh58tF+qzcU4ldQM1U6l3NtxbQM3oZwmvAvt1YIynLT1NlX9HP4LSwnRQoDWowVjWNnnhk5gZUGvqPF0RgkmkQRnzZPJ+r3kX8bHniZfNyFtmsgzZ6765cF3Uy/Kdsc+F8ZQxFBmfbh6wAjAMR7A1qLGxC1LO33cxSb/tlfASOa/tB24maexlrAu+56XQY0F62O/k6TRLAl6QuM0226SNn5NAJ3s/7AexgXgSxlvGuCDvF3pMnR4e4hE9nmpqDWqsbVp/55VMYvZki41s3tBqo9ok0qCMeTJ5v9e82/C57rrrVjYAH3roodXGG2+c3o3T6765cF2EyvuXjH0ujKeMocj4dPOAF4t6eGKqqTWo0aAlKGGiScw2Xtqw6gmVeGfIJNKhjHky+b/bvPOyPKJu87MNnz7P4MmybvfMlWvxJmiP48+VMZVxFBmfTh6AK6b6IA98MhComSqSms33I/ykvadmWPOFYdswbr9lo95e/YxygwrOVO/v1b+ZuN5mTL3mo2wU7u8zCeho83aeGQ9zYb+ijfSW+fMU90Q51/wWOVe+X572+L7Ntpyztkl/tWfTvDbtuSipPQVC5trf2d8dUX+/PBG1Kh85zo3qGO207WM//Smgph8qZWUol0kGNZQhxesJJLSQAs1nZOr40yOwNlfnj4QrqJ68XozunMeNKfdop1OlynrqQdlu5dyrfQrd0z69krqMUTY+STteCJY/yluvR1nX0Shy0EqdDEOeXIty0Y5yfncaT15eXVNVCsbkqa66EdVHc5LXD7QwatHPfBx+zwSoiXlCQ3xlPJ6q89u5oH29r8P+v9+nn9ATKPCOJt9Ek72I1JOFvm/kKTWvL/Dm60joHfd4LB4wMW7jtA9B+eAV9ef8F7+DDsp7NQNQ0i3hragzypEd47QEr03voxpWwmv6GjxtHMbdxGvd2s3vjfr6Ld+tnGtook/aaJvcZx7QUe6njqBBP2WjP2RU/fi/W6rPsZUH95kHSZuhl0NHxVGZOn90a6t+rd5W/fpU/i+gpiX1TOSkghpMTql6HJjyZQido3AtPYSQ5IKA+UMxeTrG+2w8EZMnHp9HMilyL7pTnvB4GZcXxgUICqVAMUSd2qRcbdSMcuoOJZkrSu/EsHQY31XK+xC/jUf9wJdPIRhrvAvGb0+9GUdTcp+X/cWj047GxBARZI+iR9Jfffeoteyxav32hB2QloOv6JdH5W3UV97SDsPmWq9kTGiBrjEn7tO+F/vpZ57QlbEFEqJ+S67xeYm8bPyeTlBDDo0DIAsaeqGiZSAvFvTbk0jea6Rfxj8VJRxjbDr2C2r0wfe9vNrfyxR333339JZr73cCNnzHyF49L7OUlMcLgMT++++flve84wkv4RMfUrUxmzyYJ/xgCSx4KvjQu4/wkza8vBKfNiX14C3lc5qRcRti7ZfSJhpPNeEzPOnDrvoK5GmXbHAgjL1b0tfgbfzgN7oYn/0ZxuF8JO35XyZr7nc0tqCJMasnZCXKOw946tMgUSpteOGst6GzIdrOkznM23INDejXXLfl99R/q5OMagNwrrcR5bVFF5Gf0KXer+VBmNBv9Lv+mpfgpzh6p1Xo/6iz0xHN6mNSzksUvUA12up076DnCqhpSTmTNKmgxti97M7nBShebxkmEBdeeGEyjBHapuyAB9lL8igq5bxnxivn87flIj9jrixlyXBSPITY21wZKIpaIgAUus8axCvRKSRgwxNpDHAkL7+jgAmp9lwDyDyh43xTMgYfxmN0Fl100er3fu/3qr322ispCmMHyoyjKXlbMYDlMwzrrLNO2iwLCKGBzxN4Y7Ck3z774M2p3ios25hHETFKPmHgq8WRKAagz0ZUb+VV3jeqlA36RNn6UVuMPVqgs/EDLOp0v7cl63ee0IHBVc58SOac4mNQO6XpAjX4kEfphWvAwEEHHZQMfv4WWnt7PKGIp9DV+MNoder7VM/1C2oYGfMF+DK6eBroxc8UPZ43Jg9jKMuA4h//M0B4z3eOPELu/vi4JprIDCf5DJ5aeeWVqy222CK9rI4zYTMmGetGC7JKTvEfwx6JgSXP6vdBz5w/o0zbI0DKAOvni170ouqtb31reoLMeIFtb6HuloAMcoW38TXdgI542puGyUs+VsYYsKPDOQcAFF6Kt5Wjuf/VE7Kibvfgb2BT3UBi22ScwKkN9d7EngMOMkY/6Rca64Pr2gaCgbN+EtlUHugERprAEFDmjc10UOgPNNCv0G/m5ogjjkifjgl+iiNZw7sBiDr1zTW0NwYZL0d5upTdiLY63T/ouQJqWlKO4pg0UMNroXi9xdPryeNrzxgTo15wwQVJkBhCSlUkhGImvL615A22lCOh9Wr/ADUEjjFVTr3xJWoKk7fh8wEUFqFzL0PllfWeqvG0CcNAGTDMrgEu/qe4V1999eT1AiTuIby8QYKk302JkqQU9IFSpBwYc3NOKelrNwUDQBgXD4fxoCiMXUiYouaJU1b66hMBwA4Fw+tRN2+c4mDcRKkiUVbe+2L5QF3u95Zg/TIHTUlb6mbYKDHj2n777ZNiprSBQQqq7nVrY+edd34eqGFEGYJOaTpAjbFQ1mjlm14MgPlwHp+gvew3urrGQJlDGUjODXWncQxyrl9Qo270A0iBAiAd0GZgAZUc1OBlcuDxeMbBXDIKABrQKxJlbOaUXpIcjR1/yIwSQ4x/3NsvqHEfnshpRbYD1KBlnWcGoRse972nXNa8+RqIYGDxeLcEaKGPp1E32mijBPi9asN9eAQAQzt00d/11lsvAV36Y9ttt02yzrCSU2AFjY0zPv+iDDmgwzhf5kPdocM69c28mVv6huMQiV4BUD32r4/akuhXegBN6U1H8ytCo19AbDedE/WTAfUCdXjEfTbsq7+eyAYHC//gF4kuyUGNSLWoHr0V/BRH9wTP1ev2P17TZ3OLP41LBgYBVTQ1zn7G1an+budGDmoMHFFD2YzjkeBixH6S8UwaqEEbSzAUImXDQBJyAkNZAgoECKhh1B0ZOAzLsBNi814HNfjCckqEPa3Toy1BA1QY2wA1hJTXpazrYaB5c4CLx+y1QYmIshAk7VMW7iOsnsoBzHzQUr8ojXoijMLXjB+Q5V4RAYZI9MeSAYXYLdpDuTBQhBZdLNWhCWC1xhprJC+YxwjUUHzaUz86WXITDfLkUO4JGxdj7ro+MToAV69IDcWp/u222y7RAmhjQNBafxhXbeUGSnnj039lw2v0/0yBGuNgwPTZ3JofRoZy7ia7rlHEohoicGiLX9E7jEqdBwb5vw2oARg5BvgJbwGylDwH4OCDD07KnyHRd31mtI09krYYYPJXBzVRxpEBFhkwh5wSumsqoEYfOASAMMCQ82febpvfZBaIYOyNnVzSCeYL6HaeAW2aY/LKiTJO+oIRDaCUgxrl/M+pErESZcAL9BgZonfQVNIWeaUf8Jo66T/ngdBeoIY9IZtoTRdEagI1+JOzQqYBMCDLWERJ+wE1xmZeOEwAjX6jGeDlu1nAvzFGwvd4kB6xfOk6h2nTTTdN/Y4lcqAGXfEROcuzPmu3KbEDIsscUzbCHHuPEz2DLnQo8DrrQA0h4kUyhELyBJmhGJesP4wjY0JR9JMmEdQQAgCEIQBMeEUMLCVnnwoBFq2hCFwnCBQfr3O33XZLyoKg10GNegmKiAsGB0YoGkswBMHSAaEm5IypZQRIX5u8W+0APZS+jwwSZMaf8MReHMJFUarHMhXPQ3mKk2B2SoCQ8fCWHBlBSoFnrE+8VZGYTomyoFgILjAjEkU5oxegY1mKMUI7PAekxBfqtQXkuM7johTwG5BB+Ck5RowCVifDrjx6oH0nI+2ca74+rl60JIvaYjC8W8VyVhgoisqyIhqhOeXDIJr/mQQ1FDVAay7xC2PRTanW50ZZPGUejYOyN1edaFa/t5//pwJqRCn1hwyIOPJoA9TgmU6ghreLx5tADd5mrIT9gVb9I2uMmLYYz6aEVgwsfskjDRwVhn+VVVaZrwOa6uj3PPqrk7wYDyfAPJNPYxR9MQ5825QYXWUBgV133TU5HhwGYC4iNcbE7pBd8+5/QIAeIWfoFKBGO8bNCXIPG4Hn6DBRr35AjTnTFtmNZGzOAx90SvAesAQ06Qu6AxuAGn7tBWroB+X0S1nOEloBbfSY83gkluv1hZ50XjSbc0Ovob1xAnABNOgW/eXI0VFoqX9+0yGAJzp2SsaEfpYx6Uq6yzIxfe3eDTfcMIHMaKtTHYOeG2mkxoARmIKGeCljhB+nzHCZzJyhuxFzEkFN0MPYgYJ58+Yl9O57TIyjKIDzBNg5gkBYMLVMYN1bBzXqBXopNJEUoIMA8p54cEARsMKQUQIAAOPLMFFYwKh24su+EakRucFjjDmB15+oHxAiVLyQ3IuKMTq6h4esDZEM0QFPixBykSHjyJV9fi+lwiDhe0oQEDQuipqXQiGG54legI97lAEm1Os8o+NedaApHrXHZe21167WXHPNlNdff/3k5TPSlC4a1xPFycDxgo0baKRc0Nl40I8HC3xRRPogSiPzrhhDtGdk0AJg069OaVTLT4wQmuI1c2+eB0lBC/QEJNDAXAwjtQE1+A4t8RjjZVkTD5CDfPmJ/mRwlAX0AXT91W8G0py7n24198bnuqUsjiRexYf+N88BlslTN1CDDzglgAK+0AcbRBl/7QIODC9DONWk35wVtkE0Vt8ADHKh/9oRcSDLTSmWhBhc/E32zS/9kIMaMkS3cCjIhLbogzqoQUc6AM3QQP8AIDog2uq2/ERm6Rzzaa5leo6OBBBi+Vc7kcytMvSSvSwiqubfWNjPJuPP2TCvwBf5Nm485KOfolLGbIz0sITeHARj54waH+eI7JpbMka/SfQQYMQhwwOiVEAxflKfceVjSDf93x/n0QsoFx2nY+hAbZtb5wCoaCu/d6q/RwpqCIdOU4RCrZhp3LJJo7Qxbj8JUxBAxomynZRkLiFuwIKyIQCMPcVGmIBDioeihc4ZWvMuU7yYm+EW5swVQnjgogYEhgCjLcMlKuJ3REkoWkpO9IBHq04eAKMgykOhUw6EGNACZHh5vDZKSbuACtBDwCyrdEoEktDiCcqJoDMk5l0fKZymZDxoorxxy5SjuvTTckOelEdXvIS3JPVTYpQCulM4ABHFANiIfsk8LfSklMhVk4KhHCkSwEAdPHfKzFh4h2gOtFDG6KnPjJ76KC7eFcVGQU43qAHyGB2hewa2KbqW07Tbb2PCW4w0A8iIGPdUU7+gRvvaxoPAJT5miPAFzz4HNcrGplXGDc/iY0YfCArZyUENY0wWRfLoXkaPXCjPIWBIyFQ3UINfOHlkhVziXUYQUMLLIiKuRXRvKrQzRtFXBhgd1E9OgWtjBgT0R7mmFEBDBIF+0k/9xesBasgW2tkjI1Lluo3k5EAkkmwbs3bQUJ36IuKBjmQFzcwT+uU6rN6vADXGFA4C/jBP9rGgH52iLf2yAVy95C50piPwoC26tgnUoI1lWLrVvJNVulc0CD+RHX2lQ7RFT4jA6pdIC9rTs9pHC7oggEb0Txt0u/nWBp3Ua07QRBk8qj30pc+ck/En3QN0DzuNHNSYDAivGxMMe1Bt6sNQJpjw9JMwxiCgxn0MrhwMweOFgMPrd951ikjOyzJ6DE4Tc/fT90HL6Id2CRfDSDAYfX3HqEAho4PxKSPGmzIkuJHdy6MIzyv6EoaUwlYPQcToAWoIKaVs/IReiJ4xomQIKgEDehgH5dDZ/bw0yovyJahox9s1z64Bs8o3pf/P3r32XJNU5QNXIWCChIn4BhFBzchhZhhkhBHnyAwjcwAdJ8NByAygxBhNMCZGI4mv9RP4GfSV7w1fw89zm1/zv57/mqYP1Xv3Pjz3rkr67n3v3V1dtWqta11rVXU3I7dOx2P/3cVks8hQ+xnqUkHsAHL6bg+cXHesZ+QoykLEyNAGlESUIrYUzhwoIzHZvvrVrw5AtNYedYi6gItxQPbI2ua6xotsyBKgA8la6KlryBio45yZGtEre9N3maM9CrAmT/03HpwVvTmmbCE1CCq95MTpMtJAt5GVSmrSHvZGH42dsaLvxhPhlA2opIbd0Bv2ajxTHKse+sWhL5Ea8rGugh67lg35s9dG5ME19yA12se2ZRLpJTv1PzIHL9j/UnEc3RC80E/jqY3srZIafaLXZO0Y9uUYfaRjnGxIDZ/AZ9UpZuSGzoRALfkzeCkL5xrqhAWOJ3e4CAdgUkgD2xIoVrzw2VgJ4Nho1rnMycI19R/2wVDXEqjEhziPfzHu2mbKWuF71E//EN6QGm1zfHwRmcBoZCnfqdtxS4WeZtEyrM+5xjaJjqXzD/mtk5ozkRrsFzCJ4C1Uowy+E/0yYgVwUEgGZqNgiAOywKhEIIzq3IXyaitD5/Q4AApK0Rk6xg1wtdP3wANp0M9swEpUMCY1+uIcxuYcpEgBzoiKLETIh/oZt7bEsQJuUYosTo5zvikv11Qn4pU+aCsQXCv6Y+2QVLEFnDaRnfUO+r1UXA9JSN/tkRd1SpHXIvtgSumxxx57MK306U9/eljrUtP7dARokR+Hoh0yZMAIuVsCF7+RL0AyhqK3bGTBuQP3tcIRA7bIfny8doj61CWzo30Bz/GxLf8DQOCnfbIb1Um3nL90DB2mjwila1hvckxpJTWuwYlZ4xD9tOeA2DedN77WPNRCtnQKWUlbQ2qMCwfUUlyD81oiNXP1aIMMggyEayJnexR2TW9MhyAANk5epkS2YqloE92g10iWrAvM5NQRRlkRpCUFMUZW4IJx4NQRI2RRpkKBR36bsin4q+4lUuM8dboO24fd8Aw5F2ghNXTacTYYmmMrZrBR7UeO1kiNfsAoQZ/slMw1jBCE6GuuBSP1LYUdwFxZG6TShhghI3A1vgjJkoG3oD3fIUeyyuqeK3BL0sC0m/HMuQgl7FvKes/VufZ9JzUnJjUxECAlAhc9cEQcP/C3HiQDyxgpO6OxmRcVWVA6gMYhU5BzF0rLKIHoWIEZBWNFxvy+VDg4Bs1w1wq5WcjNsbv2XOHoRKbSzkvHOd/1tdW02VqRCQLeiIRIxmYsgDoQ3lo4Is5T/2sByBbqitARXJtpCdc2ZZCCSEhdJ0oGdAAM8SVPpG2uGDNklP4AFUQmm/P1FVFcK4CI85jr/96kRp8RQTq/V5am9tGYiNo5UVmMY8oWUjN1HeMDI5As0X0LYaiZg1ZSI7CSATikv+wb+aI78InT3aOwdXUiW8E+umZcTJsuFcSXHLRNPfCILiMpxtb08ZrukL2MF9tYKxwxwtWCYeO64L3zYTydHmPp+Hh9C8lLsDc+Jv/DQdhGfnABodF/ckDA1q6lHtimXXASGUESMx7ImCwTH5bvYL4Ab6lumKzfMmk5zx6BRFjnsCT9OmTfSc2JSQ2g5wgosoEV4WC9iA0gxKhDajgmSpCNQnJEjFRkpw6KdE2FQgMeYJdptLn2cVIMhUzWCiN1m6MoZ8lhAzFRpzT10nGu5/oMXOSyViyiBSjAlQHaOBvRiShmayEbfRmn7AEI4wa8QNnmO5kd0VMKnZC1qu3RJrqkTwBwqRgn9QHuCi4id4SZHNeKyM2x2jhV9iY1xhV5Ex0vAedUW1q+Uydnyq5k9o65xrGkxviSLZ1HZtcic/0z5iJ849LadscLApLtaZFTjnEN5EkmEqGp+pljDtmrV1/oVbDP3v+HZOfgqcXg7AqJWAu2ZC/Yu3PWinEhvxYMG9dFduQuQ7iU6annIU+Oh11LJTKM/CLLLTKs11Lf2B+pK/W6Dkxbw43oTD0vbVS/3/cundScmNQAAOtQREcIjEWrUnymoQChKD2kBohTLAZmA+gckJTztZKavRWy1/fwSmBvUsOBiDY5+lMV8/qIIfs6xIGmXceSmtTT910CXQLHSaCTmhOTmgwPwLSATYpVVChiEoFajCr9qSA71kxY+2A9gtuZZQfMCXdSE0n2/bVKYE9SIwKU/UM49prmmJIbO5T9khmra7Kmjl36rpOaJen037oEzieBTmrORGoszrJ+wRyvuUmPwvcgNk/nTWoRoTHdJP0sU2OaxNy3NF0nNeczin6lwySwN6lxtw1SY3+qYq2CbJC1TYdMyaRdndREEn3fJXBZCXRScwZSI+q0FsZdDTbZGlNOyItsTKafZGgsFrRyPvOX9uYuEZxrWFMj47Q2j3pZlZ6+uvns1sWU0zXc32+NJ9kcO7+9J6nRFsSezlszcqoiU8Me2eI1ZGr0e4uNGbct02axg2PH+lTjkXq1L23Nd33fJdAigU5qzkBqrImxpgaxscLcA4ysnbEw8N133x1IjMFyu29u6RQ9ZpPhMXUli3PJhcKAxkJXCwTXFuW2KN85j7HYjgN72Np9DhkZT4sfMw166DX3JjWyk9aUjRdXH9q+qfPckcYeBQ3H6MZemRp3g3i0w9rdLvpica3bb91d0kpSHG+R6jFZqSk57v0dgsle2W0vXQJbJNBJzQlJDSdhTYwpJ3dAWTTsOyvyERR3QLl9N5kaz/ZAfqTc6+ZWPXepXJLUAFALNi1eRtJsgNyt6bJJ7jSwifp9ZyF0nr9TFRL4AmHp/qnbShOhJRvkzgXPWnBtt3fXZyzUen12rqjVlsyDOxo4Lrdmu13R7Z8p2o1cejJxivr9v3YbKNB1x5VnN9g8EM+dRc7jhPVR/XNF9g1p9XRf59MPeuB8egDMOVnZCrf5OsZt3j5rI/k4zlqQKTnnutrpLjpZwLTV3u3yMiCuYbzc1o04H+Ps9iQ12q9dpmottD9VcSuvbBASEZ075FqtpIaOGhO64hZ9esO+YwsWR8vmemCZ9nDsHtJXx85n53u+jSDJ7bv0XbHXF484cJz6cy49IE+YdMhzag6Ry9o5MtPj/rF3/RbAucOvly6BLRLopOaEpAZ4SWtzPO7nB1I2xEaWhvOTqQmp4QTdLsxJ1c13nBxSwzGfuwBi7QGIwFQ0yWl7uJXnabgFWUTNOTjOd9YHjYFTPTICnj0CiD0zgyNM0X/1AmIO1q1/5CaD5dkLFnTO3Y7tWKTKEzg93ycP3fKwOATRA6nUWUkNuXJGFmWnIDmeFcNhLBVkQNTL4bot+Otf//qDZ7h4pgNnOUcQ9JMstcdicXX4H9nVfwvGPUuHrpCPO3S0k7xefvnl4QFjvneO287rw8XGbbZey/ot2QjXUY/NGDnPNZBA1/bwM0TCOB1S9iY17ESWcukpxoe0M+foO1m7xlhXc0zrnkw5YOO3VFyTHXtcvwDBYx68S8mjHtiRLA0nb6yMg0AIofe/Dfn1rBAPM/MgtDfffHMg7OpV7I05wu0RAI5DkgQZbI8tsNVj+7vUxy2/5TZ2ffO4BKSdrdN5OMGWeukS2CKBTmpOSGoADGLD4SaSMji+F6kzaBEzIrBWAB5HKbI5d9F+WRKAIwrUFwDp/UPu3jJlBmCBsTZ6oKD/a1ZF+2UWADrygTTIDtgQCcTOdxwrMJbFSPbC00YBue88MXSqcMycqjtlXOe1114bSABA5/w9tK5mauIwRINIDUfgO5kRWY058pRrO9YYIkYyQYiX8UR2OCvALEvEMY8LYkVuyK7f1eEcsiAbBEQEHgdF1vqFiHhrMQLCCXpNgvUgS6RG/RybDKCHO6rHJkujr37XFxki1xfFV10dt33p/71JDfnSBY54jSwstWvqN32my/QNATj2IWBbSI0MDTkjxe6E9GDH119/fXhVgCAH4dEmhV7LVtIRG3l4gKOnswqK6LY+0JUU4+cc/WOLCI1MEDtGwBGFayE1xjj9k72lz2zJk7xffPHFwebTr77vEmiRQCc1JyQ1SwMAVDk3wMYRrhWAxPGI3M5dgI7MATBG0hQRpekQRAGJALTAVbSF5HjxYiU1pnREiBw5cNZnoCuTIi2O2HDeyIc1HsDNZ9Nunu3DifvOcXMFmJOTa3iXjGk/7cg7YCqp4SzcMiyjhFBouwXa6ucIOFIkRX1zRR0yaBxU7p7hXBApzknkjjiMizq1SZZFpgZR1T/Rqjt9kBpTkwAf+ZB5EtGrV7/InmNC3Mh0idQYO/1DOJ0vQ5ZNZi0k0bhymMa4RR/HffL/3qSGLI2BdsrWtJD/qXZNfUe2dNpToj0U8VAil7q3kBpTjsaa/eujQACxlpFhJzKVpv126pYAACAASURBVJ9qIQfjQw+MEf10nnGlS5XU5DzTWl6/oZ+xW8RVxhOWXEuBhXRaxszTerWP/bgzVCDTS5fAFgmchdQAbk+dpbzXtpneMA3QajzAA1gwvD1Aljy2lK3Hb6l77liOUbQHTLNOROTMwSID0sQICMcMmB2HiCA1HL+xl2kxrQO4yNvGqXO4slUiSHpimsh5CIy0vPOk2FtIjfZb+wPkRbLW0XD8yI16Q2oQQ5GwrJFxdF3TR7Irsi5utZeVktFAwMbFNawp0gf9kcUiI2PDOeoT4oBcIUrj4hhOCplDfLSBfGWzEK2QGuSH8/MyTeTL2giyQpT0TzsRqjlSY6w4C/LgKMeb8SB32QLHkoks1bWQGnIzhcfBI28yVdG/sUy3/G/8kFFjbOzqlOSWeuqxW0iNsUROrJ8x3ceG2ItxR7JMFyIw9ElGBfGnZ/TV98aJ7cjSyGKaBq6kxnnqdg0P/ESABAq+FySYmqV7U4S79ukcn2FDMoTaJLBBMo2L9vfpp3OMwv26xslJjUwE4JROFwVf2ybLkPf6tAzt3qSm5ZqXPiakRjQZpwKMAS0QjmMG7MATcFrbwtkiNZw7wEJ+rGHgnJEgzl8dvhdNyvIA/DxJFikBbkAeuVnK1ABsJAApEb1yWnQuxKuSGql42RHttCCR49AO5ILjtHhbpgS54gDHxXfIh4wUMoyMIHNIrutyTtohG7BU3N0D1G0iZ/Xam1YA7siFTApCx6nbZC28NsPUlkyZds+RGvKQ+SFfY5Q67PVVXTIDnEhIjTqvidQYVzqFxGk3edCpQ4tzkTgE1pRc1rodWl/OayU1+gMPvRwVqbJ5qrjsDb0x1n5Tn2O11To2xNtYIuTabKoW6aanfnNsij4iyWwzWVRTj7I1iL2Xv7pWy2sBUuep9vqk/8gXWSDpxpp+wolOak4l+ftb70lJjYgUAANPDlFkAUyuaRPFAnIA11JuldQAz5qp4YA5fU7Rhqwmq8Hhy474HdhaL4Oo5K4pREB0igjkOyQJwaArNgQG4Ml0iEZNnSyRGgRC9sjUEadhrYg6OULgjkQlU8OBIwKO5zzoqTU1psPc7vqv//qvw8MO5/SBDqibIwLGrmGPHHBAQFl/a/Q8VZdrykKwEVM3NnLUJkSH7BAlRIs8bdqGGIrUOT/R+xyp0S8OUD8RdyQx9dB7YyrokA0xdtYwOeaaSA250TVkJsQYcUTYthSy5NStlUqmFVkioz1KK6lxLcSVLlvrJGtCL+kdnTHW7EyGLm1GmhF+Dp4dZBpRJkNG0G+OVcgK4VG/tVcCEpke/7NTtiBAkMGjf5cu7Jv90EeYYBrbZzJAdrS7ly6BLRI4KalhaJRWlADoAfG1bdol/dn6grFbJDXS89LebhMVKVZnDZCRiLrwEGgHUKeU0eJcGQaZiloAsu9kFoA7ouJ6eXYPgOP0pwrHLGLl6B2TaF42RtQX55GpBtdyZxpCW/uDBLi2/VJBmjgU1+Nc/vRP/3TIrgBopAxZi6OZqwcJ+rM/+7OBtCVq11ckzp1OinaaqjKFYENiRNkiWtNz9lX242tx/llHoV0IkU09xgBB0M6sXXHdQx393mtqal8QLYRE8JFMmH7XsavH18/0CPGDQyHNiGTLubWepc9bSI16EH8EVUYF2YquyMxoo7bWgmx++ctfvnviiSfuvvCFLzzY3A1HB/TFhqiYFpWJtPjZd2yI7ggqTV86XsBxDUW/+QRZGbqfzZoaNyIgYb10CWyRwElJjYZQWoYFKK95C6isCU9fEuntsaZm7XrX8DuHIvoTQQHbTEFpGyfDuQN1DjIbpzEX8SNBgJsjHRfjgJCQs4I8SMkDtyVSw3EhRIhKdcoiXtdDXoB9brN2vCkiaxkQ2rTbXsRc+zhuY9ql32Qi42R9C4Ism8CBIHWcyZJeIT5PPfXU3ec+97m7J598ctg+/elPD+t7TJ2lkAWZjDcESmZI1miuyMAgTJynKa30011WsjfIqmMQQv/Lqi21ee46vj8lqVG//hsb9idrgbDKQsniIDjIAVnZkFeOm46ZppGtIC8LUWU+Du3jXP+3khq6iqiwg4yJvekiTp7+0NEUmW5rohATpCQbfbOYXH/0GybJ/tHf2kekjp6TG5K/RIRzzXPstRnReuaZZx7YQGzBejj63UuXwBYJnJzUbGnMw3AsI7w1UmNcRPycNueYbIfvrYWRwQFM0to2mYtKIMbjCnQ5bdM9awWwm4qRQUBOEIEtReRrikVWwvQKx6cgXFLwXlORdmfPWSIkSwUR4CCtHTKlk2eNIFU2/dNu+jJXtA3ZkplyvI2T47g8p2OtuPsFGUEm5opMTwiMaYv00RjJ4BgDGSNTGNYvVUc6V+fc96cmNa7LUctGIKTIoz5ZmyX7h3CTuU22zXeIDPJJrs5Bkk9RtpIaY4+su305Y2KfqSV909YQE/Ylw4agVRLks4BjTV/TZzpDJtdCavSPHdK/2ED2cGKczU0/+r5LYE4CndTMSWbm+1slNfoNCDmumgnxPyciwqwbsOVQp4opSedtWRcB4E1rhZRM1bv0nXMBf9quP6Jai5hru312V0glblP1yhqIfhEG53A2ADhTCbIE+hinNFWH/iMVNSuEVGhnHsg4dV6+s+DZsWtERF9F6W47T19F99qnIAnGtrYj19iyV5+pM9kT15FdkBU5RTGOZIRAIqtIi/UYpjFkNGRBLI5GujlN43/KspXUkLUsUvQn45I9vaz2oS+ZmrTovW6yhRaXtxRZRWS2lQS11NmP6RK4Jgl0UrNxNG6V1GwUUz/8BiVwTlJTxYs4WhCL5Fn8a0NirCmZmwKt5+/xeSup2XpNfUGikeDx5nuZw5aCdJuCDblvOacf0yXwMEmgk5qNo9VJzUaB9cNvRgKXIjXXIOBTk5pr6GNvQ5fAwyCBTmo2jlInNRsF1g+/GQl0UrP+7qebUYbe0S6BC0lgM6mR6rVWQhrzFjepWws73SmSNR63KIfe59vU/6VxNy3iYYfW7li7YX2LRaxL59yX3yxk9/wlfb8vfer96DZ+Th2wNlDS4NiymdR4fofbeL2P5hY3T5t97rnn7p5++unhQW+3KIPe59vU/bVx/973vnf32c9+dnhmjxc0eqaKB8ytnXcffveaDa+z8Lyi+9Cf3odu4+fWAXd9egDrsWUzqcGmPCvCHQ63uLkrwbtWvCPHHQe3KIPe59vU/bVx904it7Z7zopb6N0uL4Oxdt59+N3dSZ4wre/H9MezhNxNaN9Sj1cdOL7lWMc43tZ6/NRxW9s4VUf/rmPIWAfcDdi64H2J+GwmNaafrJwfPwjsVv439eZ5LR5i5ZbSW+l37+cvPvyuy+S9MnEbu9uOvd7CM284eQ9hvAU5ecij57+4xfyY/rrLyROx3dG0Vo/bwk35Od5dXmvH+93xnIe7xVqOnzrGIwA88ND0+9Tv/bv32kWXR5s88IqlR2AsEZn622ZSU0++xc99ofAvjjqZ7DEXOq5ZnS1KHqLdcuz4Gv3//SSw50LhjOm5HMKxgNp695N+eTaNh1OaxrcJkjxB2GsgvN7Ad9bmpLADZMkrSbyvyy3r6rHewXUdH/vz/ZzM/OZ4D7Fcek6NupBSWae00ZOLPYtJpt7DGj0XSNb6Phfyilwf9n6mL/ZbyqHnbbnG3sd2UrNRopT8Fp8oTLkBmofg2aQJgafvpb+9y8bvCgfhwWFk5XcRpUgy39unOMaD7tQpAvRAPIux1W2xKQBdetaI8z04ztTH0nG5Xvba5Rocg3an7fl9au94fantnzouspp7+GA9R5vVqR9zJTKsss/x2q0Oxyg+G5scW5/Vkvbn3LnrHfr9nqRGRoEDz7uqTrn3HiwP8JN5OFQ2W0iNB+y52cBTg20IQl4M65UWniyM3GQ8PTwQ8TGl51gPFGQXbMWD9DyZmE7SAd/Bp8hL9si7spzjdRqelu11I0tPFCaDkBrttJluVxd9svjbe6s8tfkUhd2wiVa7pPOOXbNLbSUj2LR2rDplGT3Z2+e9iuvrX8WGfBebzR4ewqe1tra0TRbVAzc9y2mppG3apNATBNsDU5XIj56lndn7zri1FNcxZofa29I1OqlZks7Ebwbh1kiNPnOUwFjEJnrzuHVGT4m9n0UUmflQBuSdQsgJQAAMolBOD/hzHinOEQFyLN7vpG5gqd5/+qd/GtYt5cmqUubS8tZ0Aeik0M3NeqsvAJgqDJHBeTS9cxmqc/3vtQ8iTgYf8GBs+sBxOMaxigjZOirTjmSiTk/MVadN/2Ks6vNU5RitNmifOp2jf74jQ4/3D2iM2+98oOER/4ma83oDsjUmnoAcMCEfDtKxHBuHxgmpB1FI+8fX2eP/PUmNfv30pz8d3tzM8cdJn2JPz7whmhyjA1vl0Upq1MuxyJZwFsbDuiPExesBTN95rYPpLGNm4SQSwiboDjtyLr31BOv/+q//Gl6t4Fj6xBGG1CBBXpjKNrz7is20viZBPWyArXg1iTVD3hnle23yFGM6eWxhS2yMTdhkkNgjucAFU5kp9J0NsjW6HBsynea44Irj2JPjyMyx9truHISRLMgM/gQXHKPP8IatCpToYPAn7VjbB29cN9hgr02uZ02S8XacIthwLGxFXrPBRG1dIyJr7YFJ8Ai+yhLq91whe08fzxPVYavXkHjVjKIu+somkd1gkr3XkpgKTb8c71r8gP4bX+crsJEMjP/epZOajRI1SLdGajh5iwsBfyJLBoLIAATGR8FFcYpjPS4fMDESQC1SBMgciKxOCiMH7t4f9c1vfnOIUmVoAIk6kCMAE/Ljmq5lz1AZhdT8X//1X8+SGmMmvc/Bc4relwTAAOEPf/jDIfoF2MBQX5EMIG7TT8e7DpAlA0REm7TTin3OQ5tcA3Bqq/oYOScZkHM+489LCAOcQGPuHTeO0U7Ruyjd5tZh0xccgOtzWAiWAqxlOBznsQN/8Rd/MTg+jsh0gvdUbX1/VsZqbb8nqUGEs0aFPIHsqTY6hjgAcw7mkLKF1LATpEA2BHn593//94GosK1KarSF7hkzzpYe2bwTyQst6Sly431RcVT2dIasEAAZFrZCL9TXSmoiA/Vop+vpI1JAl2SUOF9EkEPO9XNe6x4+6L+NjsuYsR3ZJ+sW2ayiHeyH3Nib39kbWTqH7DhKhS1w3o5jw27sYJ/G12/et+W6bBPhZz9+10f2iSS5Htl7HQV5bilwhKzoL7xRt02byIrc/B/nb1w4fWRW2/IKDHfSIaRkfGjRFvaOMJOFgGjJ/skx2OKaZE7/yEkhl7/5m78Z1supL5hk7zxrrdIvOiEgoz/6S7ay+rAdMffdUlsO7XMnNRslZ6BujdTIVABPBkYhKS1HC2BEHRSagobUYODugvE7p/vSSy8NRoXFe4EjxY7ix1A4saS0OWvG9K1vfesBqXFO3kwsM+Sz62qH63EGc+ADNIAmsAB0nIKowTW+//3vD3VxaqIIzuPv/u7vhttykQf1MmJRKfKljaIWxuqlkEgRY9UmJA6pAZwhHoDT9Rk7IEZobJwCp8OpAXNAOlVcB0kRMZKZTX85K+0AhKYUQmqMAQAyLkgXkAQ2QES/fvKTnwykbOpax363J6mRmeDQOKJDsyet/QG6AJpTNFaHlC2kho54QSWdF/UaF7ppbJDzZGq0RdbN2Ndo3bXoP50ck5q0nZ54SSRSTu+SheLUkIWl6afUwdbJRtvYjwBGQWq09W//9m8HuckmJALPua17mQC3/7/77rvDHo5oHyKClCM4MBcZEOS8/fbbw4tkHf+jH/1oyAyQEXnQFYUNCHS8cFbfPX4DkRBMkT179ju9YndkyH4d6xrkG1Kjn3O4MtdHxA9OGFcYpW6ba+oHvPB9xUDnIGnGGnaQARuHS3MBz9z1873MFfKG0MAQmICoIbnwlE7VNjiPHYR8OIbcPG/KmCvk4iW+sIVcnD/ecn19Uof3sOm/8fB+NhjLhyJQAsS9y8VIDYViCCLja920TzvrwN8iqaG8AJjBcajAAxAwAMqOKHDUITWAyjNLGIfI8M033xwMS6YGaANWkSOlB9yccACIAYicOP2nnnrqAakB0ImmjYs2cHrS7zJDS6TGGAIJzh1QM0ztlrn47ne/O9SjblEN4qXtiI/jgIIsEqMMqWGIyAbnE2IHMJEU0z9k5Bz1u7Z6fceRaavPwBMpQWpE2nOkRpYCgLgOgLCRPbLIyeRt2yE16ie7vNjxnXfeGa5hLDx3goM6BZAApk5q2p4obKzoAieG1LArDhy5HWdq8numVmCRzBInPpWp8Ts85bA4aboi0laPbCMC3EJq4pA4IXexmYqJc2c7Ahy6R385y0PJIL1BHJAZBJydkYOMLkKG1LAhpMyzgNgjDGanf/7nfz4EJrLAldTESZr2gFvIl8ys89gTUiMYUm8KmSEdrifYYfshnMbLua2F7Mgc9mXqOufCDXipvXAs9WqrjPc3vvGNgRCRAVyAWbDBsVuK8aBfMEod+q+PCIUAR/voTx03z6BDJhOQGXvE0aMZgk/kQkf1QaY8mGRvjASk8Zf0RXYKFgoY+AVjDCeRGsTuFFh0EVJjgHRGJynpNW4UnHIDkzrwlPDWMjX6bD6YcXhi7A9+8IMhirDuwfdIimiJYSohGZwxOXKmgAcYSqnKwCAjDIxjBrwMGqBxugyRTnhwW6afEArHOJYxuR7DEtHToxZSg2QwSrrHiagfMCJHITUM01uekRT9FtEib8Z8TGoAzwsvvDAQNSQFMJtyYsSiT0QNcDJyYCaiTbZEv8jLXj0BjTFwOT+RDTC2cYLaCaT0gyxDKAEZIDKl5foADHlCgkS5AP4UQKLdndS0kRrA7w3mnJ6omR7TYTptfJOpMfZ0DjnhxI0xYsKW2AoyIQLP9BM9Q9p9r146y77osqBD1gW5NS2ylKlRj+txOqZ21EHXUgQhnN8ea2rYGJsnA9ldAdCf/MmfDKSfcw2p0R4BCFKifYiDAAlOTJEa9bIp5EufZU7Y2xypkUGBbzITiEhIDYyAc+y3kqDIYmofUoNAhtTwIcaGjSA0MEKfECb1wlHHv/XWW3ce8CobYvPZWE5lVaaune9cBxawfwEaOfFnsFNGmf7Qi/TJXuD4ne98ZwigjC0ch5k1U6NvsnYwhvz5A+30WZ/oGNkr9ogSHYWPsI8skR2yvjekxuCaRxOpGDDp+2vbRLevvPLKkLZMxB5lMVB7kRp1AQtGOi6UjBEwRAa2lamrU4bAtkdRn/ZQdo4bkeGkOWXGwMnmWpwo0Da1gwAxFAaF1AAwih+AAewyC1K+DJwRMHB7AO97RqBuJAkhMp1lGispUMRpjdQgLcBNvSIF7XFtbaykBmAbfw4GMGirqJERjkkN4iCaBIicBJAyzQRMRbHOMY42feCUEBRbgJN+LZEaYxfZAzbtDxD6DaExJnREkcHSXv3SDzIEZMi5Y9ldJzWDqB78Mcbnmn4ylrIEMM8UCrBHOGUU2FUlNRrI7tkXB4DQc3DIqnGmB7KaITXwxDizMcSFHbmejQPLVKe+LpEa9biOgIFdI1K10G9Ei9yOLa6lvfrHecqOsEfEvWZq2NYbb7wxtIkdcdJIOttnqzVTo04kJBlO9gGP4A+ZkXHN1HDU/k+QpE/sldw9IZsdcfCV2C31W33ajxAYD7YOc+CH9lqX9/zzzw9740K+2sr58y3jzffaHnxdunZ+Q1y0gZ7BYMHkV77ylWHhOEIiuIGt/HH0Rv+RnayrgeNICEIIFxW6BGu0mX7RD2NhOp/M+QjHKOp2LCJJ3+Cez44hm3tBaghPlILpMRrKGdC/lj3FoYjayFAMQi36sIXUOF6dwCmbvhp4igHMGEEtjmcElFkbRFkUx/l+i9KoO3VmT5H8zgApIqXL8fUah3x2PWRG9CONaANI0sKiqshK/8iQoWpX+stIABdAVrQLyABH/QRm2aTIn3322QeZmhwvcgPqAWzy4LSXSA2ZGE9RhXbKbsj6mGsGWK6dTA0iI+qQBgYKwABBkEYdkxrExVQVB6LdnAsglOr1XUiNqTZyS9+yF0WJzjiIuUxNxomOABh1AYWMN70w5x7ANUYWHZIR52WLbI2XLFQnNZHqz/fnJDXGBxFBPNmOMUHQ6SOgH5Oa6D3HjZDK4pjGZTucJWIeUpNj2Zvr1OL42G9LpsaxHK7rwajom70pVgSJ3h2LLdpKDhbUsjNyYKN1TY1rwEOy+eIXvzjYFlJgWoQs2BwdD65wroItWMEWtVkQI3MBcxHJkBrXNx0sy4rEpT+csfUnxkcAlu+rTOc+s1VEQNCOmLF3ckSskAb949BdGzYJ8unAiy++OJAd7TMll81v5I1otRbthROmfQRaMBKZqv2OjlhnJOCDUcaWj4Zt1vTAMGMRUjO+viwZOY9/V7cMn8xX8C574+Wce0FqkBiEAFPkzLYoyliYp/qfQnJgUp0icIpXi8FqJTX6x6gMYBSUgjAu9Yo+OFWGlkJxMWWp2I9//ON373//++8+9KEPDVkjxs8hx1BFD0hC6maAlBMARFEZ+15y1ncgCpBd18ZJvvrqq+8hNYgGZytCIE/n2bSJY5ZtSKETnAqgrZt+PvPMM+8hNc7hpJE8MlMnUBABACTXnSqOY8xk4xrIDCARNQHSSmrIijGKmh0L7ACDOiqp0S99rG0GPMiWPiFJITXqQ2DqsT4DN+l247ZGavQXKTNdJspyjs17yERYrqloJ1KTvtZrOo+udFLzXi05J6nJGNHbunEkMmnIOYciC1pLdB1uxJ5DamT6xjhVz62fOa6WNTXOQRg4ZlgUjMme7ctUsuljCuIg4LDGI9NuiIA1ZMnUqF//ZCphI51ms/SczatjTGrYLD2PrMjPJvCqmRpkB6Fi21WGITX6u4VMaKtxhTcIWuwPNgj02DFM4dDTNnv+0PHGhi1X3fBZ27cW9ajT9WCd4AlmqSvXVicSCJfpoO+RIettYD1fV0mN3yNLe4G3NtOV1Jtj+KEpHJKZFDRqz0N991OcACMx4Abq2oo2MQQGZpCnnKSBayU1lAQRMWWC2AAt84ockyyGlKIUdCU1DMv8OkNlUNajMFj/m6pAuCih4xiJFKLvbZykqRwGypE6z1YV+BiZuybQJR+ZAE7bxmGLkiIve2OMlCBtyI1NXymyVGUKecoyAJG6IQecuIirgor+mHd2q3LqJSMAmOun7rr3m3pcg9H6rI3ORZScL6JT9NMxjnVcdJVO6LuME5mqs7Y5BA6YqI+eqKvWV493HAM3F91CavT3Ix/5yN2v//qv3330ox8dtkceeWTQrWTJtF9709d6Pboi+9RJTdWMu4FU0wGOMGP93iPW/yNbdbDdQwoMEMGKytmxhblrRQbBlJQAgB21FMcjBgKBtYI0cYbW1SBZdeOkTeuwk2MKDBQ8kj08Y0Oie3bGNjjMFH2ses2ulET+FqsqjmObU2PJTmRiZS6cDycFieqthd2YCoPf49/qcXOfx9gA47QLdgtCkI2Ky66HAMhACbSCbfayuTUQnLvm+HvjRzesUfK4jLxwFamDTSnaBfvsFe3yf8gNzJCJIQc6UNv2ta99bciow2TfO5b/Uci3jlewSDbcDSHadgosOstCYQKSApP+IhSKWwd0kMCF/2gPZilqEKXPGauBbyU1jEVEg8xQSgbFmKSLGa70LUUIqQE0sjcW+jkHm9cex3KoppIoBGXRDlESQ5Y+TQpVihqBkv5EnmQM9pK161JGJM20i/SvDTGQHjeuiutx2NokMsjmfyBGudeKuugLA6ljIT0qQ5U67ckL0YhRrtXtd8dqI/mJXqX+AdFScR2Oi54sFc5GmhnYktlcISdz35wMXVkqIjl3I4i6ZKVEUjYgQvYAbK0gcS3tX6tn7ne6KXXOsdNX6fZKYOfOm/peH6WrkeUlGU6du/W7c2dqptpH92CEyJWjDSZMHZvvyEXg5PhWG3c8G8p0Zeqa2rMRdshe6fR447BarztVv+/4BuQjTt93ISkysoKmtcKGBFbjKZCp8/RBFgiJIr+Qn3E/YI56ZcGCa1P1bf0O5sB2mFOvqS3wH4ms2OYzvGkZr3Fb1OlcdbB9vscejrXaJfvjT2TF0saK69qbel2Hn18jYPQKuUbW1rB03KeW/09OanSAoYo+pFXXOtzS6FMcg0HLdmCPSykx/WklNRRBtoHBUWbnUgDZFGx9TGpEe1KwjI6j43ABlkgJEXIOUqAwNNke5EKkL7IR5SExjIbzQpikP6vxHCM79TAGc+1AIRuyJTVM6VP0FWAxxroBkZb2OF8Ex5n7nOIac/XmmNa9erUN0LfcXYA4cAhrIKeN6su6n6X20AuL6Cpxmzoe8JMHZ6fNZGCzxsZ1pqLScT2u1dL+8Xmt/3dSc3imhk3QR+NIf6rOL8nfcdXulo71W45vscG1uk71O32mpzI37GitCO7oXkuwRFYwjC0vyYCc1Mvpto7FWjv9bnzhjfaOr69tFSvz2TnjY1uu5Rh1TuFlC144Hwk0FsGnuTamra7lmLVijMlgDUvX6pn6/eSkBpCaQpA5wOpaOjzV0FN+J4MilSrVaY7VAM0VCt5KahA4kTRyYf4ZKbEOwhSc642nn6Q7HY+ckJcUpSwNomVxrt+QFSSHUpjzlEo1JUW2CJHjZcOQItfRp0MNYkoG6iKD8bbnNXJddZ6i3tSf/ZbrtLantc7W47R16tpbz5+qI3I4dv8wkxrRKJLeCvZjWR07/TSu75b/j05n3yKLLXrdWm/rcS3tq8ecqt56jT0/b5Ft63VPKYOTkhrsTkqKc2b0WN+1FQRGupzzRxLq2oSptm4hNVir/kujy6CYTrImxIpxmSFRiPRq5CI1iDCRF/ICaK1hke1BbHxv+sF0A1IjI+PdLrIxCJPfLEKWAZI2dA5ycwqlnJJN/+62JbAnqbHGiP6eGjfYv2kOW1LsjeAg/wAAIABJREFUh4xiJzWHSK2f0yWwvwRORmpkZEyfyFBw5seukt+/6z+v0TymNTRIh/T+WtlCatSF2JizR14srsv6D9c1jYOIhNQgKtaGIEGyMqaVrItBXGR4rKmQpUk60PylhbfmfS2qUz8yox82BEdG6D6RGvP4yLJxWCr0T4r50Mh7rm6ylDJFSFvWsczVcx+/35PUGGfkH5E3h7+UPT1UlqZCrdliO9YACWgOtZVOag4dhenz2Dc7pwdrhW44bm9bX7tu//06JXAyUmPekCN3O9ihdwScWmSmxiwGE6XJkqw5Su3ZSmqcg4jkGRMWkJoicvcQwmdNTCV8iRwdX58HYzGuzQIrBfgyeu13pw1gRh6toEeUZGhkehCbQ4F6uNABf6rj33pt8uVcLPqrW9aCmB6kT2tgJxMmo7U2J4/8WLfj+Ja2Ot46FkQYgRwX9ViTlbabkzfXr1/IK7u4r2VPUkNG1hpZTMhWBEj0fa+C0LB5GVrTvsalZfznrr8XqdEu66Za1ofEVloWFafdbAveXDsBYCsCwNxJI5Bwp0zsyt7/cMDtxHBBoNhLl8BJSA2FdGcG5ypLIVtxbUWbrEUxbYMYAJOWcgipcS+/25ndhuwWQZtbu93u7HY7jjCF7GRqkBRTULktW0bGnUfWJ6Voi3UApqwQM+CfzXmuo45jwLpeC0Fw5xFSYQM69r7jgDh8xd5iPO3aCp7GASlAyrLJoiFryATZuFMJMAN+x6Y9aQt5uj4ZA7wUY45kOM70BiepDrqaZwfl2PHeuLiW6UR3ZyCcyKm6jAFwJWeLphEebbc4Xrvd0QaU7T0j576WvUkNeco4Ijb0G4ncI2NDD+gsQsM2ERq2dEzZQmpcy91usSWfs2DSOjwZV1lY/Rd46XfVcZ+dwwbYoBsc0n7n0FUk0HGxUZ/pr8ytO8sQ+Wsp+qK9bDLZT2PiAa3BL1lsN1wEE+zznBOPu5DRY4e9dAnsTmqAjkWrsgaMsyXiOPcwMHxOD6GRTWIwrQV4tC4UTp2yKxwsRyirYrNewEPsPLG2khpRl9cKWFzslthsjpV54TRbCjDMI6/199hiXGU+TInJMMnAmRKz5xxESiGviYI9u8DdXqYPsq3d0o0EuePLU1dtbn30Qj3yQwh89rAsgO7uCG1y27s2ubvOLfSiO+sjPGwOkVDUa60RwoEwItwAH3iGgKT9U7ISBSIzrmW6jxz03/+IVhyj6UN6b32W9mivPui/4zys8L6WvUkNOdFdRJQuIOymbFsDkCk5Iw9IgjsMjQvbCyGYOr71u1ZSoz+ct0X9ghQZWfqILGsbHdU2i/1Dfjh2x9joW85hD3DE8QkonCPAYJOOZwPJEpvOQ7StwXPMNRRjC4O1i12zE9hsOpCM9IPM2DuZBBfIAU4ivD47tpOaaxjRy7dhV1JD+URWImsOWGRwjYWBYPeMSUS0JZtwCKkRHTFYC3t9tslgASW3YtfFyT77jnO2rsbnbLIvraRGtAYEAJlxObYgp24r55QRCcAo86RNHqNurCNHe3L13hGkDAHIhki2AiqSgeQhB8DbU54fe+yx4bNIk6yQFv2UNUEmkEERnfYA9GRqRIAIDfCU7XI8MASqxobOLjlLJBFokidSSg7uLkNejKX6yVk2S5scC4CBLadEdkDYAxXvazkFqSErcpWl48DomzGNrrXKUh1IA720Nk2UDwf2sA1taCU18INOeG8RMi34Y0f0QsaYfiHLsi/ahnQJGIIbpsrcGcm23EDgQW3+V29kxS4Qe/V5YjU9p/P0Epm/JlIjwwITyE9W02dZOdjHXthrLfopK8qmHMven3zyySHoQXh76RLYldQAdg4P6HN0QIMzuKYNSHB+DEj6dys4HkJqGCFSML4WJ8ppB5Coo8+cg2hFtqFugB1ZaSnqcWycbcs5S8fog3EVXRpb8uPUkQOZOdkV0aLNsbJfok5OpG7IBn1IZDm+JiAnF6RFVgcYy4wggO4Ee+KJJx6QGufqJ6InY6ReD+zj/FzHkzMTAfsNAQGiAN9ngKnda6TGNfRHZsfUF8LJMSUTJp3vd30iD46G0/KQQhk2NuF6PvdMzXjE2/6nF2yCU6YPMmJLJHRcawgNh06PEeu9CI1rbSE1dICOwiLt0ievGjEdjbj7PH6isOPoMOzSf4RZVkMmg87T0XERYCJMbIhNKrJTZHAt609kkUwBWjOnb/ojKGFn5CTYUNgWsqbd7Feg5zldjnnqqaeGqfbWgG+osP+5txLYjdQwKhGF9zrlRViAnBFd0yYykjUQCbUShDr6+rl1+qme/7B+Nv0kI4JYeDaOu7KAiSkma3f8BngBtdSxsU+qeLw3JTU3p4/4IRqyaADP9URgjgfqUuoiOYRZcbz6HIcgSsUbH6Tm29/+9uDAzNcDRFkU9Wq/zI8sjfaukRrn6o8XznmhHqcIdEWKX/3qV4d3dJka0UZTTHnUPYJDz5BApAvJ6Zmawy2AY0NmOGXZCQtF58hxvYqMH2KNxDpX0LB32UJqTEm6eQD+0F8ER+ZIECDQ4rDpjeJ3x1kTA0cRY+cj5/Tc/3R+TGoQPhnO3/md3xnOC9apgxysY9ljfdKxcpS9ZjNZP2Nv0y/2oq3IJ3s3jc/2BFMIkHGECfpkXKcW7h/bvn7+wyeB3UgNcEFqKJdoPlMm17jngER9h5RbJTVjWYkSpfGBcC0iYJHW0rgDsrm7kjggGRFv/rbeCGAD/Gy+M7WJQAA7xyM1sjJIDfKAzCBWr7/++vA9ALTmBdCPNwszEd2l6SfHyLbQaxvS4jb7P/7jPx766Tt1OC531Oi/FLqMljUUyBNH5dz7Wk41/VTlBWdkIDh1+ifCHzv0erzf3CnDGZoCbJ36rHW0fN5CakwvISbIurb57IYBjlwW0Ask1aftyLm20zEZGrrkO1lCU7uyO3S+ysBn05+yic6T/UCYfG8K1jnsiY1cQ5Gp0R7BirFV2KsAhK2zc+PMdh5//PEhM0UWwQR3kAqA+vTTNYzm5duwG6nRFUYzdhrX+L/o59DUsz7eYqaGM5GJySYFDDARCt+J+sg1OoA0Aqmp8VfXkvwRFfP/zkcK6mZqR2QnchNtmlv3sjZrbX784x8PQGd8kItkebTLWgSpapnEbNbcZM3LEqnRVm22lgOYIk3PPvvsALDefWURs6lBfbe5FkelPW7DF1k6zvqGnqk5HvSMBSdnfQ0igEyR+7gYN1OYjuMc6eSS3o3P3/J/K6lxfWuw3njjjYG4v/zyy0PW07oXTlwG8d133x2mjByrn7KEMk2yLWwjNmVKCcFBYGr/6TvbQYaQODIyncVOBRzez8WmroUE6AeyJQuX8REgaKuxU/TPd2y74oHP7A+xI4deugR2JTW3IE7GdWukBmFBEhCKbIiETIXMie9MQclEkA/QtZbFfL41QaaTsnFAgHmpWH8kpewt31/5ylfesz366KPDnU4yNaaFkB+LKC2KdIs+ouN8e+Dtd0ApAkTA8iJIe9NC1jN4My6np91LRWT7yiuv3H3iE5+4+9SnPnX3yU9+8u53f/d37770pS8NzjNkzbQWeTne5lpkI5WOWN3Xco5MTWTHcRtT05Gmk+kX+afQQ05bNG/NiUxF/T3H7bVvJTWux55kD5FuJAZhQdI5d585aNO5ijb7XmZKdpCuZnvhhRcG+zN9qr8K4sIO9BkJ9781bzJAMlum7WTTyW5N34cKz/CHLQswLJLWLmOJrMkCZ6G/trJl071jTPj93//9ISN7LSTtDCLrl1iQQCc1C8KZ+ukWSY0+A12RUDbz19aq2PsO+EgZIxAcju9kNEwLIRfZOHagtVSQEtHpc889N2REZEWyAXJrVUSt2oUged5MNtdWkBp3h3ASClAE8Dkuz6gBnqaKRLVrZAt5QuC8kFRK3ybDw6nklu65a3H4prB6pmYYjl3+GFNOkJM2fsbSd/TCtI7xkQExnbk2tsc2aAupca1k/ZAXbU6GwkJYGQrTu7UgboKIp59+etj7bPvGN74x6J8+2+gZG5P1QJ7US9dlatgNXZf9uJaFwvrIlmWTZFCDE/amb7NgmoyQGpmtYEH2SA4SZ/x76RLopGajDgCOW8vUEJF+IwxLm2MUQAqoADdSUTeZGyC7VESnSEKIE/KUDVmyHmct6gbuFvKuESh3h8miuMU/hGiubfpjXQYHI+K1iao5Ts/MSf+nzhdtizythbivhcw5I4taZais+Th07VqrjIwZAotcGht3wNAVGRBEB6FZ07fWay0dt5XUyBy5ocJaEAQ+mykopEOmkm6m0Dm3gJNrbMGebYWgsDtEhsyRgFpkNY2P9YRI4KnWFtVrtn5my8aw4oTPZJRniOmbYIf9j3HB/7Kj5xjn1j714y4ngU5qNsr+VknNRjFd/HCRufUIsjNLBaBaYGy+HnAuFURNNCjNXTdkB6Aune86HEsc0NJ1HtbfLkFqyIpsEUbRPpKAWIncTTcik+coW0lNFsKaPjO1NN7cAeTOnhSkBglC3ixKr5vMDmffUpCnayM1Le3ux3QJtEqgk5pWSf2/4zqp2SiwfvjNSOBSpIaAkUpZDFlUDh+hqZmOUw/CVlIjkyJb4m4mi5nHG/Jcp8zUL8tiM41UN89wMjXTUmSyyAbB7qVL4D5KoJOajaMqGk+KuAPDRuH1w++1BJAaCz5Ni1isKnNy6umnKlBTLzJusiBrGbp63h6frf1wV57prlMUBM20KyI03nwvi9hSyMU0juxWL10C91ECm0kN4LA4r87r3tpnd1QAbMB9a33v/f3/63u6LN4rC3eTeWCah8lZO+QR9hbC3oKcTB+ZIjIVdAv97X18r+53eRwvD4vb98iubiY15nlFJZ4PcoubW3/dAeOJuhaI3qIMep9vU/fXxt1CXbfhe0aPB8y99NJLw0LqtfPuw+/u8vN0bX2/D/3pfeg2fm4d8MRoz/s6tmwmNVKXVpuLwG5x83hzT7b0qH1Pxr1FGfQ+36bur427LIWnOFuIagGsJ+N6CNzaeffhdwuTPXfGbeT3oT/3uQ/udITjLX1sPa6lrms65hr7Za1X7nY7hthsJjXHXOy+nOvOBPPne6TK7otMWvphkbXpy6Vbn61Zcpuu42yHzv2rZ+1a2uxa1oK4K2np7qX0z/HWL1hPZfzHt846zgJP5N9xdfOdNo2LOmyRi3rdIj5es6V97ubxu99a+td6LRlY9WtH6rfXJn3WJ9fzeU5OWVMj6AFQpmPOuaZm3Ndz/i97bQrqVGtqztmXc1+r6rUF32w+ujhlX+P2eQWJdUXsS6Gz1g6xkWx0mQ6r2yJs38/pcerIU8tjl+PrHvL/ln611K8+/SInfR631f9+ixz138MOPVqjpThe/eN6Kw6RJZxz3JJMW663xzGd1GyUosG9xefUUFZGwyAYu33d/OYYRkDBHZPjOEO/+d6t0M5LIU9ABnQ4TMaHYDhu7Zk0rgXI1Kdu10mbGJp5bntF+zjutMnxMfC8bTuGn7aN9/rg9m9PCHY3yv/8z/8Mba0G7xgPfhOVeadN3bw+gcMfF47fczoCyh685oF+7uZJify8X821PVuHjPSpXj/Hz+2thwNouZZnyniqsgcL6r/fRbKuYY2M4yxM9cwQt027TR54TZVL3v001Z5zfkde0vXk2cs2CbBDuuWt22yeTrNXuuilpYpjYr+xYfrKLryF3OsSPNtGobMes8BGsslMuNMMHvzjP/7jME7qhBm+q3gFi+CDMfWgTfi0VNTjmrAnbctnbYZrKWwn9q7tW0qwMhjnmup25xz88BR3v1U8cAx7J0tFvzx93ZrQFMfrc+q1JxOygXdkGRx1jnbTc+NFRjZPyLYmpvY19Z97/9CRGopsYMK8tyrGsQKmALdIaigrwHFLqYfacboeBmbv9lKgZGzcfULJHWPjMBmA8wGUZ23kmRrGDghw3h6R7gFaDAoAOc4rBUTAc88aEZ0BLW1yjttVRcv+92h4zythkK6jfe5aS9s93VeqU5TnFmBPYZ1z1nQGcAE3bfdUVnWbhkQyAJffFfrhcfReo/DhD3/4Pdtv//ZvD/0a6yD5kRPwAeY/+9nPhvbYp/geiAAjj7y3efCfd3Cxhdbi7eL6CwTVCeBMmSBoxsI7eLz2wV1M1ocYT7LyMDvrRsx7O26qdFLTSc2UXix9l0BE5ts6rNgB22aviCL7ZasWoAdX6DB7gTmCBcclYHD3m2AiduLdUF4Y6j1vCLppQvjAZgUg//mf//mgXnhmWYHACrnXpjn8Sb/YCGLlXO2Di3DIZ/ZUH8wJb/RRe9lt3djjUoGNAir1I3H6DXu8jV2d3/3ud4dAh0xSECjt4LMU14PPZJKCsMBfdajb5uGPZCPj6iGjPqfAOA+I9HR0OGizfs53lfzk+HPvHxpSQ7EpofSulwp6hHaAmJDPVW6V1DAUGQQOkINjFB5ZzuitoaD8SAEwihN0l9h3vvOd4UFoiKhICdAEfHyH4RtPhgkUEB8ExXHqXiI13q/knVOMi9EiM9qEoHD21j15focx0z7Gqu2M0CPZtQPIuO7SCy3pFsKFECBbnL1oz+Z/Rg8sXcemL17RAETVm831vcywFnoNoAAKAgZcvHXYyzDrsdpJ5khIUvSAUZapdXGda1njoh3GAkHxok1yUm9IjcfvmzryhnSRmjb927/929AnzkJbpspepIYM2folN7LaUjgK49EzNVukdjdkNAUJbMkTqO3pmOwDUgNbjAWiwkbYr42OIh2ctD2HGlypLYBbppuseRIEwBSvWoEP9CuBmjVgNrjjDj5ZXtgEW9ZIjYBJEID0WywP87yjymfYIrtJpxXERPtfffXVISgSGNlkhNhjjqt9yGcyYZPICzm9/fbbgy3CT9dxXf2ppEbwggDCCXKEuTAVbqZoE1l7Ard3+qkXzqsLbnpx8ZjUGAtt1g546J149F9dly5XT2oMhBSaKFzkjmUDZcrOcVAI0TrwpaSnLpTuFjM15Eq+iIsohvw5b+uLgEZkb7xkZRgPkAFUjJvz9J4aL8AEAooIh8ExSLfHexqs7ISHiRnrFlLjDjSZHpGcqAhwASERCvKSh5JpNwAU2TBqRARwcdDawIgrGIz1iMNP1CLj8qEPfejuox/96NBGERNj1ncb0PJGbuDzzjvvPNiAHnmlOFYbLKhFAE3xaC9wQSoqqdE2x5KLOt2BJyPku7UIL9czXaVdzpMqZlMIYOROFp44C9QBuswQAoVkinQ/85nPDMRxDrj2IDX0iD0jcF6Ieq7NWHEK3lfGSZDrUuYuMs2+k5pIYtues5TlkNkwBgIBeimIYCtwRqEX/AD7tcF+erJEapwDF9QPS9j8xz72sbvf+73fG6Zb/Q7P6bOpVuRI0CwbCqNMIbO3NVJDV5AN7YGNghR1yNBoX52ScU2BmzbVhcP0J1nlOQmSFd8H51zzL//yL4dpJaRQNmZMarRbQMK+ydf0lPa4ViU1cAi+0HfkUOCTIK2SGsfJrMEJL1X9tV/7tbsPfOADw/b+979/eC8Z/GjFo7l+Hvv91ZIag0940vuc5w9/+MPB8WRNBidjkBEMimdgDZZMAeGfqtwqqdFvJATgIBLWYMgQSNVi+QwGgET2gIJBARLHMUL/ywr4rKgPoQEC0sGM8rXXXhvuoNlCahAi12PswAWImEP2nBSEQ6TE6N99992BDHDsnCYyRscABfKlb4Agfag6pP/6SBc5fKDnuoiTtseQkWuy0RZyAczZpM9lFyMn58v0IA3kIOVLNsBVdgfBYwd0HeAhPH4DHI5VF+KIoDhmqt36QB7aCNiTJnc+AHdtjkNdnAVgRqhEaTYykp4XPHhLtH651lTZg9TIBiIV+umzNp5jcy2OzTQIvUFu6AwdbSmd1LRI6ReP4UwRZwSaLdBDWRlZWMGBYIPtIQIymMg8Ui/bYrzYK12pmRqOF6EwVSOjzzcgSb7jTxBlzpptKWxWFpbjp/MyEPwM0uF6bN20inZMFX6IzbAPdXuswec///nhMxxjn86FNfph7U/sq+59ry1z15GpEYDFdr3Ik55+8YtfHLJYY1LjvXd0WJYKvsBqbSBr+DcucM0jS/QFbsKNSmrIGl4IUL1Y9fHHH7977LHHhu1zn/vc3ZNPPjkQLXK/ZLlKUoPtEh7WjlFKaxl8hAWbBN42BhFFkbIUpTuHMmKapygU7hYzNeRuioLzBzxZxCe9SfaIjt/JB8FgOByE44CH8xl/nX7iMBAKqUwgBtQ4bIbYSmqkjBmeayINDJgxIlJuL+agtE8KFUAiLkAGGZAJ0Wb6BSRFV4AgYDfWH6CDbBh/QCpdzNkDQP1TpLXpoO+nNgCL9JCTDBadJUOAiwSpX3sQDaQG4CNT7OBrX/va3aOPPjpEmqJNmRNAKhJDWubAEOFyLcfpX9YruBZnAMg4CP1mN8YAsNu0hcOWPfMZERPtTZVjSA17Fom7hlQ5Iso5nXMD2nSSnlrnRAfttWGtdFKzJqH53+m44ICzZFewg70iCDKJ9BKhNy3C1hADWU16SOfHpAYpQlI8S4wOwxj+hF9A0H2P3MTO+RA2Da/ggtkA55tG/4M/+INhCgpuxMbHPdF+pEkbEXBYqD/IEKxJoASnTONmqg3e1Q3+yDrPXYdeIjXskxwQLnZvigxmVlIDdz1iAUbBF+2SgRFYkkXN1OgPGagDBsEeU/nOq6SGvARkAix1wV79sRknRAjxgsWXLFdFajgiCsoxcQgAl9MBcAjMVCTqO4ptUAw08AXgWD5mKvrcs7jWHqRGu0W8nGCi/KV26od1EBbHXaLoN8Cn0KIWsmZgDBmIiOj9bmNMploQUeelAKNKaoASQ0ACGBJQYRR0oHVNDT1BFBgvZ2hOmCNCkmRmkqkxvQNoRGMMVts5UGPpO4CiTwBqSs/0wZSaiJ5eJooEwOSRc0RaSJSMEQJYN0ANNJKpIQ/gqk66gNgYXxETAlYzNUDJd9ba/NVf/dWwidSANh2i/2lD5J09MHItAEUuQKdeK5kaxxsT1wW8Nm02Haa/wMv5ZDRVjiE1iINpQeCorez9UoW8yAd+GEdEbq3sRWroEruBhWuFjDgeejs39mt1rP2O5HKm7PpUhb4hAjKayATHi2Qj3XTTeCAVFqPGfjlVG/sWFI0zNY53Pl9Cd+mVjW/4+te/PoypemGqa1pjh0Qh+LI76mPHiAPbW8rUkAv5wzrHwT8Z6pCujA0bhZ/ajDDBzrr5bSlTo63aL9sNz0zXOV5mc0xq6JDgCdnSzyzhoNPkW0kNPED2ZIDgLwwS8NGrSmrST0GjesiXbJEbU2HGr2LhqfRlrd6LkxoCB/LS3gaKQnFuAA7bxHJbC2EzPk5C1E7YHKZBrFme1vqmjttKaoAjhWFQlIBj8pkhMVxOKcyW8gMqAI/oZNMv4KVPDOLcRZtEHAAmGzIhE2KRmO9MIYlMsqDPugzrWtIHe+QU+bBXjD3wNiVCRoDI+CE1LZkaWQfGJRJzjowGcAR2IhgRF6AwZoDTcYxfW53H8F0TwTEuc44046IPgInhOw8gaS8nL7pyHZtUL6KlXgTL5jOANX1VC0KCXKkzsgJe2kvmKUCJzkgbAySbxYjAV2azpZAJgiLKzbV8FjjYK/oCzBC/8YZQGT/ANVUOJTX0gPNEoshjjjRNXfNU3xlH4E5nYAjnsVS2kJroE/sQdcMpWQQ4wM457rqeilONjsIQgRtnRScQYG3U3hT1G096GHute8ebIoArKcZAf+lClb/xQPzZyikKwigYscCa/uirKVhBEiep3foDR32O/bJh23//93//AqnRThhDjshK3UxdmR6SEdFndseZw2QO2mc4wrbVvbZQWDBCZpEv/BFMmUY3rr43xvyPIjiFdYKb2GD2c/gTuRtTuojU0Ad4oD5EZ0xqtIs+1TqNK7nSmTr95LjgjbaQi/NtY1KjLX4nL+2IbC3c9h18vHS5GKkJAeHYAbOBYWwiX4a9hcyMhWggAT1D4VAogvoxb4NqcBnKIQV4bMnUcHociSwBJRcJcEicnr6bHglgqpsBMARO1kY2onlOlJEy9HMXYwWAGWI2gKJtHJ/vAC0CwSgYuSiCE08/7IGGqCqkRj/Urf/Gy7miGw4CuXVHgc9zuoD8IVHIr/Odq530B1gxOuBkrBkuEuQ3G5B0bUZI74zRXNrXMfRSH4wNEpItY4Vw6geDp2sIOjkASJvPGfs6fpyXzIv+RlaAEWBxMinaL5uE7NEjAGLqCvByBi36zIEA9UzFuZ5r0Wd2oWi/a0VOdS97JgqdA65DSI12kxvHRjfUXR10+n+JPb0jM3rMVpfKFlJDzwRxxk9m0S301kawb06V7iA5KWxNxo+ewjJ6YArBmHFm2mfcUsiUHcA+MqVLbFQ9jochsLGeo010UV2cWYp+0XEZulMUBAZhYrvajaghzTBCu+moon2+q/roc6ZL2VbW6jletk/A9dRTT71nM53EAXPW+u9aAivysqkPDmmHAJLzn8Mf13E++w4uajPCARsjd2MtcFeQEEE74hN7t/cdjFjSfXUITGRgtJW9uT59cU2BpOmzSmSGi5Y/wVf+KMXx7G4K//ge2ATbU8gNNssUR76mwuEYPVnqQ+o45f7spEaHKScDEklInRkQTFH0QaFaALpFKJwWpweYKBkiwbGK6kXDphO2Fu3fQmooDIXnPERHlIRDovDWaFgAzYkolIWyUVJkwXU4EcbKOZMT53nuYjwQCEaVjSPK5jtGkQhPVCITwlHpQ91k4Jw3VxgWsKIP7tI5NHKnY6YOgNtSATJkygHMgYFjjFvtx/hzIm36YZwstgO0Ptt8Riboey0AFZF1/VonEgW0UuiINTGm9ThDsglpBGRTgJRzswfYFvqOr2WNVL1Wjh/vOVUATR5T5RBSwwZdHxE07tXRTl3jnN/Re4QZESC3pbKF1NAz+q3PnAPybbpCBG/TaZUfAAAgAElEQVRago6IplPgBf1B1OEmjEBufSdAoudjR8JetRkZQ+bZqHPVL0DitIOz9sYBoUIE9DnjQA8ReI77FEU7yCNtyTVghAw7nFwr+ghjTZOlJOMrszXe6D98GF8z59rDMmMEi/mkuUJOZBdctK+46H+2yxcpxoUsZZP1LTZvrNYIgWs5v+IU+bFLYyerREdyrak2Ox6mwo6WwvcgXQl6nEPXZGzpX2SL+GYMluTacs1jjzkbqQG6SIu0n4hExEFYCAawnVLsYzuX8ykDJQc8BoJDsHdtKf4lpU0d2W8lNc6TIaJ4oiMArv9IFSO0+A1Dx7zJwK2KmDgGToHJTfulHikQZUSG/HathVLrizaOt5ZxJmPnIRLAZ8lI52QgInF+jTqnjnUdQECmY8eQ4/VHG8Z9qf+nX44FBIhKACt75EmkVcucrNRX2+NabEddwCMbMKRHjl8rrdeaqwd5Qjy0ZapsJTXazA5kydhiCzGbuu4pv+OgTI/KRC5F7FtIDV1CLIwhZwCLEBpYxM45UuQxBanhiAVozoMRFrsiuPADWa66kvMEFRwnG4IncIj+1AygY+ELci0iR5j1hf0opyY1aet4j1QISARza4VfkUmowVJslk6Nt7FtTdVvjNTLXg/Bn6k68x15a1PFD/8fch19kemCYfwIGUzpQq7tePogU9VS2LQpwYqjka26xrLVt0uXk5ManTY1QOBxygxHau9Qh3WM0ACDbAEgAR4IBqKBVFAqA7ZUKAxgcH4yLHPHq8vxAEt6MU6JHES7gPzZZ58dCJ6ogJJL4UkZkxdGbcPsRSMiOAvXZG+AVC9dAtckgS2khl0IZmIbMOIaC5vkMEzZ1Gh13NYtpEZkL/sDe2Q0EWCZZKSXI5dRRvSsUSMnwR/MhBdIiqkLGR4Lt60b85vjUuCOIA5pktWBV+q2fs+aLviHnDrHsbBEphGpgS3wSTs4LceeMlOTNvd9l8BeEjgpqUESGAcDFlUwQGRGRHJpRgeAZUREQQDCtBTwWsvaAIJWUqMuGQBZKXPiptsAkEW2IjERlkVrPpMJEMmcOWDzu80aCvPh2uh/zHmtnXspSK+nS6BVAltIjUwA+0PUT7Veo7XdS8dx+rIYHP1SdLuV1CA0iIY6BTsyMQgL4uQ2X89kEQjBBKl+UwswxG/2sjAySKawZJ7HpAbuIDDu6MnCcut33nrrrWEa07nqRrAETDBQhlFf1QezfU6/TjX9tCT7/luXwCESOCmp4XhlIBiMxW2iMsDHkIDFpYprS2+KFEUiIhTz2lL5c4sg09YtpEZdgMm6GRkWd49YLW5xsHlwJMf3WaOgXeSDXEnLIzo2URXwM4UFCC9ZpOCB4dL4IazkW4H22Da7pqj50mT42H4sna9/MptLsl06/9S/seelsW8lNfTCFIh1Y7KS+n3NRUZZ8CNrOlfi/E0xrxU2hEAgJJ6y7WnNyJ2pJ9MoAh9BjOkPsoIPSIjrm2q0Zs1YWB8h0yPjPLYLpFGwlHPUDT/U7XuZHHVbP+OhjDAqgZL1Hp78jWw59tozNbeADVWnjLWxWsNXOBJMqeevfYbdWf6wduw1/n5SUhOhij4AmMVtohFTK4xqb8fXImCDbPGW275FO8gFozUv2aIoFKk1U+NYACZqAnYW7AEbpM7e98hUJVLap23aWAtyA+ikqi9RjKXxElUDVVk4YEL5td9UXEBR20V2QDfF50zvcdz66X97m+Ia6jR/q06bz47LvHmd23WO39IGv2njKYrrGDfXsFe0t/brmOsCKvrA2bvWUvE7vRo7svE50b/Isu71g9z1QYnsx/JzDddSF4eKYPt/qrSSGu1nb6ZcLOJX9zUXpMZ0ECc/V1pJDTmbVrJgF47ARHekuZHAHU2+h0nIRC2+c40EQH6jh7I4MrlTumDaylog9mjaXdAmKNKfFLZsak1GPbrAjuG0wOphIDVwVSBY19Skf+O9PtLfamO+o/dj+4idj+to/V+9wYecM3Ut1+UPpgobNeYV24ynbD3cWypwllwQWtdtKWzROibZu/Haq6m2kxHd8xu9CZa3XOtUx5yU1NRGUyLrVoCD9KmpFKvxkZul6K/WcczngDNlELGY3kFm/G/wW4tBbyU1qROwyNhwWimUgBOwwr86f/KQLpaZqWBPkZEdzxC5RCEjUZ/UNOcGBBgM8AOq0unabCzJVPQnfZ1i2hH4+N1iR8AOXEWsNsUYiRwtnpQ6NxVn7RLgBfZAOjIkG0YEjK0d0AbnucMMCIxBXvsZIPDI5v+xE097szdODNV13GGgXRyDMVOndQ7aXEEy54736nJOrm8fwuAa1khwPNoUfa3H+qzN5GYB5xqIq9sUD9mMN5kHY5B22ws+OLF6TWTSegugCujcyeW8sXz1tZXUOFY/kATju9aPsRzP/T95m35CwOZKK6mht2yBHmV62Z1PPsuimF7yZFj11WI9DAIju5zxMSaCJbpArxT1R89ld5AlC7zVRwccGz3KOfU648/nWFPDLuh8+pX2VQepX45x7LiQJyzXTyXYUOtLwKVOd5bBJscpfnNTAd9EXjafzSy0FLZQ2++zAuvgg/ViuRbcyLKH2CTd4iPSxnpNBMPUpABAQOla/IBnOgl0U3J99cc24SBclg3N9XP8eO8c55IZe4e12un/ilGC1bQbXgmy2T25ap9gZe1a42vv/f/ZSE0aTnjIDWKQR0RzRFjnqYQBsDlgQOJZGwaa8A3W1qKNh5AaRsd5A5JslF599jFWpMazEQA+Jc+x9vpBfqeS05IsKLc0t+wW0MTikQibdDWj00dEFamxBqBGhNYIyNAxNEaK5LmzwBSc+XtF34C2/93V4dkd6kboxqTGcX5Dnhigz87jIEzvGW9yTb2AT1TsyZfZrPPSbtedK/QSiZGO/+QnP3n3vve9b3hVgWuRiUe76/MUII3rBBqIQR5YZY+4AT3jC0xdS13aDzQcY2rg3XffHdqtv2SB+IrAlgqgA4BkUzcZPy/RREhjA66JYHuPjOuRkWt7DYM7bYy3NpomAfZT/d1CaoIDdMFdOZfQ6SXZ5TftglcJgPL9eN9Kasbn1f+NhZsW6BRCUotHBFgPY7q66o8bCxAe19dWAQA9d4zpbu/n8UZo2x/90R/dvfHGG8NvsJfDXStIDeJ5ynVP9BTJzvS8tsNAjh7m6Rd7F4yGMNR26wc7DqnxDCoYTY/VJRtO/+EBeyYzJCZ2zyHDLM4faVeXxyeQd3C5Xq9+9rvsJRm5nnWj/It2s3dZOEQg2G1cBfTwIzbpMxLFHtMm9WovUoM4sBMENuRBYkCgpbBL7XZXHHIsOHE+rCUz9r5mX7JysoHkpR4bDCAruMS2XUdQnXZbtmHM+DUEW7/MyOjrJcvZSY3OEjABGRSsEOuUAcAMCWdtAFoEZlAZADCmpBwdgRsAUyWUxzFbi7ZtJTX6yCl5yiRnXTfOHtlKn7VNWz2ttx6Xz5SZAp6zAFuEBHiK3MkOyDECe2MJ+IECA5oiNR7G5/HkHOSXv/zlIVPG2B1vXFLIAbFj5AgTw/Q/MiVCyC2eMjaMjbNxjDYYbwZNziGF6jXO1ip4UJ1sC+Igu+P2eOOyZITqVacsFSLmeOsYEAqkxliJoBG4kKj0Zbx3HeCMxNu0A+ipy2/6l0wNPUC8AbasoutyeHn4lsXmNVIbXyv9Nlb6UDfA7lrqDjmx9z/y5g4YbbMhXRwpOzI2xpY9IXLjsoXUOBdAy9qxfVmQQ+xx3Ia9/ycreoo0IPNzZQ9So/8cpMjdWNfie2Mf3al77aN/zmerMqb196nP7JYtrxWYzEZl505V6DonKsChB3QLtrBvOkKH2a9Fz2xuXMakRkDgXEEY8kJufA39JR/BjO/UqyAf8ODll18e3j7tjlQvbLTeyW9Lein7zEZeeeWVof3IxWc/+9mBhGgrUoCMsG9bAjrjiXwJaNgWTEFcHaPACXgrsJO5g58+W5vK/vymTzCPP/LwO/31QDz+FHbALXJAmuJfhson/sBQ5yBd2uiuOfXQQ5jrOuRAHtqtfTJe/BFCh0h7jQUSlT5MXOYsX12E1KRnOk/JOEQOx6AaGNEsoR1SDB4jEaFyloyFEgBPhAm4Lynp2jXVv5XUUBgKRjkYZ91M5QCXtIlMKHw9pn5mAGR2zsI4OW5KnmvrC4MRtQNRxI3Tl0VgxCKtOv3EeTNc54nKkBFgbGxERUgKOTEaICyS5Lj97rpAw54sFMcjg4hP2gSkyM6LH9URh+17gAkckEiRMEfts2svGaFx8bt5b2seHA/oERhy0S/gJ0NEZzOOU+PjN23RLhvAAAZ0X3tlYYCr3+gZwPO/iEmGxEa3yddD0pZIjfYBH2OTjSMjc9McQFH2ChFRtItDAZyitWSzyMmx2qIYUxEZfRiXraSGPGThEDm6gzQsyW98vXP8nzFg80tt24PU6A8nTo7IVC100G/RnbqP43e8Ntbj8tk+n53r85Le59p0XFARG8v3e+7hMp2jA4IRAZSMA/vWTrrJ7reQGllOxEh99JqtwFm2CwfYhHplttge8vGrv/qrw/bBD37wzvbII48MGdEEclN9RqBkiuEU26QvuXayQgIBsjY2bBJJFKTKBMEPAay+akt0TL9NawumZGrggJtu+Er+ka+EdWzGubABwYLHZEeWMinueJM5WiM1cBemCkwRJ8Ra5kiAw0cF7wSXAlPZL4EW3IP9jjOGzm/RqylZ7vXdRUlNOkG54vg5RXcFiNTN/xro1sLxYPkcHWFzZMgMkDiWzKQNh5AaiqqPBntq81stS8fGOOrxp/4cUoOVA0QFc2dwZM1JIjhYPsNmbJxAXSsh0hCRMwopWoaPeMoYMDxjxekaf8xftICUMl4AxDBdAylSOFfHcLjqZPgyC9rDuIBgMidkBnj85nwEM9saEXEt/QeG0q6uA5SQg5AaCy2BJiBqLY51V6A2k4V+AjfXIGM6izjQY7bgs6lT1wdqa5kaTkg0CtiyIfhvvvnmAKRIJ3nKXAJagEneIU+iT3YoyHB9dQFQ8kJqTBmNy1ZS43y6DowRXVMdiQjHdV/if/oj3U5OpuaWyl6kBlbAmDi3pWue47dztIdDhQPwReYT6ZBN4aDZLh1hz4IQ+pEC0+E7+0cqMv0kk81uOF9ZTriDwAsiOHwZBdilXhhE91zPdesGs9gM/JmzbQ4fNrFLhY0g6a4zJjUwR2DEpmRE2aKMiNdk+E5/k7Uld7YGH+CrYAo2wBk4CeNcl92yWTJwbXaqLtgI78hM9mSJ1DhPNse75LTJtcjTdd2ZJ/MNl+G5cRLE+U2mW+abbOGFc+G4MbtkuQpSEwEQPGIiDSaqJ0DOCBME0lOG7juESJqRQCmoAaaIHN/eAj6E1KR/D+t+itToi+8tLAUaMiuMizFg+cbCuKQYE2ODsHCWUsYMmGEyQhGIdCrGz7iRWc7WMcaeU6ELITVARlRknEUxriv1qz0AEFBGX+gAxwSgtMGxNobMGS0ZvHoQZddAZOgUIwaa2hVCEwKV/s7ttUnb1YHMIID6rV8iJPUhNaYTEClA7Zr+J1MZLm1GcJYyNQCbLQHdbIgmIoV8+g7IIqFIBdKkbpt2AXdjChh9RwbGc29SQ06ck34CSv3U9mso7hjirIy1qHmp7EVqlq5xX38z3nQwWQ8ZFvIkf/bid1kEZKTaL7207oYds+eQGvUg4vCCnrMt2R+kGYmXHYEb6pUlcjwiIlCwFtBG93M+O5rDCOfCL7ZLd9kUwkGXx6RGH9i3tiEENj5O0AEzYSHfFyyRQWJ/MI1/g2+wEQ7JNruuLK9MjT45FwbL/sJRQYq2rJEaGIAEIZXImHqtlUEwBY02QQzygxhqN9loGxyHQ2TMThCvvX3uVr2/KlKTxhtUUR8WDVQIz0bRpasJLQoptQjs/Y41GnxOIBmF1LnX/lZJDaU2/TOWK9AgdwYJWAANw+A8jWEKgzdGIglGIKXtd2SHs1UQCOPHyGUD6sbARF0IC6DTDk4W8InMGLSoDTj6HuGiI3QJuCDGDJGBSpsyfCAhckJO5orf1Os47WTwoqsXXnhhcP6A0PUDRHP1aLM2ISpACODoSyJA5wM4kZm+uS4w9b1z6T2wB+IAmYwA6JaCmAAeJKoWcpdilxklE/VLx2uj8TVexgr54NyBMjAdF8eQjekxaX8giayuFf1LhIs86rfvLlnIn7yMt7FfG99Oag4bLbrOPtmsDR5w8HTI//SCjdAt5MXvpkVsbIUNcfSV1AiEBE4W7sIQ+gqXYIRr0VHZDvigqL8uFDZ1w3FbjL9WMn0qI2JKmM7LZNAdbWdHmX5CHtgTAqFu7ZAhQqLYvt/qmlJ2JyssyBCUISd8os1UtWvAO+THNWGuheDkBJPUB2v8P0fK9I9uq4dN64ObCLyo0tpH5AlmkDN5wVsYIdOr7cgfWbsOGbhWJzULWgNEResGEZPmFA2s1KENK6SsnA0Q5ThrenKh6oN/ukVSw+khBaIRKchqINKfAADhCas3vYTpA6IUToLRmTqxLkiGgtFZbIbIKOplNBy3SKNuMhOcuohAe5ADJCURgwyQzf9A0dwuwAFwHCXnZIrHWhEAYH4eADFI4DBXGLLr0TdRkHrUB2zonRQ3ohZygrgAswBm6k2qHICRlajNdyk+A66QmnxPJmROToCP/iMfgJysthRjhXCOSY06tJ8N6R+5cQYChtoPn2XMkB0R6rgcSmrUo5+AFWCSNRleosAPQRF9Jyv61CLnTmoOGy1jLSBis7as1RDA+J+NwQmO1zjA+Gx8A7sZLxRGijl6/gGGsCm4g1QgSpxxJTV0zcyA6aasdTHtYh0f21si2Bw4om96BlmBDWwEDsANeBNSw37gFuwQrMM5m89synkVW9kknEA22Duip07+EBbDUW1D1Jyb6/uevLSBPblerXdupGRr3e3oDsgnn3xy2LzRHG7L0Cr66/rklZsukhWSCe9rauakW743aAaIonIemDomTeENIiUhcMq9pHylyqM+Ug6GxoEyklso5M+JYewIQM3WGIPcyshZZ+MMAEgKUiM64TQRUWMougI8UsIpjIYxjjfAxNEyco4HUCC60rlTGwMV9QAcDorh5XhRHvDxP1BR11qRveDkjDsg5vCls93RVWUize1Y166FDGUtXBM4VbLgOABmXlo7Q8zpmoyW69B7kWacJxBjE1sKYOcspkiNMSUnkRlyI/vJWWir47UP6ZD+lw5PG+v1jyE16iET8tM3xOrcBX7oI90xpSrCd9dPi0PIuJBXL+0SYPscdmyYbdJ19uk7WTIB0FLh9GFKpp+MF32tGBLMQgAQJ74kNug7OPT8888Pdw+59Z0zt0aELaxlHlxP/a6HILm2goDARjqhDhsyABvZIhyx+YzU0Le0Kf11jnrUmyDI9NP4RgHXdAy7jL7CXzi7lqnJtcj+W9/61nCzgMA0G5sPsWcj6WuVL4IpKCPHNXnleqfaX+X001xnCRRz5kQAvTUVlOAcZCZtojC3Rmr0nbEAmvF0jbUhMijSj8mWICvIAmNMoeiMF4AhKNkyJ5vj5vaMX0QjClGMubGf24yTY2w+1+P8X7/zea3IECHSiA2gsAEnU1nANICj78BBNDkuaYv9uCA9CI0sTECRzPSXrBAa7QQoxoA8gPGWgryJ2mQixkX71SmKNY6chE1/jBGAFN1yIEjOlMyOJTXaZC2VVHfVnXFbT/m/6yNWCJ4sXytAd1Jz2KhUO4yN1u98nrKXejV6C29M16wVeiU4Ys+up9B9U8zsjA1mgzdzD5pcu47f2SpcFBC6lr7QbfWzq+CIPbtEfhyzVmSuZLem7Liei+QIEGB0S73W2iHzstfBchhg6cFaAM8/IGwyypFrbcs5Pz9UpOacgpm7FuW4RVJDUUVMDKkCvf+BCmXOJpKvUzJzstzyvUhB1kV0cInCqEWV+pZ+2iPXMiYBDWlo38mwbCnOJ18RT+oicxkLILZHERAgJLJm4+KaHDriWfvns3Szc6zhcUwd/1rPHqSm1vcwfe6k5nKjBRusCWsh+XQXsWDPa2Tp2B6xX+RJQJBr+Y4N0pfYmc9bngOkPoR7jfjrq8yjACvXX+qTJAEsrxgXLG+5ljEwa9JyraV2HPtbJzUbJWjAZCwwWMrVS5dAlQAyg+TIvNxaCamREQKOrQuF74OcEFnRd59+ug+j2fvwMEtgM6nBNEXLIshb3SzWtCJd5uBWZdD7fbv6Pzf20uwWRpoeFuG5Q0N2a+74+/S96Q8LuWW67lO/el+6nZ9LByQJ9ggGN5MaKT6Lcy0IusXNgi7AbaW8udBblEHv823q/tq4W2P04osvDouR3Z1hEXUWD66du/V3C9TH29Y69jze3XnuqLPmas96e13d1m5FB0zHmQI7tmwmNeYiLaKz2OoWN9GYB5N5IqQ7eW5RBr3Pt6n7a+PugWPePSNDY8ExguM2/7XzjvndosZjzt/rXM8jcTusvu9VZ6+n29kt6YBbxK3LObZsJjXHXvA+nG/1utXnVpf30iXQJfBzCVhT46Fc7tSyUByhMUV7qiJr7DbYcyz6XOuDu9ZMS29Z8LlWZ/+9S6BLYLsEOqnZKDN3ieTup75QeKPw+uH3WgJZKGyxrOd7nHKhsAX7rufpp57/Y63fJYs7WPpC4UuOQL92l8DPJdBJzUZNqKRGhNhLl0CXwM8lcE5S44pu5fVE52shNe6I7Hc/dWvoErisBDqp2Sj/Tmo2Cqwf3iQBUzaeZFsfCtZ04hUddAlS89Zbb3VSc0U6sFdTPMzN81w8U+ZhL57t5G3v7iLq5fQSODmpkSaWGvbUxmvdtqSub5nULI1jlaEV7KboLKq2efy/2309w8Utr4w8ZVynW/rojAdHSennPSY53oPgPMK/LqDz6oGWB2/Va6nfdYCn2449ejx9MMZIhjvd0gd7Txz1MCvnKY53vicI66Mnauq7B9Wpzysd1DVX1BObcLz6tUWd5OBcTxdWj/6mLdrlWTjO90oGwO/ppZcu5yI1GUcP+vIoe0+SJTPfZ2zOLQu62jM126XODmMD2RtHBADJd4eb4ji25Qm5xjrHWljqlSVTT/Bea40H2HkVA9vyzqK5LJuxdYx3v9XNuwi9t67auHaxV9OvuT0ZZllv5anFCh3Vx9i4c+CcZx15CzYy57u14rqRQ/bBTzgCw4KLZEeeFTd9tibNA1S1Z0sxBmTnFQrq8Vyq8RpTbfFiTdhY5ZbP+jp+ncyWNswde3JSY92Jx457lL5nu1zTRthuOfV4aEbTUihS1tTc0vQTBfWYfArs/UEU0yO1jSsZApYYoifX5qWLFP/73//+g8fOO0c2QuH8AYa7yOiFuq2A56BtFpp65gkDSrEQ07thrF+wOcYdJ4x2qTAeRu3lm64HZDwh1/cepuj9KPqoIAmIg+t4rUM23+kPcqZ9+uzuGy++8xI4L8r8l3/5l0Gf3N7s8eJLYOHawJT8yNQ7abw7i16SAwKlTaZXtMFj293eSZ7AQjvITb8CXksyOPVv5yA1nmwKQL37xluOH3300Tsv0rN+hy5dap1bJzWHaRf7Rg7iF+CDV3EIguAsO1JgC0fN1oIV8MJboj0+oOX9bWkhm2R7zskrC5AnRAR2Bcccj4Cw6S996UvDCx6/8IUv3GV7+eWXB3usNg7TPFVc23x2Hf3RL9dTn2lTty/DkzxxmI+EAfCUs197gi9cQObHfhVmCRrhlCApL6JEEtXrBhfytpGtF3cic3k1S2Q0t9d+WIMIkZ3HmsBhwSq80ucUn/nWz3zmMw9kFtnZI0SHkNHUP7c/OanhbCgMAALK17QZeAprcFsH9VZJDdIHaDjbV199dWD4HDBH7D0hjDOkwMMZpVs5fYb07W9/e3DKIhjP88iL5wAIo/AdAiAKS4SDyNAZRlENxXuIfO/FazbAoj1LoGbMAAvnhwQxJs8aQh4YPYLju4CZdgMlZEEk5n97+uJ7xutYfUY2fvrTnw4v6wQwsjayJ8gOowcCc0VkIzrz3hck0csk3T0kE+Utw0gLuQNBdZKN/n/zm98cSCPQdxsxcLyUM699Owep4ST0++Mf//jdI488cveBD3zg7iMf+cjgcGTKLiWHTmqqJrR/hhPsnl9gSzBF9sDdc+yH81XgMxt4/PHHB3vzcl1EgR3/+Mc/Hmy09ap0xMMSkQjvbrMuyzOGEGVEoN5WzH692NE0J/xgn9lgCfuFL4pjYVqCFMRE337yk5/c/f3f//2AUb5zDsxk9zbBFZz0NmzHebfbOOsx7ht8hAfsv/pUdcviwhC4AKsU2Cxzo8/wyuMXyPCNN94YsDrYN77O+H/1CFj5zHfeeWeQC/lpNyyH7ZGHPnjv1BNPPPFAZpGdPdmcYkru5KQGExMJY3OJwK9lT7ljONrUUm6V1JANB8soOV8kAsGh3LInfosD9w4jzt9vjNebajF5GRCRVUgNhXaMKNsDHRmp30QaIhdAElLDmTFKb/r+rd/6rbsPfvCDDzb/AyTp5Kmibdrzz//8z0O7RRmIjGeLyIIAAC+rDCnzO5LF8GV1TPskIuK8RCr6CmgRG9kW/ZBF0X7vb0KYgK6Us7ZPFeeTo8gOIIiiABEChgC6DnkjVMj3f/zHfwzXkZkiF8TJs2Bc/1LOvPbrHKQGwQWq3qL8S7/0Sw+2l156aZB9xrC26xyfO6k5TMpskx3AX+RdACzbwC4EESE1xpVNeEYYe2TPHCM8YKOZ2mlpBZtiY871gMhnn332jv786Ec/ujOVXafH1QcbkAHXTJbDPlNWsMAmmPvZz342YJzj+T44JjuMrOkTwoHIsHXEDR6yefavPf/wD/8wZLXXSA07gJnaXP0pcsJHyTyTJSxLkWlHggSirmNDRhChYFqOndsbL1Pl8FAw+dxzzw3y8zBaWC/wjR9AvGDXD37wg/fILTKUcT0Fbp2F1CAOhHxthaZsbKMAABzISURBVDGJDsyF+9xSbpXUSLF65gijpcwcOMXmYIEQIpM0rHTm9773vcFYsXEb46LwDKmSGgDlWAbBsI0H8BKtPfPMMw9IDfIBcEQzr7/++pChkaWxSUmLuDiWqcIQAZN2AgtjKPuiLeay6WZIDbBg/LIBopjXXnttyDQBPcaJgIgu9ZXRajeyIfLTZpGeOXFA63j9mXpWi/PJEuFLhgbxR4acF+Ii06nfTz/99JDRktVyHcAiWLCmxFicAhymZLn03TlIjbGja0js+973voHUILj0Apm8VOmk5njJC1rYEifLLul3SA17EQTJVLJB9mbqxFuwBUN+oxutBcYgFgiG+ti7/9lkivrglu+RErZXN0ES34a8sD+vBqGXMrywRmAk46rN2hlSA2/0E07K/iAWsjlIGkzycNsWUqNuWapatNkmUBOU6Ztsje8QP1N1MEYQlg1+IHIhI7W+qc/GQh36qK+uYUpQ/xFGRV0yzX4nkyq3fCZXgW5rlmiqLVPfdVLzkJAaSsI5U6hLFJGS9C9l5ohlDhggQ0RuAEuUk7FyzIxaNGETsQAO6WJz4wogQiYoOadgA2iOtRdVJFMjrQsUOHhOXZbCZtoG8LmGdSZThdxMLyVzYsqJQXrq7ThT4zoiMPUCDFNd2gd8RFKM1zSHviJAojegkPlqpEbGyHEema+v6hwX5yNxSIkoB2iSmZSuaTUpXcCXaE9byNkGDBAroEaeprxuhdSQo8yX8fvN3/zNu1/+5V+++9jHPjak4C/1Bndt2ovULNm5wIvOicyDA/b0+2EubIGNsCvjyn4QZHjBtsnE2MIf2CDra5PJlXH12ffOa824I1DOZa+wg2NGNuBOCrla5AvzYnt1D0/UAZdgCrs0taMNprAQJjaO+MCqkBqZGcfKYsBQBEQ/D8nUwGI6YYMBsj8IG7yDGYIrskEeEAy4hOzUTf9gSav9kIvsE3xXN/m5XiVjSJTgQ7/Iqcotn2GsbE2IUOR+7L6TmjOQGkZL4RhuNmlIm+8ZbQrF8n09TkZAelD0Uud7cw6lAPQ5p+4tZm419NQ3taek2gU4ZCLsLVSz+b9GSoDAug+kwdRSNmlPWQmAomgn40aQGAdiAFxkN/QZYeIsGGyKSIpBAgBbshqigrkC+E2VIQwMCngBAwCENNTpJ2OlP64rfQuUbNopcmSEojfysDnfmiFtVY9zjUWyN3Vsa/ucayxlhdTP8GWDALXPiBI5cWTkZMpFJseGdFloSBZkCvxvidQg2EidqYNf+ZVfuXvqqacGWZLppcoWUsNeq40bXzpD5/2GnI+zTvTIVKeFtYiy8zmXZEDn9OxS8mi9LttmUwgNe5PFhVemoiqpkbFEDGR1ZU9N23DaAg7ZB1kT6zdab94ga9fljJ3LwbIpOJtCpuQMj9idjH5sMJ8FXcZOmwVIbBZ5ca7sh+/YqeBN32RgrJlxvgANKYKliNkWUpP2e/gkImZTL+xAouwFfzLS//u//zvIl7xkuQVQAq5spspgytrNFlUu+qVPsJv8jB9iFxvUf7IU7GpH5Ja9c5EsGLg3Ke+k5gykxmBz2lKmNgu7KJ49hedIFYqAaXPsOZYztmYld+QwsHGhOFgzxcp52VN2CnhM0S5GK3qa25CKkA9GbTqAMQGZbBbEiYyyeA2A6ytgErEwNkoPSBitLMmY1Jh2QR4Yig0QmGevc7njvmo/p0+WSfXKsCCJroWAMLKsx+AokAoGq03ZECJTaTWiMXYySkgHAwVkiA75i2Bi5OM25X/Aak7/E5/4xJB5sD7oU5/61ADeMl4KOdEfadxs5GW7tTU1kRunb+w//OEPD87NOF6ytJIausieOeDYaPYIizEXXSdjgNSyLU4esRYoiKzhBCfkXLq8pmeXlM3StU2JCArYJUIQG6ykxvkCk3yHyDuPvcE2G4xll2tyIH8kRF1sFRY5X13kCd/oUhyt4wVlgidtDBb4bHGxgCTXhFmyL9bq0c9gpbGCzfBGfb43bvALOYdNyNGW6Sdy4hNMWwULkBTElxyQpaypITvYLGiU2RVIRW7pO4x23FLRdliUfkV2kb/vEXRyUBxLj59//vkHcov8YCa9de7e5d6QGgI3KASKIVJcm8EiXErqmFoABpJw6jU1nHsyElacU16MmTPmoJNJYRyUX0SS9KBpCKvpZT84X2RoXEyNYOFW4+e87BkdED2mMCAZGanEuU2q1XXIGKnRR/2Wwamb8QhgaJPjx5vvjSNiNCY11rB8/vOfv/uN3/iNB9sf/uEfDosKa71z/a3XcswUqWGIAIfx17Zri7QrcEqhQ2+//fYQ9SBGkY8UM+B1vaUCaExBySIBymz0pV6ntrt+NlePrJHrpQtQQ0Q5ZkSbMzgFaOmniBfBlKUxLZHA4FIy2EJqRNR1GkCmwZQjoBc1m45UHzwgP3aPyNA9xFpWQYZB/9kdvFhzSJeSy9p16T/nJjtV7TcEhr2nwEmy8zJhmOi3bIIKtrpWYJlASvAUW1VHPtsLvEKS2RryjIQgPsEDgU+yDmk3zKL31vlZr1LrNDXDPlKqDfNP5MDhIyh1GifHT+1rHfmc42SjBWbamcKHyJQjzZGbvSk/bVPHUoF1sD39qnXkO4u7kS0FuaLHSGjklj2d5ptktvcuDz2pMRCUimL8X3t3tyo1D4UBGD1TBD1RxANBEAVFRA/En1MR70HQG/GevMT98Yy8EvNN23Sm7exxEsjuzDRNk5VkrXf9JJsQYEJELAsfw7dgmLncg4gxvyBrg8RasjaoMWjQugkfwGWwLYpyoitn4ULV+iMbfJmFwpXJsk60N/WZMJ4ts4WWRVc/1/odI0A/DHQoa1eEOHDDLCoyH7gps8UeS83Y+9HBAmeW1Z8kmgirFNN0soWEqR3C2AFfAMRY6KfE0uI3VpGy7Sw3BElpojaX0J5WVNIG0BizHqU/tHPgFq2icbkaaz7pqUS4YbiX5H5CE3SnnQMCwPMUqMEnzA/zKuM8Rds5980BfCTWtZZnw7uAMgLCmAMoBI/63CeUzMXPnz9fPXjw4OrOnTu7LbLArwBU9ygw5uQa/WrpxxplWKeACxaHJOOHd1j3+l2uNzEhASIpv++KRqwi9XpNXeoFeqIkGAN8ANC0tTv8wGc8zriFv2ofa4/2pb5c8TH8eV/SJnOZlYcrR/vw/mOS/nGX42VJZA0LYdqUKxmI3vo6lqwxlqU8t++KN3OnSfogePjDhw9/6Bb6cSEC6i08bqxN++6dPagh8GjU2XMvJoG2g+AEiyBKjJ8GaUcJZsHsaCIF1JiYPrckzNSk9UwmfstzFijtm+ZlN4x2AQKlwLYo9IN1RkyKzDUBmEHIQ6CGudMOIOVp/WXWZ1rAEsmkn8reA6HzH3O/1Nnv7k8ldAakgA6fk8benzJzrhiS+YAZlYsaAyCgyvZb0PvafkybgBFjiymX72KKb5lfmBaGFMY6p+9Ll0WzLSw1+kprZrl4/vz5zg2AhkNrGDNmFjd+rGnovHSaC2rMGWMPjLPSsQaY7+JluBEoZ0lAK+FOMFJu8A7ZWiK8HGRGG+bK/FcS/sxaY13WaWi91eWGvg89X/5ePkvwik0p16fPFFWg03NlKuspP5dl9n3G58gH4IwsOCbhadZjvSbK9pSfW99VPjP0OXXpg3W3j3YUfH2lZCydzhbUICitncDHSJm/4ivE5AkfgIGZGmExQUwDs8AQCBETErBY21JjkhpEKBxoYVmAWLVdHzKBMWtuJJYlaDcAiGD3nUlxn/uJli/oFZCDzstMm1vDxDc2EY2NvmBMdfa7+y0JXVrLttQ3VAYzKYGTcr7XfZjT9qF31b8P0ar1XfvaXr9jq+9bgBqWRwCG+4ErgpWGdsh0z7weJulKeSB4uBKdCPvkyZOrly9f7p5bmiatoMZ4W9di6eIu5u6kLYt3cIyAOCn1JeFRlCgASH+4FfAC/eU+Z9nD20oLYp495+t1mdv4UM3H8r3mG8fS27uWqDO024J/jvVZO0Kr+roWfz9LUGOgaF1cTDQvYAZwgUozKTKYrgjrd4IC2BEfQvsBLmh76qgR7dBAqWuupYZbBugS+5KtwawrgA1mhVFL2sf0LHI9lhwWHhYnbRTx73udWIAEjLHKJCYjV757jLCnToG1KbAFqGHdoJBYHxQWa4YwJ+S5DrjzmO8pKiyXgq7v37+/O3nYuTYPHz7cuaf5/W19rTNwsM8aN0W7VlCDf+A9zmfSDwoY5cs7WSVY6CgurDBJLHZAD4WIK4QLF7DjzgBqxEiwRoXn5bl+7RS4RAqcJagBAsRAsEiwYAQUtA4gBoCBYICsJ7S+NUEN5stNYPdPmTFQv2N0UgATdxkQk8ORXGl1/Lj7QA1hwkRa1p3PfNBLanAYZ2eerTNt2XKhfa6H1L7m2G0BamKBoSiUSXAlfmBrKmvH48ePd/En5anDPotLYSGlCAH7ZRbbwnLKMjo3tYIa9XKrsDABJAmwzFXbfE5cQtrBKgUEeQ7vChBSB+WO0tZTp0CnwNXVWYKaBIta+ADKIQmAwIRpTbQgprGWFODRElOjbJgPTWwoAz2YNYEDhIid4a4CepJt6QVuMDFJWW327FC9+V0baLTHJO8D/LiztKmkl8/qj8AU9EbIlMGr+pfgZ+1JLusZah86Aq51X+f0q27j0Lv2/e79+tdCQ2WNHU17DCi7pz7z1zMtSR9YF7kfasGrDjTOmKN11kbGzpUlgECn5We8Wt7dUmYLUAOga7+A7YwHgQ7QsNaIK2FJFdQtuDZWmoAb/zOK5RP96sxNrP6WOVnTYw6o8ax1ztX89OnTq2fPnv2V7Z6prassrlznYiWydtBbv4Ga1jlUt/u6fNd+8zXgzFoXXyR4tiWZC3iEnPFTp3VWzvNj+FBLO3qZ01NgE1CDEdu6vFQCRGhVx1ogLAQCmO+9lSko1+p+ItRZVjAkkd5DmSmaX92ixmgFChI+ZdJXII4FRrJwaW2sTEP15nfBhHmurHPOZ23TRmBOfFIECoZBiAsGi8WMa1CMTxnkRwjZ4munlqBG2fk0XAVhQkPtUQ/tlaswfXI1DrVGqz0EtjY6K0K7jRlQSBgOAQ3PERLmgmeTjaE5EqCSNqrTPeU8k+Bz9QjqNEcBDAkj1RYauqQNxkQgsniJ/L67Wf3xHvWIwzCGngNqAHu/cU0QBOqwswFd7KAx57RBMlYEPlcHQKp9Ah3TvuqVB3/dAtSYY3bXcS8lLo4ryU5HAfHc0NaQMRG3Is6MK/bNmzc71xMAgU5Lp7mgxrzlLuaCNh5lNifKtaOt3E42QTg0MutHLJ1NBfiFeXLOSX+BtvAp42j+sryNJWvJ2mLJQgd0Qj8WcHMdgC0D7o09q3fNhyhrU3xorB393vWhwOqgRjAuRsylssSkISAwL+4WAuvYhBlEO2ipS/lWUEOjwngtzrEsMJhWQvgQPJiVmAGBgASf7LOdD2IAaDHaTNsTJDlWt3voVTPJlr6mjD4T2gAUSxGARXhL7mE8zjoIyOTvx7CNfRIhaieX/2Hk6h+hOasHAwpAStn6ytXA9QbY2G6ZrM6yX2iCmakT+BJjEXrZ5i9WYWirpH6ol7AU04TxAZtoD2Dqo/tJ6sEIMVLlZCDT+whRcx5oMFbq0BYA15h59vv377sziZzFE0aeussrpg3AxD1BKxePBbSw3AFq3gFgeY82eg8hL3jWGACcXDLWjPWjbeaw7/q9VNoC1GgviwqLjH4QYua4nUHWTtay+Yk/oI0YOqDa2CoP7Cyd5oIa57I4n0YQM8BcZuNFMSgBuHi6d+/e7QKebZGVfZfN1SXHcWnatNQH5JmzLDPGET0AdG74sQTMO9vLmjPH7QLFKyjSgA7FybxMUq+TuwWOl3wI/5riQ6mjX683BVYHNYQhAR0Geyw5CACCAxM/xUL2zlZQo6+YrMUyldMX/XLAluA/TDgHPOXKVRZB7pmpet3XhoCQQ+hPO8ZsWF8wH3UmaQMtM4f8sYiwCgBmAEYSwIPpfPv2bXeoHg3Vrg20LMFPypdXrhwB1oCF+stMa0czCYikmQHQwJd2ARO0dqAA4yLk9iX9IEwIP/0EOtBff71fMDbhmUSwAhb64R1ORXUmA+DkMD5tBWoAHdYCz6OLNgA1zqYBvgAUQncoUQRYZIw7Jm+nn8PHHFuAcavf+OgXiwXacP0RlgATi6bP79+/34Enc8EzAJGypeAcakPr71uAmrRFnwEb4Fg/fB+a4343vsYDjabmW94x5zoX1GiDcTGOWdu5WkvWRea1drB0m8PcTeaCbK6Z68Cd/p1rMidZUAAToAOIt17M9SlQwwpDuUEz8ZHAn2cocnaL+bcK1rQ5j0b4kPNlrD/rI3wIDVldezp/CqwOajBbk8s5DAQO5nNIwpgscsG9hACN8xTJwpgDaua2kRBj6eDq4ZqpM3DBvL5lIgyybbamO0YABNCyMCbCEmPBNLhtJEwLM1GOFYRVQ0CkTNCzMIwxZVvSPUsAABJlJtgJCPMDWMD0gRGmbIxK/SwSLDfAtTJjSV/VyYWD1oBSmCwaJAE1LFcAC+sLcOK+vonlEBelLpY65TBroIcLgYWHtsiiIq5iDNSwNgBlaOtdaAYMcUFh1jR+bQT2CQK013Y7ZQhNdLAz7u3bt7ut/cZCZvEB/Dy7VFob1BhjNGW50y/0+/jx425caeUOOzyUvxxLg7mgBt2BZc/Va9x3grocG2uAW7VWKNDc/Eabc0z6g9/hGxRf48gy+uvXr90c9vtUYq1BM6BQeZZvPIHySwHgtkZnAB4fwoMcWFjyIaCR1XOMD021o9+/HhRYHdSYJJg+JA3Y0K4AnTmLUB0ADS1LAB1/K8Z8iqQta4KaU/Rp6p0ECUYhJqYENRgS6wWBjlEArxgDUEBYs9QYJ0IbSDMHMBgCVXmZ4CWwY32q2wLkAQaeBQ5KQOOz3wkA7fIu7wRmCHZMjhkfkKHltoCaxGdgesAD0IY5AgwlqAEsacm0Q2CdZQdDxhxtJQam0A2YCahxnxAG0MR4TIEa/fF+NHJ2Cc1SXYAbAeAfOgIv2sx9qV4xF+gC2HkfJQCdmdsJRnUaN/Rhti8FZ037ud+3ADV4CU3cgXPOnLl79+7Vixcvdt8B17H4pLn9mVN+LqiZU/e/XJYlFBAHsGPp5EKlUFjH1u1UAuxZS/EVGU/grmedwZvwJfE13sWCYy3jQ6zhrtYHZYGSEEVs6p39/vWlwOqgRtcJJloUBkxrJMQIH8JmDBljvsAMxk5wYd6nBDT60kHNbwuZMaUhcrMAC8kAAJcHUzJtSTnMisAllOPzZrHgpuHzJoBprfsSoYsJiT/wfIIkXZmOAS1tADJo6dydrBa0ecwOkzKHAJAxUANks74AbywigAqmCizE/VSCGnMX83VgmjmNQXovcMai5F20wrh/WBaUVxZzpUECTWOWGrTTDzRCK647bj3/68p34MnzQJ93A1KYeIKwWXMwc21gPVIGqJEx/3MDNeaHeAvzwT+yzI4mV/8LjDBjzThF6qDmMKrjDdzQ4gWtF2AGaLUGuY9bQI11D6ywFpvX1hqFAgBWB96AbxsjMggfoRBYO/7nFl6EX7HysBr1dN4U2ATUIBEzOmAjqM2EokUDKuIFRK/XmXACZgQA0n5l2vgcC88aQ9NBzW9QQ7gQyszEgAMGQlNm4fAbQZyYGsLZ2HHjsNax5mBWXDRcK8zCBO2+ZLwBG8Id0MhccBVXEEuMOlgigAmWtDKLuQCqgJSxmBpMj8DUbm0GFgAa7jHMsQQ12oqZciUBCz5rq0y4smBhrECF2Ae00WbABiDinpuy1HgHuogbYPERU6Mfr1692llqfNdGoM281G7xNN4D4NBe0cHnT58+/QE1aOBZmql2L5XWttSE5saT5aoENV++fNnNL4rQKVIHNYdR3XgBM4K38RHznawgD6x3c7clUaZ4AViFyQ6ZUmM9WIdS+JCyLJ3WDh5kbU7xoZY29DLXgwKbgRrdxfAxYOZzzJmAc2X+YwYsMzN7aQUYEkZbk/ESQQ3as66xihCwxhHT4QokyCRlMAlAhym5BDUZI6CDVhbLB0sC5jOVCGsgmCDmiknmQsH0WIyAGswq98qrcv4fFsAy5G4xrhhguYMm7doXU+MeZvnjx4/dcxgyK4FMa9RHbZKAcwAGAPIeoMY/yGsBNZ7XJhqof2ZY/ndyn5nNjYXEMsbSVPbdZxqsXWex1FAUMHNB1hj9UmkLUKOtrGGC6W/evLkDNk4KZsUKiF6qP3Pq6aBmDrX+LsuSwnrCamOuW0Pmcg5G/Lv0/m+UGUHBLKd4j2xtfv369c/6yJOAj3OMKFd4kLWQNZQy/Xq+FNgU1JRkwvCZHGn1tNo6E6L8ogTAdUqXCGpoUyxqwKeAvCntft+WbmMI1GA2ATUsCS3MROAgl475Yj4ks14Q6twrYwkTY17GvA6ZT0OgBpBz3gVXEqEqrkb2Gz9+QE3dNsCKmwj4c9W+sYTRAyeYtN1TpRWKpWoIqKVO7fDfrFmNlBVzw/W0tKtmK1CDHlyW9+7du7px48bVo0ePdlp9NPL0e8trBzWHU5ulhluV4uGfe2YdUaLE4rUkoEac2q1bt65u3769y5QAsWS14mS98RgATXgQK2wLH2ppRy9zegqcDNToOo0fSBjK7l+3dImgxhgQhhY/68KU1YyriCZdMwrASOyJ2KhsTW0J7ASiWFFs67YtPBl4YP2YAirGjOsJcJ4CAPvmmxgY7aVJlkm9NErAAlBL9l2/hlxqnuOuA5ZojCxNY0msDysTFxJwUmbAyP2hZA0R9sATaxKwRQAwzS/tqtkK1Gi3IFAxRaw1r1+/3o0Dup4qdVBzOOWtE+4ffCNryNUYt/AHb2ah5EZihWSxlcXWUGZqUGO92fkkXs76sbGh9T2H97I/uRUFTgpqturkku/BOGnKFlB5UuWS77iOdRGO+ktATgkPlgGCthaaXB1+5zOnnamrLrOv794NjABJXDnJvgM0U+DXfW5PYGyq7L73p737wBOGrA91nqJRYgcEvk+5gJRFe/0GhsqsX+6PJW0BOLQRDdB+6p1j9Q3d2wrUeD+AJtCTZs7lgI6HjO1QX+b+3kHNXIr9Xf7QdZRaMq/xnqxFyhBrpO9lCh9SFg+Sp9ZQ+Xz/fL0p0EHNzPG5VFCDTIRGq+AYKpff59SVd6N9nVPf1DDOfV9d37HP1/Xl+5z21333fc7z3rlWP9S9JaghiGjZtnYLMi2PGghtt7x2ULMltf//rqF5PbQ+8vvQc/9/Q//lXCjQQc3MkSJILtFSM5NMvfgFUmBLUEOzZrFy6iwL1qk17Q5qLnDC9y5fSwp0UDNzWDqomUmwXvxiKLAlqEFU7gM7WFpckGsPQgc1a1O4198p0EaBDmra6PSnFHOlwDJbjJnAe+oU6BT4TQGgxtZcAZgOUXNgouDwtZK1yO1E0Th1sktHMHc/vO3UI9Hff+kUmA1qBF/ZOWE77SVmZ7HYseK/UNPOLpEGvc+XOfenxt0xDLa3Ow3WAYTO4hH3MvXcv3Df0QJOi3a21r/Qn96Hvsa3ngN2jS6x+WY2qLHbglbinIhLzHY9OT/BeSuO3r9EGvQ+X+bcnxp3gt22e4doOlnalvv8H6qpZ8/9/s+fP3cHS+r7ufelt7+v71PMASe2OyLj2DQb1LDU+HcH/sXBpeYgWFabS6VB7/flzv+hsbceHFXvKlsnl7JGOk/o62FoXfTf2+aGQ1adLn1smg1qjn1hf75ToFOgU6BToFOgU6BTYA0KdFCzBlV7nZ0CnQKdAp0CnQKdAptToIOazUneX9gp0CnQKdAp0CnQKbAGBf4DumUETV++JjgAAAAASUVORK5CYII=;" vertex="1" parent="1">
          <mxGeometry x="10" y="10" width="565" height="261" as="geometry" />
        </mxCell>
        <mxCell id="AIi_DUGuVKqyzoAr-9P3-4" value="프로그램 시작&lt;br&gt;(Program start)" style="strokeWidth=2;html=1;shape=mxgraph.flowchart.terminator;whiteSpace=wrap;" vertex="1" parent="1">
          <mxGeometry x="210" y="380" width="120" height="60" as="geometry" />
        </mxCell>
        <mxCell id="AIi_DUGuVKqyzoAr-9P3-5" value="" style="endArrow=classic;html=1;exitX=0.5;exitY=1;exitDx=0;exitDy=0;exitPerimeter=0;entryX=0.5;entryY=0;entryDx=0;entryDy=0;" edge="1" parent="1" source="AIi_DUGuVKqyzoAr-9P3-4" target="AIi_DUGuVKqyzoAr-9P3-6">
          <mxGeometry width="50" height="50" relative="1" as="geometry">
            <mxPoint x="90" y="240" as="sourcePoint" />
            <mxPoint x="80" y="490" as="targetPoint" />
          </mxGeometry>
        </mxCell>
        <mxCell id="AIi_DUGuVKqyzoAr-9P3-6" value="" style="whiteSpace=wrap;html=1;aspect=fixed;" vertex="1" parent="1">
          <mxGeometry x="105" y="490" width="330" height="330" as="geometry" />
        </mxCell>
        <mxCell id="AIi_DUGuVKqyzoAr-9P3-8" value="&lt;font color=&quot;rgba(0, 0, 0, 0)&quot; face=&quot;monospace&quot;&gt;&lt;span style=&quot;font-size: 0px&quot;&gt;aaa&lt;/span&gt;&lt;/font&gt;" style="rounded=0;whiteSpace=wrap;html=1;" vertex="1" parent="1">
          <mxGeometry x="120" y="540" width="300" height="60" as="geometry" />
        </mxCell>
        <mxCell id="AIi_DUGuVKqyzoAr-9P3-12" value="" style="rounded=0;whiteSpace=wrap;html=1;" vertex="1" parent="1">
          <mxGeometry x="120" y="612.5" width="300" height="167.5" as="geometry" />
        </mxCell>
        <mxCell id="AIi_DUGuVKqyzoAr-9P3-13" value="서버 어플리케이션 생성&lt;br&gt;&amp;nbsp;const app = express();" style="text;html=1;resizable=0;autosize=1;align=center;verticalAlign=middle;points=[];fillColor=none;strokeColor=none;rounded=0;" vertex="1" parent="1">
          <mxGeometry x="200" y="555" width="140" height="30" as="geometry" />
        </mxCell>
        <mxCell id="AIi_DUGuVKqyzoAr-9P3-14" value="&lt;br&gt;HTTP handler를 등록하는 함수 생성&lt;br&gt;&lt;span style=&quot;color: rgb(0 , 0 , 0) ; font-family: &amp;#34;helvetica&amp;#34; ; font-size: 12px ; font-style: normal ; font-weight: 400 ; letter-spacing: normal ; text-align: center ; text-indent: 0px ; text-transform: none ; word-spacing: 0px ; background-color: rgb(248 , 249 , 250) ; display: inline ; float: none&quot;&gt;METHODS.forEach(() =&amp;gt; ...);&lt;/span&gt;&lt;br&gt;" style="text;html=1;strokeColor=none;fillColor=none;align=center;verticalAlign=middle;whiteSpace=wrap;rounded=0;" vertex="1" parent="1">
          <mxGeometry x="170" y="620" width="200" height="20" as="geometry" />
        </mxCell>
        <mxCell id="AIi_DUGuVKqyzoAr-9P3-15" value="this.router 생성" style="rounded=0;whiteSpace=wrap;html=1;" vertex="1" parent="1">
          <mxGeometry x="150" y="670" width="240" height="30" as="geometry" />
        </mxCell>
        <mxCell id="AIi_DUGuVKqyzoAr-9P3-17" value="" style="curved=1;endArrow=classic;html=1;exitX=1;exitY=0.5;exitDx=0;exitDy=0;" edge="1" parent="1" source="AIi_DUGuVKqyzoAr-9P3-23">
          <mxGeometry width="50" height="50" relative="1" as="geometry">
            <mxPoint x="540" y="680" as="sourcePoint" />
            <mxPoint x="620" y="570" as="targetPoint" />
            <Array as="points">
              <mxPoint x="540" y="660" />
              <mxPoint x="580" y="630" />
              <mxPoint x="520" y="600" />
            </Array>
          </mxGeometry>
        </mxCell>
        <mxCell id="AIi_DUGuVKqyzoAr-9P3-18" value="path : &#39;/&#39;" style="rounded=0;whiteSpace=wrap;html=1;" vertex="1" parent="1">
          <mxGeometry x="630" y="540" width="120" height="40" as="geometry" />
        </mxCell>
        <mxCell id="AIi_DUGuVKqyzoAr-9P3-19" value="Layer" style="text;html=1;strokeColor=none;fillColor=none;align=center;verticalAlign=middle;whiteSpace=wrap;rounded=0;" vertex="1" parent="1">
          <mxGeometry x="630" y="520" width="40" height="20" as="geometry" />
        </mxCell>
        <mxCell id="AIi_DUGuVKqyzoAr-9P3-20" value="app.get(&#39;/&#39;, (req,res) =&amp;gt; res.send(&#39;root&#39;));" style="rounded=1;whiteSpace=wrap;html=1;" vertex="1" parent="1">
          <mxGeometry x="70" y="910" width="400" height="30" as="geometry" />
        </mxCell>
        <mxCell id="AIi_DUGuVKqyzoAr-9P3-21" value="" style="endArrow=classic;html=1;exitX=0.5;exitY=1;exitDx=0;exitDy=0;entryX=0.5;entryY=0;entryDx=0;entryDy=0;" edge="1" parent="1" source="AIi_DUGuVKqyzoAr-9P3-6" target="AIi_DUGuVKqyzoAr-9P3-20">
          <mxGeometry width="50" height="50" relative="1" as="geometry">
            <mxPoint x="269.5" y="940" as="sourcePoint" />
            <mxPoint x="270" y="1000" as="targetPoint" />
          </mxGeometry>
        </mxCell>
        <mxCell id="AIi_DUGuVKqyzoAr-9P3-23" value="Layer 생성" style="rounded=0;whiteSpace=wrap;html=1;" vertex="1" parent="1">
          <mxGeometry x="150" y="720" width="240" height="30" as="geometry" />
        </mxCell>
        <mxCell id="AIi_DUGuVKqyzoAr-9P3-24" value="" style="endArrow=classic;html=1;exitX=0.5;exitY=1;exitDx=0;exitDy=0;" edge="1" parent="1" source="AIi_DUGuVKqyzoAr-9P3-15" target="AIi_DUGuVKqyzoAr-9P3-23">
          <mxGeometry width="50" height="50" relative="1" as="geometry">
            <mxPoint x="290" y="820" as="sourcePoint" />
            <mxPoint x="340" y="770" as="targetPoint" />
          </mxGeometry>
        </mxCell>
        <mxCell id="AIi_DUGuVKqyzoAr-9P3-25" value="app.get(&#39;/cats&#39;, (req,res) =&amp;gt; res.send(&#39;cats&#39;));" style="rounded=1;whiteSpace=wrap;html=1;" vertex="1" parent="1">
          <mxGeometry x="70" y="950" width="400" height="30" as="geometry" />
        </mxCell>
        <mxCell id="AIi_DUGuVKqyzoAr-9P3-26" value="app.get(&#39;/dogs&#39;, (req,res) =&amp;gt; res.send(&#39;dogs&#39;));" style="rounded=1;whiteSpace=wrap;html=1;" vertex="1" parent="1">
          <mxGeometry x="70" y="990" width="400" height="30" as="geometry" />
        </mxCell>
        <mxCell id="AIi_DUGuVKqyzoAr-9P3-29" value="" style="curved=1;endArrow=classic;html=1;exitX=0;exitY=0.5;exitDx=0;exitDy=0;exitPerimeter=0;entryX=1;entryY=1;entryDx=0;entryDy=0;" edge="1" parent="1" source="AIi_DUGuVKqyzoAr-9P3-31" target="AIi_DUGuVKqyzoAr-9P3-12">
          <mxGeometry width="50" height="50" relative="1" as="geometry">
            <mxPoint x="530" y="925" as="sourcePoint" />
            <mxPoint x="610" y="870" as="targetPoint" />
            <Array as="points">
              <mxPoint x="610" y="920" />
              <mxPoint x="530" y="840" />
            </Array>
          </mxGeometry>
        </mxCell>
        <mxCell id="AIi_DUGuVKqyzoAr-9P3-31" value="" style="strokeWidth=2;html=1;shape=mxgraph.flowchart.annotation_1;align=left;pointerEvents=1;rotation=-180;" vertex="1" parent="1">
          <mxGeometry x="480" y="915" width="20" height="95" as="geometry" />
        </mxCell>
        <mxCell id="AIi_DUGuVKqyzoAr-9P3-32" value="실질적인 handler 등록" style="text;html=1;strokeColor=none;fillColor=none;align=center;verticalAlign=middle;whiteSpace=wrap;rounded=0;" vertex="1" parent="1">
          <mxGeometry x="70" y="890" width="150" height="20" as="geometry" />
        </mxCell>
        <mxCell id="AIi_DUGuVKqyzoAr-9P3-33" value="실행 요청" style="text;html=1;strokeColor=none;fillColor=none;align=center;verticalAlign=middle;whiteSpace=wrap;rounded=0;" vertex="1" parent="1">
          <mxGeometry x="500" y="915" width="60" height="20" as="geometry" />
        </mxCell>
        <mxCell id="AIi_DUGuVKqyzoAr-9P3-39" value="path : &#39;/cats&#39;" style="rounded=0;whiteSpace=wrap;html=1;" vertex="1" parent="1">
          <mxGeometry x="630" y="600" width="120" height="40" as="geometry" />
        </mxCell>
        <mxCell id="AIi_DUGuVKqyzoAr-9P3-40" value="Layer" style="text;html=1;strokeColor=none;fillColor=none;align=center;verticalAlign=middle;whiteSpace=wrap;rounded=0;" vertex="1" parent="1">
          <mxGeometry x="630" y="580" width="40" height="20" as="geometry" />
        </mxCell>
        <mxCell id="AIi_DUGuVKqyzoAr-9P3-41" value="path : &#39;/dogs&#39;" style="rounded=0;whiteSpace=wrap;html=1;" vertex="1" parent="1">
          <mxGeometry x="630" y="660" width="120" height="40" as="geometry" />
        </mxCell>
        <mxCell id="AIi_DUGuVKqyzoAr-9P3-42" value="Layer" style="text;html=1;strokeColor=none;fillColor=none;align=center;verticalAlign=middle;whiteSpace=wrap;rounded=0;" vertex="1" parent="1">
          <mxGeometry x="630" y="640" width="40" height="20" as="geometry" />
        </mxCell>
      </root>
    </mxGraphModel>
  </diagram>
</mxfile>
